%TF.GenerationSoftware,KiCad,Pcbnew,9.0.4*%
%TF.CreationDate,2026-02-03T11:39:08-05:00*%
%TF.ProjectId,contProto,636f6e74-5072-46f7-946f-2e6b69636164,rev?*%
%TF.SameCoordinates,Original*%
%TF.FileFunction,Legend,Top*%
%TF.FilePolarity,Positive*%
%FSLAX46Y46*%
G04 Gerber Fmt 4.6, Leading zero omitted, Abs format (unit mm)*
G04 Created by KiCad (PCBNEW 9.0.4) date 2026-02-03 11:39:08*
%MOMM*%
%LPD*%
G01*
G04 APERTURE LIST*
%ADD10C,0.150000*%
%ADD11C,0.120000*%
G04 APERTURE END LIST*
D10*
X102065476Y-79819819D02*
X102065476Y-80534104D01*
X102065476Y-80534104D02*
X102017857Y-80676961D01*
X102017857Y-80676961D02*
X101922619Y-80772200D01*
X101922619Y-80772200D02*
X101779762Y-80819819D01*
X101779762Y-80819819D02*
X101684524Y-80819819D01*
X102446429Y-79819819D02*
X103065476Y-79819819D01*
X103065476Y-79819819D02*
X102732143Y-80200771D01*
X102732143Y-80200771D02*
X102875000Y-80200771D01*
X102875000Y-80200771D02*
X102970238Y-80248390D01*
X102970238Y-80248390D02*
X103017857Y-80296009D01*
X103017857Y-80296009D02*
X103065476Y-80391247D01*
X103065476Y-80391247D02*
X103065476Y-80629342D01*
X103065476Y-80629342D02*
X103017857Y-80724580D01*
X103017857Y-80724580D02*
X102970238Y-80772200D01*
X102970238Y-80772200D02*
X102875000Y-80819819D01*
X102875000Y-80819819D02*
X102589286Y-80819819D01*
X102589286Y-80819819D02*
X102494048Y-80772200D01*
X102494048Y-80772200D02*
X102446429Y-80724580D01*
X103446429Y-79915057D02*
X103494048Y-79867438D01*
X103494048Y-79867438D02*
X103589286Y-79819819D01*
X103589286Y-79819819D02*
X103827381Y-79819819D01*
X103827381Y-79819819D02*
X103922619Y-79867438D01*
X103922619Y-79867438D02*
X103970238Y-79915057D01*
X103970238Y-79915057D02*
X104017857Y-80010295D01*
X104017857Y-80010295D02*
X104017857Y-80105533D01*
X104017857Y-80105533D02*
X103970238Y-80248390D01*
X103970238Y-80248390D02*
X103398810Y-80819819D01*
X103398810Y-80819819D02*
X104017857Y-80819819D01*
X72320895Y-55540714D02*
X72320895Y-56016904D01*
X72035180Y-55445476D02*
X73035180Y-55778809D01*
X73035180Y-55778809D02*
X72035180Y-56112142D01*
X72035180Y-56969285D02*
X72035180Y-56397857D01*
X72035180Y-56683571D02*
X73035180Y-56683571D01*
X73035180Y-56683571D02*
X72892323Y-56588333D01*
X72892323Y-56588333D02*
X72797085Y-56493095D01*
X72797085Y-56493095D02*
X72749466Y-56397857D01*
X66815476Y-105389819D02*
X66815476Y-106104104D01*
X66815476Y-106104104D02*
X66767857Y-106246961D01*
X66767857Y-106246961D02*
X66672619Y-106342200D01*
X66672619Y-106342200D02*
X66529762Y-106389819D01*
X66529762Y-106389819D02*
X66434524Y-106389819D01*
X67244048Y-105485057D02*
X67291667Y-105437438D01*
X67291667Y-105437438D02*
X67386905Y-105389819D01*
X67386905Y-105389819D02*
X67625000Y-105389819D01*
X67625000Y-105389819D02*
X67720238Y-105437438D01*
X67720238Y-105437438D02*
X67767857Y-105485057D01*
X67767857Y-105485057D02*
X67815476Y-105580295D01*
X67815476Y-105580295D02*
X67815476Y-105675533D01*
X67815476Y-105675533D02*
X67767857Y-105818390D01*
X67767857Y-105818390D02*
X67196429Y-106389819D01*
X67196429Y-106389819D02*
X67815476Y-106389819D01*
X68672619Y-105723152D02*
X68672619Y-106389819D01*
X68434524Y-105342200D02*
X68196429Y-106056485D01*
X68196429Y-106056485D02*
X68815476Y-106056485D01*
X66468628Y-31726190D02*
X66944819Y-31726190D01*
X65944819Y-32059523D02*
X66468628Y-31726190D01*
X66468628Y-31726190D02*
X65944819Y-31392857D01*
X66944819Y-30535714D02*
X66944819Y-31107142D01*
X66944819Y-30821428D02*
X65944819Y-30821428D01*
X65944819Y-30821428D02*
X66087676Y-30916666D01*
X66087676Y-30916666D02*
X66182914Y-31011904D01*
X66182914Y-31011904D02*
X66230533Y-31107142D01*
X145214819Y-86452619D02*
X145214819Y-86928809D01*
X145214819Y-86928809D02*
X144214819Y-86928809D01*
X144214819Y-86262142D02*
X144214819Y-85690714D01*
X145214819Y-85976428D02*
X144214819Y-85976428D01*
X145214819Y-84833571D02*
X145214819Y-85404999D01*
X145214819Y-85119285D02*
X144214819Y-85119285D01*
X144214819Y-85119285D02*
X144357676Y-85214523D01*
X144357676Y-85214523D02*
X144452914Y-85309761D01*
X144452914Y-85309761D02*
X144500533Y-85404999D01*
X81587738Y-40683509D02*
X81730595Y-40731128D01*
X81730595Y-40731128D02*
X81778214Y-40778747D01*
X81778214Y-40778747D02*
X81825833Y-40873985D01*
X81825833Y-40873985D02*
X81825833Y-41016842D01*
X81825833Y-41016842D02*
X81778214Y-41112080D01*
X81778214Y-41112080D02*
X81730595Y-41159700D01*
X81730595Y-41159700D02*
X81635357Y-41207319D01*
X81635357Y-41207319D02*
X81254405Y-41207319D01*
X81254405Y-41207319D02*
X81254405Y-40207319D01*
X81254405Y-40207319D02*
X81587738Y-40207319D01*
X81587738Y-40207319D02*
X81682976Y-40254938D01*
X81682976Y-40254938D02*
X81730595Y-40302557D01*
X81730595Y-40302557D02*
X81778214Y-40397795D01*
X81778214Y-40397795D02*
X81778214Y-40493033D01*
X81778214Y-40493033D02*
X81730595Y-40588271D01*
X81730595Y-40588271D02*
X81682976Y-40635890D01*
X81682976Y-40635890D02*
X81587738Y-40683509D01*
X81587738Y-40683509D02*
X81254405Y-40683509D01*
X82778214Y-41207319D02*
X82206786Y-41207319D01*
X82492500Y-41207319D02*
X82492500Y-40207319D01*
X82492500Y-40207319D02*
X82397262Y-40350176D01*
X82397262Y-40350176D02*
X82302024Y-40445414D01*
X82302024Y-40445414D02*
X82206786Y-40493033D01*
X129332200Y-100384523D02*
X129379819Y-100241666D01*
X129379819Y-100241666D02*
X129379819Y-100003571D01*
X129379819Y-100003571D02*
X129332200Y-99908333D01*
X129332200Y-99908333D02*
X129284580Y-99860714D01*
X129284580Y-99860714D02*
X129189342Y-99813095D01*
X129189342Y-99813095D02*
X129094104Y-99813095D01*
X129094104Y-99813095D02*
X128998866Y-99860714D01*
X128998866Y-99860714D02*
X128951247Y-99908333D01*
X128951247Y-99908333D02*
X128903628Y-100003571D01*
X128903628Y-100003571D02*
X128856009Y-100194047D01*
X128856009Y-100194047D02*
X128808390Y-100289285D01*
X128808390Y-100289285D02*
X128760771Y-100336904D01*
X128760771Y-100336904D02*
X128665533Y-100384523D01*
X128665533Y-100384523D02*
X128570295Y-100384523D01*
X128570295Y-100384523D02*
X128475057Y-100336904D01*
X128475057Y-100336904D02*
X128427438Y-100289285D01*
X128427438Y-100289285D02*
X128379819Y-100194047D01*
X128379819Y-100194047D02*
X128379819Y-99955952D01*
X128379819Y-99955952D02*
X128427438Y-99813095D01*
X128379819Y-99479761D02*
X129379819Y-99241666D01*
X129379819Y-99241666D02*
X128665533Y-99051190D01*
X128665533Y-99051190D02*
X129379819Y-98860714D01*
X129379819Y-98860714D02*
X128379819Y-98622619D01*
X129379819Y-97717857D02*
X129379819Y-98289285D01*
X129379819Y-98003571D02*
X128379819Y-98003571D01*
X128379819Y-98003571D02*
X128522676Y-98098809D01*
X128522676Y-98098809D02*
X128617914Y-98194047D01*
X128617914Y-98194047D02*
X128665533Y-98289285D01*
X129379819Y-97241666D02*
X129379819Y-97051190D01*
X129379819Y-97051190D02*
X129332200Y-96955952D01*
X129332200Y-96955952D02*
X129284580Y-96908333D01*
X129284580Y-96908333D02*
X129141723Y-96813095D01*
X129141723Y-96813095D02*
X128951247Y-96765476D01*
X128951247Y-96765476D02*
X128570295Y-96765476D01*
X128570295Y-96765476D02*
X128475057Y-96813095D01*
X128475057Y-96813095D02*
X128427438Y-96860714D01*
X128427438Y-96860714D02*
X128379819Y-96955952D01*
X128379819Y-96955952D02*
X128379819Y-97146428D01*
X128379819Y-97146428D02*
X128427438Y-97241666D01*
X128427438Y-97241666D02*
X128475057Y-97289285D01*
X128475057Y-97289285D02*
X128570295Y-97336904D01*
X128570295Y-97336904D02*
X128808390Y-97336904D01*
X128808390Y-97336904D02*
X128903628Y-97289285D01*
X128903628Y-97289285D02*
X128951247Y-97241666D01*
X128951247Y-97241666D02*
X128998866Y-97146428D01*
X128998866Y-97146428D02*
X128998866Y-96955952D01*
X128998866Y-96955952D02*
X128951247Y-96860714D01*
X128951247Y-96860714D02*
X128903628Y-96813095D01*
X128903628Y-96813095D02*
X128808390Y-96765476D01*
X73890476Y-104524819D02*
X73890476Y-105239104D01*
X73890476Y-105239104D02*
X73842857Y-105381961D01*
X73842857Y-105381961D02*
X73747619Y-105477200D01*
X73747619Y-105477200D02*
X73604762Y-105524819D01*
X73604762Y-105524819D02*
X73509524Y-105524819D01*
X74319048Y-104620057D02*
X74366667Y-104572438D01*
X74366667Y-104572438D02*
X74461905Y-104524819D01*
X74461905Y-104524819D02*
X74700000Y-104524819D01*
X74700000Y-104524819D02*
X74795238Y-104572438D01*
X74795238Y-104572438D02*
X74842857Y-104620057D01*
X74842857Y-104620057D02*
X74890476Y-104715295D01*
X74890476Y-104715295D02*
X74890476Y-104810533D01*
X74890476Y-104810533D02*
X74842857Y-104953390D01*
X74842857Y-104953390D02*
X74271429Y-105524819D01*
X74271429Y-105524819D02*
X74890476Y-105524819D01*
X75223810Y-104524819D02*
X75890476Y-104524819D01*
X75890476Y-104524819D02*
X75461905Y-105524819D01*
X58538572Y-83729819D02*
X58538572Y-82729819D01*
X58538572Y-82729819D02*
X58871905Y-83444104D01*
X58871905Y-83444104D02*
X59205238Y-82729819D01*
X59205238Y-82729819D02*
X59205238Y-83729819D01*
X59681429Y-83729819D02*
X59681429Y-82729819D01*
X60157619Y-83729819D02*
X60157619Y-82729819D01*
X60157619Y-82729819D02*
X60729047Y-83729819D01*
X60729047Y-83729819D02*
X60729047Y-82729819D01*
X61205238Y-82729819D02*
X61205238Y-83539342D01*
X61205238Y-83539342D02*
X61252857Y-83634580D01*
X61252857Y-83634580D02*
X61300476Y-83682200D01*
X61300476Y-83682200D02*
X61395714Y-83729819D01*
X61395714Y-83729819D02*
X61586190Y-83729819D01*
X61586190Y-83729819D02*
X61681428Y-83682200D01*
X61681428Y-83682200D02*
X61729047Y-83634580D01*
X61729047Y-83634580D02*
X61776666Y-83539342D01*
X61776666Y-83539342D02*
X61776666Y-82729819D01*
X62205238Y-83682200D02*
X62348095Y-83729819D01*
X62348095Y-83729819D02*
X62586190Y-83729819D01*
X62586190Y-83729819D02*
X62681428Y-83682200D01*
X62681428Y-83682200D02*
X62729047Y-83634580D01*
X62729047Y-83634580D02*
X62776666Y-83539342D01*
X62776666Y-83539342D02*
X62776666Y-83444104D01*
X62776666Y-83444104D02*
X62729047Y-83348866D01*
X62729047Y-83348866D02*
X62681428Y-83301247D01*
X62681428Y-83301247D02*
X62586190Y-83253628D01*
X62586190Y-83253628D02*
X62395714Y-83206009D01*
X62395714Y-83206009D02*
X62300476Y-83158390D01*
X62300476Y-83158390D02*
X62252857Y-83110771D01*
X62252857Y-83110771D02*
X62205238Y-83015533D01*
X62205238Y-83015533D02*
X62205238Y-82920295D01*
X62205238Y-82920295D02*
X62252857Y-82825057D01*
X62252857Y-82825057D02*
X62300476Y-82777438D01*
X62300476Y-82777438D02*
X62395714Y-82729819D01*
X62395714Y-82729819D02*
X62633809Y-82729819D01*
X62633809Y-82729819D02*
X62776666Y-82777438D01*
X63729047Y-83729819D02*
X63157619Y-83729819D01*
X63443333Y-83729819D02*
X63443333Y-82729819D01*
X63443333Y-82729819D02*
X63348095Y-82872676D01*
X63348095Y-82872676D02*
X63252857Y-82967914D01*
X63252857Y-82967914D02*
X63157619Y-83015533D01*
X132415476Y-79834819D02*
X132415476Y-80549104D01*
X132415476Y-80549104D02*
X132367857Y-80691961D01*
X132367857Y-80691961D02*
X132272619Y-80787200D01*
X132272619Y-80787200D02*
X132129762Y-80834819D01*
X132129762Y-80834819D02*
X132034524Y-80834819D01*
X132844048Y-79930057D02*
X132891667Y-79882438D01*
X132891667Y-79882438D02*
X132986905Y-79834819D01*
X132986905Y-79834819D02*
X133225000Y-79834819D01*
X133225000Y-79834819D02*
X133320238Y-79882438D01*
X133320238Y-79882438D02*
X133367857Y-79930057D01*
X133367857Y-79930057D02*
X133415476Y-80025295D01*
X133415476Y-80025295D02*
X133415476Y-80120533D01*
X133415476Y-80120533D02*
X133367857Y-80263390D01*
X133367857Y-80263390D02*
X132796429Y-80834819D01*
X132796429Y-80834819D02*
X133415476Y-80834819D01*
X134272619Y-79834819D02*
X134082143Y-79834819D01*
X134082143Y-79834819D02*
X133986905Y-79882438D01*
X133986905Y-79882438D02*
X133939286Y-79930057D01*
X133939286Y-79930057D02*
X133844048Y-80072914D01*
X133844048Y-80072914D02*
X133796429Y-80263390D01*
X133796429Y-80263390D02*
X133796429Y-80644342D01*
X133796429Y-80644342D02*
X133844048Y-80739580D01*
X133844048Y-80739580D02*
X133891667Y-80787200D01*
X133891667Y-80787200D02*
X133986905Y-80834819D01*
X133986905Y-80834819D02*
X134177381Y-80834819D01*
X134177381Y-80834819D02*
X134272619Y-80787200D01*
X134272619Y-80787200D02*
X134320238Y-80739580D01*
X134320238Y-80739580D02*
X134367857Y-80644342D01*
X134367857Y-80644342D02*
X134367857Y-80406247D01*
X134367857Y-80406247D02*
X134320238Y-80311009D01*
X134320238Y-80311009D02*
X134272619Y-80263390D01*
X134272619Y-80263390D02*
X134177381Y-80215771D01*
X134177381Y-80215771D02*
X133986905Y-80215771D01*
X133986905Y-80215771D02*
X133891667Y-80263390D01*
X133891667Y-80263390D02*
X133844048Y-80311009D01*
X133844048Y-80311009D02*
X133796429Y-80406247D01*
X91820180Y-84583333D02*
X92820180Y-84583333D01*
X92820180Y-84583333D02*
X92820180Y-84964285D01*
X92820180Y-84964285D02*
X92772561Y-85059523D01*
X92772561Y-85059523D02*
X92724942Y-85107142D01*
X92724942Y-85107142D02*
X92629704Y-85154761D01*
X92629704Y-85154761D02*
X92486847Y-85154761D01*
X92486847Y-85154761D02*
X92391609Y-85107142D01*
X92391609Y-85107142D02*
X92343990Y-85059523D01*
X92343990Y-85059523D02*
X92296371Y-84964285D01*
X92296371Y-84964285D02*
X92296371Y-84583333D01*
X92105895Y-85535714D02*
X92105895Y-86011904D01*
X91820180Y-85440476D02*
X92820180Y-85773809D01*
X92820180Y-85773809D02*
X91820180Y-86107142D01*
X91820180Y-86440476D02*
X92820180Y-86440476D01*
X92820180Y-86440476D02*
X92820180Y-86678571D01*
X92820180Y-86678571D02*
X92772561Y-86821428D01*
X92772561Y-86821428D02*
X92677323Y-86916666D01*
X92677323Y-86916666D02*
X92582085Y-86964285D01*
X92582085Y-86964285D02*
X92391609Y-87011904D01*
X92391609Y-87011904D02*
X92248752Y-87011904D01*
X92248752Y-87011904D02*
X92058276Y-86964285D01*
X92058276Y-86964285D02*
X91963038Y-86916666D01*
X91963038Y-86916666D02*
X91867800Y-86821428D01*
X91867800Y-86821428D02*
X91820180Y-86678571D01*
X91820180Y-86678571D02*
X91820180Y-86440476D01*
X92724942Y-87392857D02*
X92772561Y-87440476D01*
X92772561Y-87440476D02*
X92820180Y-87535714D01*
X92820180Y-87535714D02*
X92820180Y-87773809D01*
X92820180Y-87773809D02*
X92772561Y-87869047D01*
X92772561Y-87869047D02*
X92724942Y-87916666D01*
X92724942Y-87916666D02*
X92629704Y-87964285D01*
X92629704Y-87964285D02*
X92534466Y-87964285D01*
X92534466Y-87964285D02*
X92391609Y-87916666D01*
X92391609Y-87916666D02*
X91820180Y-87345238D01*
X91820180Y-87345238D02*
X91820180Y-87964285D01*
X129189819Y-86702619D02*
X128713628Y-87035952D01*
X129189819Y-87274047D02*
X128189819Y-87274047D01*
X128189819Y-87274047D02*
X128189819Y-86893095D01*
X128189819Y-86893095D02*
X128237438Y-86797857D01*
X128237438Y-86797857D02*
X128285057Y-86750238D01*
X128285057Y-86750238D02*
X128380295Y-86702619D01*
X128380295Y-86702619D02*
X128523152Y-86702619D01*
X128523152Y-86702619D02*
X128618390Y-86750238D01*
X128618390Y-86750238D02*
X128666009Y-86797857D01*
X128666009Y-86797857D02*
X128713628Y-86893095D01*
X128713628Y-86893095D02*
X128713628Y-87274047D01*
X128189819Y-86416904D02*
X128189819Y-85845476D01*
X129189819Y-86131190D02*
X128189819Y-86131190D01*
X129189819Y-84988333D02*
X129189819Y-85559761D01*
X129189819Y-85274047D02*
X128189819Y-85274047D01*
X128189819Y-85274047D02*
X128332676Y-85369285D01*
X128332676Y-85369285D02*
X128427914Y-85464523D01*
X128427914Y-85464523D02*
X128475533Y-85559761D01*
X81215476Y-80809819D02*
X81215476Y-81524104D01*
X81215476Y-81524104D02*
X81167857Y-81666961D01*
X81167857Y-81666961D02*
X81072619Y-81762200D01*
X81072619Y-81762200D02*
X80929762Y-81809819D01*
X80929762Y-81809819D02*
X80834524Y-81809819D01*
X81596429Y-80809819D02*
X82215476Y-80809819D01*
X82215476Y-80809819D02*
X81882143Y-81190771D01*
X81882143Y-81190771D02*
X82025000Y-81190771D01*
X82025000Y-81190771D02*
X82120238Y-81238390D01*
X82120238Y-81238390D02*
X82167857Y-81286009D01*
X82167857Y-81286009D02*
X82215476Y-81381247D01*
X82215476Y-81381247D02*
X82215476Y-81619342D01*
X82215476Y-81619342D02*
X82167857Y-81714580D01*
X82167857Y-81714580D02*
X82120238Y-81762200D01*
X82120238Y-81762200D02*
X82025000Y-81809819D01*
X82025000Y-81809819D02*
X81739286Y-81809819D01*
X81739286Y-81809819D02*
X81644048Y-81762200D01*
X81644048Y-81762200D02*
X81596429Y-81714580D01*
X82548810Y-80809819D02*
X83167857Y-80809819D01*
X83167857Y-80809819D02*
X82834524Y-81190771D01*
X82834524Y-81190771D02*
X82977381Y-81190771D01*
X82977381Y-81190771D02*
X83072619Y-81238390D01*
X83072619Y-81238390D02*
X83120238Y-81286009D01*
X83120238Y-81286009D02*
X83167857Y-81381247D01*
X83167857Y-81381247D02*
X83167857Y-81619342D01*
X83167857Y-81619342D02*
X83120238Y-81714580D01*
X83120238Y-81714580D02*
X83072619Y-81762200D01*
X83072619Y-81762200D02*
X82977381Y-81809819D01*
X82977381Y-81809819D02*
X82691667Y-81809819D01*
X82691667Y-81809819D02*
X82596429Y-81762200D01*
X82596429Y-81762200D02*
X82548810Y-81714580D01*
X137857142Y-52081130D02*
X137523809Y-51604939D01*
X137285714Y-52081130D02*
X137285714Y-51081130D01*
X137285714Y-51081130D02*
X137666666Y-51081130D01*
X137666666Y-51081130D02*
X137761904Y-51128749D01*
X137761904Y-51128749D02*
X137809523Y-51176368D01*
X137809523Y-51176368D02*
X137857142Y-51271606D01*
X137857142Y-51271606D02*
X137857142Y-51414463D01*
X137857142Y-51414463D02*
X137809523Y-51509701D01*
X137809523Y-51509701D02*
X137761904Y-51557320D01*
X137761904Y-51557320D02*
X137666666Y-51604939D01*
X137666666Y-51604939D02*
X137285714Y-51604939D01*
X138809523Y-52081130D02*
X138238095Y-52081130D01*
X138523809Y-52081130D02*
X138523809Y-51081130D01*
X138523809Y-51081130D02*
X138428571Y-51223987D01*
X138428571Y-51223987D02*
X138333333Y-51319225D01*
X138333333Y-51319225D02*
X138238095Y-51366844D01*
X139761904Y-52081130D02*
X139190476Y-52081130D01*
X139476190Y-52081130D02*
X139476190Y-51081130D01*
X139476190Y-51081130D02*
X139380952Y-51223987D01*
X139380952Y-51223987D02*
X139285714Y-51319225D01*
X139285714Y-51319225D02*
X139190476Y-51366844D01*
X60920180Y-99833333D02*
X61396371Y-99500000D01*
X60920180Y-99261905D02*
X61920180Y-99261905D01*
X61920180Y-99261905D02*
X61920180Y-99642857D01*
X61920180Y-99642857D02*
X61872561Y-99738095D01*
X61872561Y-99738095D02*
X61824942Y-99785714D01*
X61824942Y-99785714D02*
X61729704Y-99833333D01*
X61729704Y-99833333D02*
X61586847Y-99833333D01*
X61586847Y-99833333D02*
X61491609Y-99785714D01*
X61491609Y-99785714D02*
X61443990Y-99738095D01*
X61443990Y-99738095D02*
X61396371Y-99642857D01*
X61396371Y-99642857D02*
X61396371Y-99261905D01*
X61443990Y-100595238D02*
X61396371Y-100738095D01*
X61396371Y-100738095D02*
X61348752Y-100785714D01*
X61348752Y-100785714D02*
X61253514Y-100833333D01*
X61253514Y-100833333D02*
X61110657Y-100833333D01*
X61110657Y-100833333D02*
X61015419Y-100785714D01*
X61015419Y-100785714D02*
X60967800Y-100738095D01*
X60967800Y-100738095D02*
X60920180Y-100642857D01*
X60920180Y-100642857D02*
X60920180Y-100261905D01*
X60920180Y-100261905D02*
X61920180Y-100261905D01*
X61920180Y-100261905D02*
X61920180Y-100595238D01*
X61920180Y-100595238D02*
X61872561Y-100690476D01*
X61872561Y-100690476D02*
X61824942Y-100738095D01*
X61824942Y-100738095D02*
X61729704Y-100785714D01*
X61729704Y-100785714D02*
X61634466Y-100785714D01*
X61634466Y-100785714D02*
X61539228Y-100738095D01*
X61539228Y-100738095D02*
X61491609Y-100690476D01*
X61491609Y-100690476D02*
X61443990Y-100595238D01*
X61443990Y-100595238D02*
X61443990Y-100261905D01*
X60920180Y-101785714D02*
X60920180Y-101214286D01*
X60920180Y-101500000D02*
X61920180Y-101500000D01*
X61920180Y-101500000D02*
X61777323Y-101404762D01*
X61777323Y-101404762D02*
X61682085Y-101309524D01*
X61682085Y-101309524D02*
X61634466Y-101214286D01*
X124954819Y-46013215D02*
X125764342Y-46013215D01*
X125764342Y-46013215D02*
X125859580Y-45965596D01*
X125859580Y-45965596D02*
X125907200Y-45917977D01*
X125907200Y-45917977D02*
X125954819Y-45822739D01*
X125954819Y-45822739D02*
X125954819Y-45632263D01*
X125954819Y-45632263D02*
X125907200Y-45537025D01*
X125907200Y-45537025D02*
X125859580Y-45489406D01*
X125859580Y-45489406D02*
X125764342Y-45441787D01*
X125764342Y-45441787D02*
X124954819Y-45441787D01*
X125954819Y-44965596D02*
X124954819Y-44965596D01*
X124954819Y-44965596D02*
X124954819Y-44584644D01*
X124954819Y-44584644D02*
X125002438Y-44489406D01*
X125002438Y-44489406D02*
X125050057Y-44441787D01*
X125050057Y-44441787D02*
X125145295Y-44394168D01*
X125145295Y-44394168D02*
X125288152Y-44394168D01*
X125288152Y-44394168D02*
X125383390Y-44441787D01*
X125383390Y-44441787D02*
X125431009Y-44489406D01*
X125431009Y-44489406D02*
X125478628Y-44584644D01*
X125478628Y-44584644D02*
X125478628Y-44965596D01*
X125954819Y-43441787D02*
X125954819Y-44013215D01*
X125954819Y-43727501D02*
X124954819Y-43727501D01*
X124954819Y-43727501D02*
X125097676Y-43822739D01*
X125097676Y-43822739D02*
X125192914Y-43917977D01*
X125192914Y-43917977D02*
X125240533Y-44013215D01*
X75452800Y-85013095D02*
X75405180Y-85155952D01*
X75405180Y-85155952D02*
X75405180Y-85394047D01*
X75405180Y-85394047D02*
X75452800Y-85489285D01*
X75452800Y-85489285D02*
X75500419Y-85536904D01*
X75500419Y-85536904D02*
X75595657Y-85584523D01*
X75595657Y-85584523D02*
X75690895Y-85584523D01*
X75690895Y-85584523D02*
X75786133Y-85536904D01*
X75786133Y-85536904D02*
X75833752Y-85489285D01*
X75833752Y-85489285D02*
X75881371Y-85394047D01*
X75881371Y-85394047D02*
X75928990Y-85203571D01*
X75928990Y-85203571D02*
X75976609Y-85108333D01*
X75976609Y-85108333D02*
X76024228Y-85060714D01*
X76024228Y-85060714D02*
X76119466Y-85013095D01*
X76119466Y-85013095D02*
X76214704Y-85013095D01*
X76214704Y-85013095D02*
X76309942Y-85060714D01*
X76309942Y-85060714D02*
X76357561Y-85108333D01*
X76357561Y-85108333D02*
X76405180Y-85203571D01*
X76405180Y-85203571D02*
X76405180Y-85441666D01*
X76405180Y-85441666D02*
X76357561Y-85584523D01*
X75405180Y-86013095D02*
X76405180Y-86013095D01*
X76405180Y-86013095D02*
X76405180Y-86394047D01*
X76405180Y-86394047D02*
X76357561Y-86489285D01*
X76357561Y-86489285D02*
X76309942Y-86536904D01*
X76309942Y-86536904D02*
X76214704Y-86584523D01*
X76214704Y-86584523D02*
X76071847Y-86584523D01*
X76071847Y-86584523D02*
X75976609Y-86536904D01*
X75976609Y-86536904D02*
X75928990Y-86489285D01*
X75928990Y-86489285D02*
X75881371Y-86394047D01*
X75881371Y-86394047D02*
X75881371Y-86013095D01*
X76309942Y-86965476D02*
X76357561Y-87013095D01*
X76357561Y-87013095D02*
X76405180Y-87108333D01*
X76405180Y-87108333D02*
X76405180Y-87346428D01*
X76405180Y-87346428D02*
X76357561Y-87441666D01*
X76357561Y-87441666D02*
X76309942Y-87489285D01*
X76309942Y-87489285D02*
X76214704Y-87536904D01*
X76214704Y-87536904D02*
X76119466Y-87536904D01*
X76119466Y-87536904D02*
X75976609Y-87489285D01*
X75976609Y-87489285D02*
X75405180Y-86917857D01*
X75405180Y-86917857D02*
X75405180Y-87536904D01*
X125865476Y-92844819D02*
X125865476Y-93559104D01*
X125865476Y-93559104D02*
X125817857Y-93701961D01*
X125817857Y-93701961D02*
X125722619Y-93797200D01*
X125722619Y-93797200D02*
X125579762Y-93844819D01*
X125579762Y-93844819D02*
X125484524Y-93844819D01*
X126294048Y-92940057D02*
X126341667Y-92892438D01*
X126341667Y-92892438D02*
X126436905Y-92844819D01*
X126436905Y-92844819D02*
X126675000Y-92844819D01*
X126675000Y-92844819D02*
X126770238Y-92892438D01*
X126770238Y-92892438D02*
X126817857Y-92940057D01*
X126817857Y-92940057D02*
X126865476Y-93035295D01*
X126865476Y-93035295D02*
X126865476Y-93130533D01*
X126865476Y-93130533D02*
X126817857Y-93273390D01*
X126817857Y-93273390D02*
X126246429Y-93844819D01*
X126246429Y-93844819D02*
X126865476Y-93844819D01*
X127198810Y-92844819D02*
X127817857Y-92844819D01*
X127817857Y-92844819D02*
X127484524Y-93225771D01*
X127484524Y-93225771D02*
X127627381Y-93225771D01*
X127627381Y-93225771D02*
X127722619Y-93273390D01*
X127722619Y-93273390D02*
X127770238Y-93321009D01*
X127770238Y-93321009D02*
X127817857Y-93416247D01*
X127817857Y-93416247D02*
X127817857Y-93654342D01*
X127817857Y-93654342D02*
X127770238Y-93749580D01*
X127770238Y-93749580D02*
X127722619Y-93797200D01*
X127722619Y-93797200D02*
X127627381Y-93844819D01*
X127627381Y-93844819D02*
X127341667Y-93844819D01*
X127341667Y-93844819D02*
X127246429Y-93797200D01*
X127246429Y-93797200D02*
X127198810Y-93749580D01*
X103265476Y-103714819D02*
X103265476Y-104429104D01*
X103265476Y-104429104D02*
X103217857Y-104571961D01*
X103217857Y-104571961D02*
X103122619Y-104667200D01*
X103122619Y-104667200D02*
X102979762Y-104714819D01*
X102979762Y-104714819D02*
X102884524Y-104714819D01*
X104265476Y-104714819D02*
X103694048Y-104714819D01*
X103979762Y-104714819D02*
X103979762Y-103714819D01*
X103979762Y-103714819D02*
X103884524Y-103857676D01*
X103884524Y-103857676D02*
X103789286Y-103952914D01*
X103789286Y-103952914D02*
X103694048Y-104000533D01*
X104646429Y-103810057D02*
X104694048Y-103762438D01*
X104694048Y-103762438D02*
X104789286Y-103714819D01*
X104789286Y-103714819D02*
X105027381Y-103714819D01*
X105027381Y-103714819D02*
X105122619Y-103762438D01*
X105122619Y-103762438D02*
X105170238Y-103810057D01*
X105170238Y-103810057D02*
X105217857Y-103905295D01*
X105217857Y-103905295D02*
X105217857Y-104000533D01*
X105217857Y-104000533D02*
X105170238Y-104143390D01*
X105170238Y-104143390D02*
X104598810Y-104714819D01*
X104598810Y-104714819D02*
X105217857Y-104714819D01*
X30657200Y-48011904D02*
X30704819Y-47869047D01*
X30704819Y-47869047D02*
X30704819Y-47630952D01*
X30704819Y-47630952D02*
X30657200Y-47535714D01*
X30657200Y-47535714D02*
X30609580Y-47488095D01*
X30609580Y-47488095D02*
X30514342Y-47440476D01*
X30514342Y-47440476D02*
X30419104Y-47440476D01*
X30419104Y-47440476D02*
X30323866Y-47488095D01*
X30323866Y-47488095D02*
X30276247Y-47535714D01*
X30276247Y-47535714D02*
X30228628Y-47630952D01*
X30228628Y-47630952D02*
X30181009Y-47821428D01*
X30181009Y-47821428D02*
X30133390Y-47916666D01*
X30133390Y-47916666D02*
X30085771Y-47964285D01*
X30085771Y-47964285D02*
X29990533Y-48011904D01*
X29990533Y-48011904D02*
X29895295Y-48011904D01*
X29895295Y-48011904D02*
X29800057Y-47964285D01*
X29800057Y-47964285D02*
X29752438Y-47916666D01*
X29752438Y-47916666D02*
X29704819Y-47821428D01*
X29704819Y-47821428D02*
X29704819Y-47583333D01*
X29704819Y-47583333D02*
X29752438Y-47440476D01*
X30704819Y-47011904D02*
X29704819Y-47011904D01*
X29704819Y-47011904D02*
X29704819Y-46630952D01*
X29704819Y-46630952D02*
X29752438Y-46535714D01*
X29752438Y-46535714D02*
X29800057Y-46488095D01*
X29800057Y-46488095D02*
X29895295Y-46440476D01*
X29895295Y-46440476D02*
X30038152Y-46440476D01*
X30038152Y-46440476D02*
X30133390Y-46488095D01*
X30133390Y-46488095D02*
X30181009Y-46535714D01*
X30181009Y-46535714D02*
X30228628Y-46630952D01*
X30228628Y-46630952D02*
X30228628Y-47011904D01*
X30704819Y-45488095D02*
X30704819Y-46059523D01*
X30704819Y-45773809D02*
X29704819Y-45773809D01*
X29704819Y-45773809D02*
X29847676Y-45869047D01*
X29847676Y-45869047D02*
X29942914Y-45964285D01*
X29942914Y-45964285D02*
X29990533Y-46059523D01*
X142084819Y-65935834D02*
X142799104Y-65935834D01*
X142799104Y-65935834D02*
X142941961Y-65983453D01*
X142941961Y-65983453D02*
X143037200Y-66078691D01*
X143037200Y-66078691D02*
X143084819Y-66221548D01*
X143084819Y-66221548D02*
X143084819Y-66316786D01*
X143084819Y-64935834D02*
X143084819Y-65507262D01*
X143084819Y-65221548D02*
X142084819Y-65221548D01*
X142084819Y-65221548D02*
X142227676Y-65316786D01*
X142227676Y-65316786D02*
X142322914Y-65412024D01*
X142322914Y-65412024D02*
X142370533Y-65507262D01*
X143084819Y-63983453D02*
X143084819Y-64554881D01*
X143084819Y-64269167D02*
X142084819Y-64269167D01*
X142084819Y-64269167D02*
X142227676Y-64364405D01*
X142227676Y-64364405D02*
X142322914Y-64459643D01*
X142322914Y-64459643D02*
X142370533Y-64554881D01*
X131045180Y-62792978D02*
X132045180Y-62792978D01*
X132045180Y-62792978D02*
X132045180Y-63031073D01*
X132045180Y-63031073D02*
X131997561Y-63173930D01*
X131997561Y-63173930D02*
X131902323Y-63269168D01*
X131902323Y-63269168D02*
X131807085Y-63316787D01*
X131807085Y-63316787D02*
X131616609Y-63364406D01*
X131616609Y-63364406D02*
X131473752Y-63364406D01*
X131473752Y-63364406D02*
X131283276Y-63316787D01*
X131283276Y-63316787D02*
X131188038Y-63269168D01*
X131188038Y-63269168D02*
X131092800Y-63173930D01*
X131092800Y-63173930D02*
X131045180Y-63031073D01*
X131045180Y-63031073D02*
X131045180Y-62792978D01*
X132045180Y-63697740D02*
X131045180Y-63935835D01*
X131045180Y-63935835D02*
X131759466Y-64126311D01*
X131759466Y-64126311D02*
X131045180Y-64316787D01*
X131045180Y-64316787D02*
X132045180Y-64554883D01*
X131045180Y-64935835D02*
X132045180Y-64935835D01*
X132045180Y-64935835D02*
X131045180Y-65507263D01*
X131045180Y-65507263D02*
X132045180Y-65507263D01*
X131045180Y-66507263D02*
X131045180Y-65935835D01*
X131045180Y-66221549D02*
X132045180Y-66221549D01*
X132045180Y-66221549D02*
X131902323Y-66126311D01*
X131902323Y-66126311D02*
X131807085Y-66031073D01*
X131807085Y-66031073D02*
X131759466Y-65935835D01*
X31232143Y-32454819D02*
X31232143Y-31454819D01*
X31232143Y-31454819D02*
X31613095Y-31454819D01*
X31613095Y-31454819D02*
X31708333Y-31502438D01*
X31708333Y-31502438D02*
X31755952Y-31550057D01*
X31755952Y-31550057D02*
X31803571Y-31645295D01*
X31803571Y-31645295D02*
X31803571Y-31788152D01*
X31803571Y-31788152D02*
X31755952Y-31883390D01*
X31755952Y-31883390D02*
X31708333Y-31931009D01*
X31708333Y-31931009D02*
X31613095Y-31978628D01*
X31613095Y-31978628D02*
X31232143Y-31978628D01*
X32708333Y-32454819D02*
X32232143Y-32454819D01*
X32232143Y-32454819D02*
X32232143Y-31454819D01*
X33041667Y-31454819D02*
X33041667Y-32264342D01*
X33041667Y-32264342D02*
X33089286Y-32359580D01*
X33089286Y-32359580D02*
X33136905Y-32407200D01*
X33136905Y-32407200D02*
X33232143Y-32454819D01*
X33232143Y-32454819D02*
X33422619Y-32454819D01*
X33422619Y-32454819D02*
X33517857Y-32407200D01*
X33517857Y-32407200D02*
X33565476Y-32359580D01*
X33565476Y-32359580D02*
X33613095Y-32264342D01*
X33613095Y-32264342D02*
X33613095Y-31454819D01*
X34041667Y-32407200D02*
X34184524Y-32454819D01*
X34184524Y-32454819D02*
X34422619Y-32454819D01*
X34422619Y-32454819D02*
X34517857Y-32407200D01*
X34517857Y-32407200D02*
X34565476Y-32359580D01*
X34565476Y-32359580D02*
X34613095Y-32264342D01*
X34613095Y-32264342D02*
X34613095Y-32169104D01*
X34613095Y-32169104D02*
X34565476Y-32073866D01*
X34565476Y-32073866D02*
X34517857Y-32026247D01*
X34517857Y-32026247D02*
X34422619Y-31978628D01*
X34422619Y-31978628D02*
X34232143Y-31931009D01*
X34232143Y-31931009D02*
X34136905Y-31883390D01*
X34136905Y-31883390D02*
X34089286Y-31835771D01*
X34089286Y-31835771D02*
X34041667Y-31740533D01*
X34041667Y-31740533D02*
X34041667Y-31645295D01*
X34041667Y-31645295D02*
X34089286Y-31550057D01*
X34089286Y-31550057D02*
X34136905Y-31502438D01*
X34136905Y-31502438D02*
X34232143Y-31454819D01*
X34232143Y-31454819D02*
X34470238Y-31454819D01*
X34470238Y-31454819D02*
X34613095Y-31502438D01*
X35565476Y-32454819D02*
X34994048Y-32454819D01*
X35279762Y-32454819D02*
X35279762Y-31454819D01*
X35279762Y-31454819D02*
X35184524Y-31597676D01*
X35184524Y-31597676D02*
X35089286Y-31692914D01*
X35089286Y-31692914D02*
X34994048Y-31740533D01*
X108418331Y-43178499D02*
X108370712Y-43226119D01*
X108370712Y-43226119D02*
X108227855Y-43273738D01*
X108227855Y-43273738D02*
X108132617Y-43273738D01*
X108132617Y-43273738D02*
X107989760Y-43226119D01*
X107989760Y-43226119D02*
X107894522Y-43130880D01*
X107894522Y-43130880D02*
X107846903Y-43035642D01*
X107846903Y-43035642D02*
X107799284Y-42845166D01*
X107799284Y-42845166D02*
X107799284Y-42702309D01*
X107799284Y-42702309D02*
X107846903Y-42511833D01*
X107846903Y-42511833D02*
X107894522Y-42416595D01*
X107894522Y-42416595D02*
X107989760Y-42321357D01*
X107989760Y-42321357D02*
X108132617Y-42273738D01*
X108132617Y-42273738D02*
X108227855Y-42273738D01*
X108227855Y-42273738D02*
X108370712Y-42321357D01*
X108370712Y-42321357D02*
X108418331Y-42368976D01*
X108799284Y-42988023D02*
X109275474Y-42988023D01*
X108704046Y-43273738D02*
X109037379Y-42273738D01*
X109037379Y-42273738D02*
X109370712Y-43273738D01*
X109704046Y-43273738D02*
X109704046Y-42273738D01*
X109704046Y-42273738D02*
X110084998Y-42273738D01*
X110084998Y-42273738D02*
X110180236Y-42321357D01*
X110180236Y-42321357D02*
X110227855Y-42368976D01*
X110227855Y-42368976D02*
X110275474Y-42464214D01*
X110275474Y-42464214D02*
X110275474Y-42607071D01*
X110275474Y-42607071D02*
X110227855Y-42702309D01*
X110227855Y-42702309D02*
X110180236Y-42749928D01*
X110180236Y-42749928D02*
X110084998Y-42797547D01*
X110084998Y-42797547D02*
X109704046Y-42797547D01*
X110656427Y-42368976D02*
X110704046Y-42321357D01*
X110704046Y-42321357D02*
X110799284Y-42273738D01*
X110799284Y-42273738D02*
X111037379Y-42273738D01*
X111037379Y-42273738D02*
X111132617Y-42321357D01*
X111132617Y-42321357D02*
X111180236Y-42368976D01*
X111180236Y-42368976D02*
X111227855Y-42464214D01*
X111227855Y-42464214D02*
X111227855Y-42559452D01*
X111227855Y-42559452D02*
X111180236Y-42702309D01*
X111180236Y-42702309D02*
X110608808Y-43273738D01*
X110608808Y-43273738D02*
X111227855Y-43273738D01*
X112717800Y-84240476D02*
X112670180Y-84383333D01*
X112670180Y-84383333D02*
X112670180Y-84621428D01*
X112670180Y-84621428D02*
X112717800Y-84716666D01*
X112717800Y-84716666D02*
X112765419Y-84764285D01*
X112765419Y-84764285D02*
X112860657Y-84811904D01*
X112860657Y-84811904D02*
X112955895Y-84811904D01*
X112955895Y-84811904D02*
X113051133Y-84764285D01*
X113051133Y-84764285D02*
X113098752Y-84716666D01*
X113098752Y-84716666D02*
X113146371Y-84621428D01*
X113146371Y-84621428D02*
X113193990Y-84430952D01*
X113193990Y-84430952D02*
X113241609Y-84335714D01*
X113241609Y-84335714D02*
X113289228Y-84288095D01*
X113289228Y-84288095D02*
X113384466Y-84240476D01*
X113384466Y-84240476D02*
X113479704Y-84240476D01*
X113479704Y-84240476D02*
X113574942Y-84288095D01*
X113574942Y-84288095D02*
X113622561Y-84335714D01*
X113622561Y-84335714D02*
X113670180Y-84430952D01*
X113670180Y-84430952D02*
X113670180Y-84669047D01*
X113670180Y-84669047D02*
X113622561Y-84811904D01*
X113670180Y-85145238D02*
X112670180Y-85383333D01*
X112670180Y-85383333D02*
X113384466Y-85573809D01*
X113384466Y-85573809D02*
X112670180Y-85764285D01*
X112670180Y-85764285D02*
X113670180Y-86002381D01*
X113574942Y-86335714D02*
X113622561Y-86383333D01*
X113622561Y-86383333D02*
X113670180Y-86478571D01*
X113670180Y-86478571D02*
X113670180Y-86716666D01*
X113670180Y-86716666D02*
X113622561Y-86811904D01*
X113622561Y-86811904D02*
X113574942Y-86859523D01*
X113574942Y-86859523D02*
X113479704Y-86907142D01*
X113479704Y-86907142D02*
X113384466Y-86907142D01*
X113384466Y-86907142D02*
X113241609Y-86859523D01*
X113241609Y-86859523D02*
X112670180Y-86288095D01*
X112670180Y-86288095D02*
X112670180Y-86907142D01*
X113670180Y-87526190D02*
X113670180Y-87621428D01*
X113670180Y-87621428D02*
X113622561Y-87716666D01*
X113622561Y-87716666D02*
X113574942Y-87764285D01*
X113574942Y-87764285D02*
X113479704Y-87811904D01*
X113479704Y-87811904D02*
X113289228Y-87859523D01*
X113289228Y-87859523D02*
X113051133Y-87859523D01*
X113051133Y-87859523D02*
X112860657Y-87811904D01*
X112860657Y-87811904D02*
X112765419Y-87764285D01*
X112765419Y-87764285D02*
X112717800Y-87716666D01*
X112717800Y-87716666D02*
X112670180Y-87621428D01*
X112670180Y-87621428D02*
X112670180Y-87526190D01*
X112670180Y-87526190D02*
X112717800Y-87430952D01*
X112717800Y-87430952D02*
X112765419Y-87383333D01*
X112765419Y-87383333D02*
X112860657Y-87335714D01*
X112860657Y-87335714D02*
X113051133Y-87288095D01*
X113051133Y-87288095D02*
X113289228Y-87288095D01*
X113289228Y-87288095D02*
X113479704Y-87335714D01*
X113479704Y-87335714D02*
X113574942Y-87383333D01*
X113574942Y-87383333D02*
X113622561Y-87430952D01*
X113622561Y-87430952D02*
X113670180Y-87526190D01*
X56177976Y-46207319D02*
X56844642Y-47207319D01*
X56844642Y-46207319D02*
X56177976Y-47207319D01*
X57749404Y-47207319D02*
X57177976Y-47207319D01*
X57463690Y-47207319D02*
X57463690Y-46207319D01*
X57463690Y-46207319D02*
X57368452Y-46350176D01*
X57368452Y-46350176D02*
X57273214Y-46445414D01*
X57273214Y-46445414D02*
X57177976Y-46493033D01*
X81429819Y-100066666D02*
X81429819Y-100542856D01*
X81429819Y-100542856D02*
X80429819Y-100542856D01*
X80906009Y-99399999D02*
X80953628Y-99257142D01*
X80953628Y-99257142D02*
X81001247Y-99209523D01*
X81001247Y-99209523D02*
X81096485Y-99161904D01*
X81096485Y-99161904D02*
X81239342Y-99161904D01*
X81239342Y-99161904D02*
X81334580Y-99209523D01*
X81334580Y-99209523D02*
X81382200Y-99257142D01*
X81382200Y-99257142D02*
X81429819Y-99352380D01*
X81429819Y-99352380D02*
X81429819Y-99733332D01*
X81429819Y-99733332D02*
X80429819Y-99733332D01*
X80429819Y-99733332D02*
X80429819Y-99399999D01*
X80429819Y-99399999D02*
X80477438Y-99304761D01*
X80477438Y-99304761D02*
X80525057Y-99257142D01*
X80525057Y-99257142D02*
X80620295Y-99209523D01*
X80620295Y-99209523D02*
X80715533Y-99209523D01*
X80715533Y-99209523D02*
X80810771Y-99257142D01*
X80810771Y-99257142D02*
X80858390Y-99304761D01*
X80858390Y-99304761D02*
X80906009Y-99399999D01*
X80906009Y-99399999D02*
X80906009Y-99733332D01*
X81429819Y-98209523D02*
X81429819Y-98780951D01*
X81429819Y-98495237D02*
X80429819Y-98495237D01*
X80429819Y-98495237D02*
X80572676Y-98590475D01*
X80572676Y-98590475D02*
X80667914Y-98685713D01*
X80667914Y-98685713D02*
X80715533Y-98780951D01*
X106029819Y-100491666D02*
X105029819Y-100491666D01*
X105029819Y-100491666D02*
X105029819Y-100110714D01*
X105029819Y-100110714D02*
X105077438Y-100015476D01*
X105077438Y-100015476D02*
X105125057Y-99967857D01*
X105125057Y-99967857D02*
X105220295Y-99920238D01*
X105220295Y-99920238D02*
X105363152Y-99920238D01*
X105363152Y-99920238D02*
X105458390Y-99967857D01*
X105458390Y-99967857D02*
X105506009Y-100015476D01*
X105506009Y-100015476D02*
X105553628Y-100110714D01*
X105553628Y-100110714D02*
X105553628Y-100491666D01*
X105744104Y-99539285D02*
X105744104Y-99063095D01*
X106029819Y-99634523D02*
X105029819Y-99301190D01*
X105029819Y-99301190D02*
X106029819Y-98967857D01*
X106029819Y-98634523D02*
X105029819Y-98634523D01*
X105029819Y-98634523D02*
X105029819Y-98396428D01*
X105029819Y-98396428D02*
X105077438Y-98253571D01*
X105077438Y-98253571D02*
X105172676Y-98158333D01*
X105172676Y-98158333D02*
X105267914Y-98110714D01*
X105267914Y-98110714D02*
X105458390Y-98063095D01*
X105458390Y-98063095D02*
X105601247Y-98063095D01*
X105601247Y-98063095D02*
X105791723Y-98110714D01*
X105791723Y-98110714D02*
X105886961Y-98158333D01*
X105886961Y-98158333D02*
X105982200Y-98253571D01*
X105982200Y-98253571D02*
X106029819Y-98396428D01*
X106029819Y-98396428D02*
X106029819Y-98634523D01*
X106029819Y-97110714D02*
X106029819Y-97682142D01*
X106029819Y-97396428D02*
X105029819Y-97396428D01*
X105029819Y-97396428D02*
X105172676Y-97491666D01*
X105172676Y-97491666D02*
X105267914Y-97586904D01*
X105267914Y-97586904D02*
X105315533Y-97682142D01*
X118333333Y-58081130D02*
X117857143Y-58081130D01*
X117857143Y-58081130D02*
X117857143Y-57081130D01*
X119190476Y-58081130D02*
X118619048Y-58081130D01*
X118904762Y-58081130D02*
X118904762Y-57081130D01*
X118904762Y-57081130D02*
X118809524Y-57223987D01*
X118809524Y-57223987D02*
X118714286Y-57319225D01*
X118714286Y-57319225D02*
X118619048Y-57366844D01*
X116640476Y-80084819D02*
X116640476Y-80799104D01*
X116640476Y-80799104D02*
X116592857Y-80941961D01*
X116592857Y-80941961D02*
X116497619Y-81037200D01*
X116497619Y-81037200D02*
X116354762Y-81084819D01*
X116354762Y-81084819D02*
X116259524Y-81084819D01*
X117069048Y-80180057D02*
X117116667Y-80132438D01*
X117116667Y-80132438D02*
X117211905Y-80084819D01*
X117211905Y-80084819D02*
X117450000Y-80084819D01*
X117450000Y-80084819D02*
X117545238Y-80132438D01*
X117545238Y-80132438D02*
X117592857Y-80180057D01*
X117592857Y-80180057D02*
X117640476Y-80275295D01*
X117640476Y-80275295D02*
X117640476Y-80370533D01*
X117640476Y-80370533D02*
X117592857Y-80513390D01*
X117592857Y-80513390D02*
X117021429Y-81084819D01*
X117021429Y-81084819D02*
X117640476Y-81084819D01*
X118545238Y-80084819D02*
X118069048Y-80084819D01*
X118069048Y-80084819D02*
X118021429Y-80561009D01*
X118021429Y-80561009D02*
X118069048Y-80513390D01*
X118069048Y-80513390D02*
X118164286Y-80465771D01*
X118164286Y-80465771D02*
X118402381Y-80465771D01*
X118402381Y-80465771D02*
X118497619Y-80513390D01*
X118497619Y-80513390D02*
X118545238Y-80561009D01*
X118545238Y-80561009D02*
X118592857Y-80656247D01*
X118592857Y-80656247D02*
X118592857Y-80894342D01*
X118592857Y-80894342D02*
X118545238Y-80989580D01*
X118545238Y-80989580D02*
X118497619Y-81037200D01*
X118497619Y-81037200D02*
X118402381Y-81084819D01*
X118402381Y-81084819D02*
X118164286Y-81084819D01*
X118164286Y-81084819D02*
X118069048Y-81037200D01*
X118069048Y-81037200D02*
X118021429Y-80989580D01*
D11*
%TO.C,J32*%
X101545000Y-84405000D02*
X101545000Y-89545000D01*
X101545000Y-84405000D02*
X104205000Y-84405000D01*
X101545000Y-89545000D02*
X104205000Y-89545000D01*
X102875000Y-81805000D02*
X104205000Y-81805000D01*
X104205000Y-81805000D02*
X104205000Y-83135000D01*
X104205000Y-84405000D02*
X104205000Y-89545000D01*
%TO.C,R3*%
X78990000Y-103002064D02*
X78990000Y-102547936D01*
X80460000Y-103002064D02*
X80460000Y-102547936D01*
%TO.C,R7*%
X122265000Y-51853375D02*
X122265000Y-51399247D01*
X123735000Y-51853375D02*
X123735000Y-51399247D01*
%TO.C,A1*%
X67490000Y-53055000D02*
X67490000Y-59455000D01*
X67490000Y-59455000D02*
X68690000Y-59455000D01*
X68690000Y-53055000D02*
X67490000Y-53055000D01*
X70290000Y-59455000D02*
X71490000Y-59455000D01*
X71490000Y-53055000D02*
X70290000Y-53055000D01*
X71490000Y-59455000D02*
X71490000Y-53055000D01*
%TO.C,J24*%
X66295000Y-101895000D02*
X66295000Y-96755000D01*
X66295000Y-104495000D02*
X66295000Y-103165000D01*
X67625000Y-104495000D02*
X66295000Y-104495000D01*
X68955000Y-96755000D02*
X66295000Y-96755000D01*
X68955000Y-101895000D02*
X66295000Y-101895000D01*
X68955000Y-101895000D02*
X68955000Y-96755000D01*
%TO.C,Y1*%
X67490000Y-28050000D02*
X67490000Y-34450000D01*
X67490000Y-34450000D02*
X68690000Y-34450000D01*
X68690000Y-28050000D02*
X67490000Y-28050000D01*
X70290000Y-34450000D02*
X71490000Y-34450000D01*
X71490000Y-28050000D02*
X70290000Y-28050000D01*
X71490000Y-34450000D02*
X71490000Y-28050000D01*
%TO.C,LT1*%
X139350000Y-84105000D02*
X139350000Y-87705000D01*
X139361522Y-84066522D02*
G75*
G02*
X143800001Y-85905000I1838478J-1838478D01*
G01*
X143800000Y-85905000D02*
G75*
G02*
X139361522Y-87743478I-2600000J0D01*
G01*
%TO.C,B1*%
X78792500Y-41752500D02*
X78792500Y-42952500D01*
X78792500Y-44552500D02*
X78792500Y-45752500D01*
X78792500Y-45752500D02*
X85192500Y-45752500D01*
X85192500Y-41752500D02*
X78792500Y-41752500D01*
X85192500Y-42952500D02*
X85192500Y-41752500D01*
X85192500Y-45752500D02*
X85192500Y-44552500D01*
%TO.C,SW19*%
X129925000Y-95375000D02*
X129925000Y-101775000D01*
X129925000Y-101775000D02*
X131125000Y-101775000D01*
X131125000Y-95375000D02*
X129925000Y-95375000D01*
X132725000Y-101775000D02*
X133925000Y-101775000D01*
X133925000Y-95375000D02*
X132725000Y-95375000D01*
X133925000Y-101775000D02*
X133925000Y-95375000D01*
%TO.C,J27*%
X73370000Y-101030000D02*
X73370000Y-95890000D01*
X73370000Y-103630000D02*
X73370000Y-102300000D01*
X74700000Y-103630000D02*
X73370000Y-103630000D01*
X76030000Y-95890000D02*
X73370000Y-95890000D01*
X76030000Y-101030000D02*
X73370000Y-101030000D01*
X76030000Y-101030000D02*
X76030000Y-95890000D01*
%TO.C,R10*%
X61890000Y-97647936D02*
X61890000Y-98102064D01*
X63360000Y-97647936D02*
X63360000Y-98102064D01*
%TO.C,R23*%
X56122936Y-70665000D02*
X56577064Y-70665000D01*
X56122936Y-72135000D02*
X56577064Y-72135000D01*
%TO.C,MINUS1*%
X57910000Y-84275000D02*
X57910000Y-85475000D01*
X57910000Y-87075000D02*
X57910000Y-88275000D01*
X57910000Y-88275000D02*
X64310000Y-88275000D01*
X64310000Y-84275000D02*
X57910000Y-84275000D01*
X64310000Y-85475000D02*
X64310000Y-84275000D01*
X64310000Y-88275000D02*
X64310000Y-87075000D01*
%TO.C,J26*%
X131895000Y-84420000D02*
X131895000Y-89560000D01*
X131895000Y-84420000D02*
X134555000Y-84420000D01*
X131895000Y-89560000D02*
X134555000Y-89560000D01*
X133225000Y-81820000D02*
X134555000Y-81820000D01*
X134555000Y-81820000D02*
X134555000Y-83150000D01*
X134555000Y-84420000D02*
X134555000Y-89560000D01*
%TO.C,PAD2*%
X87275000Y-83050000D02*
X87275000Y-89450000D01*
X87275000Y-89450000D02*
X88475000Y-89450000D01*
X88475000Y-83050000D02*
X87275000Y-83050000D01*
X90075000Y-89450000D02*
X91275000Y-89450000D01*
X91275000Y-83050000D02*
X90075000Y-83050000D01*
X91275000Y-89450000D02*
X91275000Y-83050000D01*
%TO.C,RT1*%
X123325000Y-84355000D02*
X123325000Y-87955000D01*
X123336522Y-84316522D02*
G75*
G02*
X127775001Y-86155000I1838478J-1838478D01*
G01*
X127775000Y-86155000D02*
G75*
G02*
X123336522Y-87993478I-2600000J0D01*
G01*
%TO.C,R24*%
X102990000Y-70452064D02*
X102990000Y-69997936D01*
X104460000Y-70452064D02*
X104460000Y-69997936D01*
%TO.C,R25*%
X104815000Y-74572936D02*
X104815000Y-75027064D01*
X106285000Y-74572936D02*
X106285000Y-75027064D01*
%TO.C,R6*%
X124477064Y-47891311D02*
X124022936Y-47891311D01*
X124477064Y-49361311D02*
X124022936Y-49361311D01*
%TO.C,R21*%
X133022936Y-59891311D02*
X133477064Y-59891311D01*
X133022936Y-61361311D02*
X133477064Y-61361311D01*
%TO.C,R16*%
X135765000Y-58486747D02*
X135765000Y-58940875D01*
X137235000Y-58486747D02*
X137235000Y-58940875D01*
%TO.C,R26*%
X56702064Y-68340000D02*
X56247936Y-68340000D01*
X56702064Y-69810000D02*
X56247936Y-69810000D01*
%TO.C,J33*%
X80695000Y-85395000D02*
X80695000Y-90535000D01*
X80695000Y-85395000D02*
X83355000Y-85395000D01*
X80695000Y-90535000D02*
X83355000Y-90535000D01*
X82025000Y-82795000D02*
X83355000Y-82795000D01*
X83355000Y-82795000D02*
X83355000Y-84125000D01*
X83355000Y-85395000D02*
X83355000Y-90535000D01*
%TO.C,R11*%
X135300000Y-52626311D02*
X135300000Y-53826311D01*
X135300000Y-55426311D02*
X135300000Y-56626311D01*
X135300000Y-56626311D02*
X141700000Y-56626311D01*
X141700000Y-52626311D02*
X135300000Y-52626311D01*
X141700000Y-53826311D02*
X141700000Y-52626311D01*
X141700000Y-56626311D02*
X141700000Y-55426311D01*
%TO.C,RB1*%
X56375000Y-97300000D02*
X56375000Y-103700000D01*
X56375000Y-103700000D02*
X57575000Y-103700000D01*
X57575000Y-97300000D02*
X56375000Y-97300000D01*
X59175000Y-103700000D02*
X60375000Y-103700000D01*
X60375000Y-97300000D02*
X59175000Y-97300000D01*
X60375000Y-103700000D02*
X60375000Y-97300000D01*
%TO.C,UP1*%
X126500000Y-41551311D02*
X126500000Y-47951311D01*
X126500000Y-47951311D02*
X127700000Y-47951311D01*
X127700000Y-41551311D02*
X126500000Y-41551311D01*
X129300000Y-47951311D02*
X130500000Y-47951311D01*
X130500000Y-41551311D02*
X129300000Y-41551311D01*
X130500000Y-47951311D02*
X130500000Y-41551311D01*
%TO.C,R15*%
X84790000Y-82782936D02*
X84790000Y-83237064D01*
X86260000Y-82782936D02*
X86260000Y-83237064D01*
%TO.C,SP2*%
X70860000Y-83075000D02*
X70860000Y-89475000D01*
X70860000Y-89475000D02*
X72060000Y-89475000D01*
X72060000Y-83075000D02*
X70860000Y-83075000D01*
X73660000Y-89475000D02*
X74860000Y-89475000D01*
X74860000Y-83075000D02*
X73660000Y-83075000D01*
X74860000Y-89475000D02*
X74860000Y-83075000D01*
%TO.C,R9*%
X66625000Y-86047936D02*
X66625000Y-86502064D01*
X68095000Y-86047936D02*
X68095000Y-86502064D01*
%TO.C,J23*%
X125345000Y-97430000D02*
X125345000Y-102570000D01*
X125345000Y-97430000D02*
X128005000Y-97430000D01*
X125345000Y-102570000D02*
X128005000Y-102570000D01*
X126675000Y-94830000D02*
X128005000Y-94830000D01*
X128005000Y-94830000D02*
X128005000Y-96160000D01*
X128005000Y-97430000D02*
X128005000Y-102570000D01*
%TO.C,J12*%
X102745000Y-100220000D02*
X102745000Y-95080000D01*
X102745000Y-102820000D02*
X102745000Y-101490000D01*
X104075000Y-102820000D02*
X102745000Y-102820000D01*
X105405000Y-95080000D02*
X102745000Y-95080000D01*
X105405000Y-100220000D02*
X102745000Y-100220000D01*
X105405000Y-100220000D02*
X105405000Y-95080000D01*
%TO.C,SP1*%
X31250000Y-43550000D02*
X31250000Y-49950000D01*
X31250000Y-49950000D02*
X32450000Y-49950000D01*
X32450000Y-43550000D02*
X31250000Y-43550000D01*
X34050000Y-49950000D02*
X35250000Y-49950000D01*
X35250000Y-43550000D02*
X34050000Y-43550000D01*
X35250000Y-49950000D02*
X35250000Y-43550000D01*
%TO.C,J11*%
X133790000Y-63746311D02*
X133790000Y-66506311D01*
X138980000Y-63746311D02*
X133790000Y-63746311D01*
X138980000Y-63746311D02*
X138980000Y-66506311D01*
X138980000Y-66506311D02*
X133790000Y-66506311D01*
X140250000Y-63746311D02*
X141630000Y-63746311D01*
X141630000Y-63746311D02*
X141630000Y-65126311D01*
%TO.C,R1*%
X106115000Y-82822936D02*
X106115000Y-83277064D01*
X107585000Y-82822936D02*
X107585000Y-83277064D01*
%TO.C,DWN1*%
X126500000Y-61426311D02*
X126500000Y-67826311D01*
X126500000Y-67826311D02*
X127700000Y-67826311D01*
X127700000Y-61426311D02*
X126500000Y-61426311D01*
X129300000Y-67826311D02*
X130500000Y-67826311D01*
X130500000Y-61426311D02*
X129300000Y-61426311D01*
X130500000Y-67826311D02*
X130500000Y-61426311D01*
%TO.C,PLUS1*%
X30175000Y-33000000D02*
X30175000Y-34200000D01*
X30175000Y-35800000D02*
X30175000Y-37000000D01*
X30175000Y-37000000D02*
X36575000Y-37000000D01*
X36575000Y-33000000D02*
X30175000Y-33000000D01*
X36575000Y-34200000D02*
X36575000Y-33000000D01*
X36575000Y-37000000D02*
X36575000Y-35800000D01*
%TO.C,CAP2*%
X106880000Y-39321311D02*
X106880000Y-41981311D01*
X109480000Y-39321311D02*
X106880000Y-39321311D01*
X109480000Y-39321311D02*
X109480000Y-41981311D01*
X109480000Y-41981311D02*
X106880000Y-41981311D01*
X112080000Y-40651311D02*
X112080000Y-41981311D01*
X112080000Y-41981311D02*
X110750000Y-41981311D01*
%TO.C,SW20*%
X108125000Y-82850000D02*
X108125000Y-89250000D01*
X108125000Y-89250000D02*
X109325000Y-89250000D01*
X109325000Y-82850000D02*
X108125000Y-82850000D01*
X110925000Y-89250000D02*
X112125000Y-89250000D01*
X112125000Y-82850000D02*
X110925000Y-82850000D01*
X112125000Y-89250000D02*
X112125000Y-82850000D01*
%TO.C,R27*%
X107465000Y-75027064D02*
X107465000Y-74572936D01*
X108935000Y-75027064D02*
X108935000Y-74572936D01*
%TO.C,X1*%
X53787500Y-41752500D02*
X53787500Y-42952500D01*
X53787500Y-44552500D02*
X53787500Y-45752500D01*
X53787500Y-45752500D02*
X60187500Y-45752500D01*
X60187500Y-41752500D02*
X53787500Y-41752500D01*
X60187500Y-42952500D02*
X60187500Y-41752500D01*
X60187500Y-45752500D02*
X60187500Y-44552500D01*
%TO.C,LB1*%
X81975000Y-96200000D02*
X81975000Y-102600000D01*
X81975000Y-102600000D02*
X83175000Y-102600000D01*
X83175000Y-96200000D02*
X81975000Y-96200000D01*
X84775000Y-102600000D02*
X85975000Y-102600000D01*
X85975000Y-96200000D02*
X84775000Y-96200000D01*
X85975000Y-102600000D02*
X85975000Y-96200000D01*
%TO.C,R12*%
X52172936Y-67215000D02*
X52627064Y-67215000D01*
X52172936Y-68685000D02*
X52627064Y-68685000D01*
%TO.C,PAD1*%
X106575000Y-95625000D02*
X106575000Y-102025000D01*
X106575000Y-102025000D02*
X107775000Y-102025000D01*
X107775000Y-95625000D02*
X106575000Y-95625000D01*
X109375000Y-102025000D02*
X110575000Y-102025000D01*
X110575000Y-95625000D02*
X109375000Y-95625000D01*
X110575000Y-102025000D02*
X110575000Y-95625000D01*
%TO.C,R13*%
X139772936Y-68891311D02*
X140227064Y-68891311D01*
X139772936Y-70361311D02*
X140227064Y-70361311D01*
%TO.C,L1*%
X115300000Y-52626311D02*
X115300000Y-53826311D01*
X115300000Y-55426311D02*
X115300000Y-56626311D01*
X115300000Y-56626311D02*
X121700000Y-56626311D01*
X121700000Y-52626311D02*
X115300000Y-52626311D01*
X121700000Y-53826311D02*
X121700000Y-52626311D01*
X121700000Y-56626311D02*
X121700000Y-55426311D01*
%TO.C,J25*%
X116120000Y-84670000D02*
X116120000Y-89810000D01*
X116120000Y-84670000D02*
X118780000Y-84670000D01*
X116120000Y-89810000D02*
X118780000Y-89810000D01*
X117450000Y-82070000D02*
X118780000Y-82070000D01*
X118780000Y-82070000D02*
X118780000Y-83400000D01*
X118780000Y-84670000D02*
X118780000Y-89810000D01*
%TO.C,R22*%
X55995000Y-89567936D02*
X55995000Y-90022064D01*
X57465000Y-89567936D02*
X57465000Y-90022064D01*
%TD*%
M02*
