%TF.GenerationSoftware,KiCad,Pcbnew,9.0.4*%
%TF.CreationDate,2026-02-03T11:39:09-05:00*%
%TF.ProjectId,contProto,636f6e74-5072-46f7-946f-2e6b69636164,rev?*%
%TF.SameCoordinates,Original*%
%TF.FileFunction,Soldermask,Bot*%
%TF.FilePolarity,Negative*%
%FSLAX46Y46*%
G04 Gerber Fmt 4.6, Leading zero omitted, Abs format (unit mm)*
G04 Created by KiCad (PCBNEW 9.0.4) date 2026-02-03 11:39:09*
%MOMM*%
%LPD*%
G01*
G04 APERTURE LIST*
G04 Aperture macros list*
%AMRoundRect*
0 Rectangle with rounded corners*
0 $1 Rounding radius*
0 $2 $3 $4 $5 $6 $7 $8 $9 X,Y pos of 4 corners*
0 Add a 4 corners polygon primitive as box body*
4,1,4,$2,$3,$4,$5,$6,$7,$8,$9,$2,$3,0*
0 Add four circle primitives for the rounded corners*
1,1,$1+$1,$2,$3*
1,1,$1+$1,$4,$5*
1,1,$1+$1,$6,$7*
1,1,$1+$1,$8,$9*
0 Add four rect primitives between the rounded corners*
20,1,$1+$1,$2,$3,$4,$5,0*
20,1,$1+$1,$4,$5,$6,$7,0*
20,1,$1+$1,$6,$7,$8,$9,0*
20,1,$1+$1,$8,$9,$2,$3,0*%
%AMRotRect*
0 Rectangle, with rotation*
0 The origin of the aperture is its center*
0 $1 length*
0 $2 width*
0 $3 Rotation angle, in degrees counterclockwise*
0 Add horizontal line*
21,1,$1,$2,0,0,$3*%
%AMFreePoly0*
4,1,7,1.050000,-0.975000,-1.050000,-0.975000,-1.050000,0.625000,-0.250000,0.625000,-0.250000,0.975000,1.050000,0.975000,1.050000,-0.975000,1.050000,-0.975000,$1*%
%AMFreePoly1*
4,1,7,0.250000,0.625000,1.050000,0.625000,1.050000,-0.975000,-1.050000,-0.975000,-1.050000,0.975000,0.250000,0.975000,0.250000,0.625000,0.250000,0.625000,$1*%
G04 Aperture macros list end*
%ADD10R,1.700000X1.700000*%
%ADD11C,1.700000*%
%ADD12C,5.000000*%
%ADD13C,0.500000*%
%ADD14R,1.500000X1.050000*%
%ADD15O,1.500000X1.050000*%
%ADD16RoundRect,0.075000X-0.075000X-0.475000X0.075000X-0.475000X0.075000X0.475000X-0.075000X0.475000X0*%
%ADD17FreePoly0,0.000000*%
%ADD18FreePoly1,0.000000*%
%ADD19RoundRect,0.250000X0.262500X0.450000X-0.262500X0.450000X-0.262500X-0.450000X0.262500X-0.450000X0*%
%ADD20RoundRect,0.635000X0.449020X-0.449006X-0.449006X0.449020X-0.449020X0.449006X0.449006X-0.449020X0*%
%ADD21RoundRect,0.250000X-0.450000X0.262500X-0.450000X-0.262500X0.450000X-0.262500X0.450000X0.262500X0*%
%ADD22RoundRect,0.250000X0.450000X-0.262500X0.450000X0.262500X-0.450000X0.262500X-0.450000X-0.262500X0*%
%ADD23RotRect,1.700000X1.700000X135.000000*%
%ADD24RoundRect,0.250000X-0.262500X-0.450000X0.262500X-0.450000X0.262500X0.450000X-0.262500X0.450000X0*%
%ADD25RoundRect,0.150000X-0.601041X-0.388909X-0.388909X-0.601041X0.601041X0.388909X0.388909X0.601041X0*%
%ADD26RoundRect,0.250000X-0.989949X-0.636396X-0.636396X-0.989949X0.989949X0.636396X0.636396X0.989949X0*%
%ADD27RotRect,1.700000X1.700000X225.000000*%
%ADD28RotRect,1.700000X1.700000X45.000000*%
%ADD29RoundRect,0.150000X0.601041X0.388909X0.388909X0.601041X-0.601041X-0.388909X-0.388909X-0.601041X0*%
%ADD30RoundRect,0.250000X0.989949X0.636396X0.636396X0.989949X-0.989949X-0.636396X-0.636396X-0.989949X0*%
%ADD31RoundRect,0.075000X0.075000X0.475000X-0.075000X0.475000X-0.075000X-0.475000X0.075000X-0.475000X0*%
%ADD32FreePoly0,180.000000*%
%ADD33FreePoly1,180.000000*%
%ADD34RoundRect,0.635000X-0.449006X-0.449020X0.449020X0.449006X0.449006X0.449020X-0.449020X-0.449006X0*%
%ADD35RoundRect,0.075000X-0.475000X0.075000X-0.475000X-0.075000X0.475000X-0.075000X0.475000X0.075000X0*%
%ADD36FreePoly0,270.000000*%
%ADD37FreePoly1,270.000000*%
%ADD38R,1.250000X1.000000*%
%ADD39RoundRect,0.075000X0.475000X-0.075000X0.475000X0.075000X-0.475000X0.075000X-0.475000X-0.075000X0*%
%ADD40FreePoly0,90.000000*%
%ADD41FreePoly1,90.000000*%
%ADD42RoundRect,0.075000X0.388909X0.282843X0.282843X0.388909X-0.388909X-0.282843X-0.282843X-0.388909X0*%
%ADD43FreePoly0,135.000000*%
%ADD44FreePoly1,135.000000*%
G04 APERTURE END LIST*
D10*
%TO.C,J32*%
X102875000Y-83135000D03*
D11*
X102875000Y-85675000D03*
X102875000Y-88215000D03*
%TD*%
D12*
%TO.C,REF\u002A\u002A*%
X140763570Y-74626311D03*
%TD*%
D13*
%TO.C,REF\u002A\u002A*%
X90480000Y-54950000D03*
X93020000Y-54950000D03*
X90480000Y-54100000D03*
X93020000Y-54100000D03*
X90480000Y-52400000D03*
X93020000Y-52400000D03*
X90480000Y-51550000D03*
X93020000Y-51550000D03*
%TD*%
%TO.C,REF\u002A\u002A*%
X87475000Y-94045000D03*
X87475000Y-91505000D03*
X86625000Y-94045000D03*
X86625000Y-91505000D03*
X84925000Y-94045000D03*
X84925000Y-91505000D03*
X84075000Y-94045000D03*
X84075000Y-91505000D03*
%TD*%
D12*
%TO.C,REF\u002A\u002A*%
X101000000Y-52876311D03*
%TD*%
D13*
%TO.C,REF\u002A\u002A*%
X69930000Y-100850000D03*
X72470000Y-100850000D03*
X69930000Y-100000000D03*
X72470000Y-100000000D03*
X69930000Y-98300000D03*
X72470000Y-98300000D03*
X69930000Y-97450000D03*
X72470000Y-97450000D03*
%TD*%
D10*
%TO.C,J24*%
X67625000Y-103165000D03*
D11*
X67625000Y-100625000D03*
X67625000Y-98085000D03*
%TD*%
D14*
%TO.C,LT1*%
X141200000Y-84635000D03*
D15*
X141200000Y-85905000D03*
X141200000Y-87175000D03*
%TD*%
D13*
%TO.C,REF\u002A\u002A*%
X109050000Y-80920000D03*
X109050000Y-78380000D03*
X108200000Y-80920000D03*
X108200000Y-78380000D03*
X106500000Y-80920000D03*
X106500000Y-78380000D03*
X105650000Y-80920000D03*
X105650000Y-78380000D03*
%TD*%
%TO.C,REF\u002A\u002A*%
X128405000Y-87375000D03*
X130945000Y-87375000D03*
X128405000Y-86525000D03*
X130945000Y-86525000D03*
X128405000Y-84825000D03*
X130945000Y-84825000D03*
X128405000Y-83975000D03*
X130945000Y-83975000D03*
%TD*%
%TO.C,REF\u002A\u002A*%
X65925000Y-108690000D03*
X65925000Y-106150000D03*
X65075000Y-108690000D03*
X65075000Y-106150000D03*
X63375000Y-108690000D03*
X63375000Y-106150000D03*
X62525000Y-108690000D03*
X62525000Y-106150000D03*
%TD*%
D12*
%TO.C,REF\u002A\u002A*%
X32500000Y-27500000D03*
%TD*%
D13*
%TO.C,REF\u002A\u002A*%
X54175000Y-94795000D03*
X54175000Y-92255000D03*
X53325000Y-94795000D03*
X53325000Y-92255000D03*
X51625000Y-94795000D03*
X51625000Y-92255000D03*
X50775000Y-94795000D03*
X50775000Y-92255000D03*
%TD*%
D10*
%TO.C,J27*%
X74700000Y-102300000D03*
D11*
X74700000Y-99760000D03*
X74700000Y-97220000D03*
%TD*%
D12*
%TO.C,REF\u002A\u002A*%
X140750000Y-49126311D03*
%TD*%
D13*
%TO.C,REF\u002A\u002A*%
X66175000Y-94790000D03*
X66175000Y-92250000D03*
X65325000Y-94790000D03*
X65325000Y-92250000D03*
X63625000Y-94790000D03*
X63625000Y-92250000D03*
X62775000Y-94790000D03*
X62775000Y-92250000D03*
%TD*%
D10*
%TO.C,J26*%
X133225000Y-83150000D03*
D11*
X133225000Y-85690000D03*
X133225000Y-88230000D03*
%TD*%
D13*
%TO.C,REF\u002A\u002A*%
X138925000Y-92945000D03*
X138925000Y-90405000D03*
X138075000Y-92945000D03*
X138075000Y-90405000D03*
X136375000Y-92945000D03*
X136375000Y-90405000D03*
X135525000Y-92945000D03*
X135525000Y-90405000D03*
%TD*%
%TO.C,REF\u002A\u002A*%
X124075000Y-80920000D03*
X124075000Y-78380000D03*
X123225000Y-80920000D03*
X123225000Y-78380000D03*
X121525000Y-80920000D03*
X121525000Y-78380000D03*
X120675000Y-80920000D03*
X120675000Y-78380000D03*
%TD*%
D12*
%TO.C,REF\u002A\u002A*%
X82500000Y-27500000D03*
%TD*%
D14*
%TO.C,RT1*%
X125175000Y-84885000D03*
D15*
X125175000Y-86155000D03*
X125175000Y-87425000D03*
%TD*%
D13*
%TO.C,REF\u002A\u002A*%
X121880000Y-100725000D03*
X124420000Y-100725000D03*
X121880000Y-99875000D03*
X124420000Y-99875000D03*
X121880000Y-98175000D03*
X124420000Y-98175000D03*
X121880000Y-97325000D03*
X124420000Y-97325000D03*
%TD*%
%TO.C,REF\u002A\u002A*%
X51675000Y-108695000D03*
X51675000Y-106155000D03*
X50825000Y-108695000D03*
X50825000Y-106155000D03*
X49125000Y-108695000D03*
X49125000Y-106155000D03*
X48275000Y-108695000D03*
X48275000Y-106155000D03*
%TD*%
D10*
%TO.C,J33*%
X82025000Y-84125000D03*
D11*
X82025000Y-86665000D03*
X82025000Y-89205000D03*
%TD*%
D13*
%TO.C,REF\u002A\u002A*%
X108500000Y-106520000D03*
X108500000Y-103980000D03*
X107650000Y-106520000D03*
X107650000Y-103980000D03*
X105950000Y-106520000D03*
X105950000Y-103980000D03*
X105100000Y-106520000D03*
X105100000Y-103980000D03*
%TD*%
%TO.C,REF\u002A\u002A*%
X90460000Y-35950000D03*
X93000000Y-35950000D03*
X90460000Y-35100000D03*
X93000000Y-35100000D03*
X90460000Y-33400000D03*
X93000000Y-33400000D03*
X90460000Y-32550000D03*
X93000000Y-32550000D03*
%TD*%
%TO.C,REF\u002A\u002A*%
X130700000Y-106770000D03*
X130700000Y-104230000D03*
X129850000Y-106770000D03*
X129850000Y-104230000D03*
X128150000Y-106770000D03*
X128150000Y-104230000D03*
X127300000Y-106770000D03*
X127300000Y-104230000D03*
%TD*%
%TO.C,REF\u002A\u002A*%
X76980000Y-87375000D03*
X79520000Y-87375000D03*
X76980000Y-86525000D03*
X79520000Y-86525000D03*
X76980000Y-84825000D03*
X79520000Y-84825000D03*
X76980000Y-83975000D03*
X79520000Y-83975000D03*
%TD*%
%TO.C,REF\u002A\u002A*%
X69450000Y-80770000D03*
X69450000Y-78230000D03*
X68600000Y-80770000D03*
X68600000Y-78230000D03*
X66900000Y-80770000D03*
X66900000Y-78230000D03*
X66050000Y-80770000D03*
X66050000Y-78230000D03*
%TD*%
%TO.C,REF\u002A\u002A*%
X78875000Y-107820000D03*
X78875000Y-105280000D03*
X78025000Y-107820000D03*
X78025000Y-105280000D03*
X76325000Y-107820000D03*
X76325000Y-105280000D03*
X75475000Y-107820000D03*
X75475000Y-105280000D03*
%TD*%
D10*
%TO.C,J23*%
X126675000Y-96160000D03*
D11*
X126675000Y-98700000D03*
X126675000Y-101240000D03*
%TD*%
D10*
%TO.C,J12*%
X104075000Y-101490000D03*
D11*
X104075000Y-98950000D03*
X104075000Y-96410000D03*
%TD*%
D13*
%TO.C,REF\u002A\u002A*%
X53200000Y-80770000D03*
X53200000Y-78230000D03*
X52350000Y-80770000D03*
X52350000Y-78230000D03*
X50650000Y-80770000D03*
X50650000Y-78230000D03*
X49800000Y-80770000D03*
X49800000Y-78230000D03*
%TD*%
D10*
%TO.C,J11*%
X140250000Y-65126311D03*
D11*
X137710000Y-65126311D03*
X135170000Y-65126311D03*
%TD*%
D13*
%TO.C,REF\u002A\u002A*%
X92550000Y-107820000D03*
X92550000Y-105280000D03*
X91700000Y-107820000D03*
X91700000Y-105280000D03*
X90000000Y-107820000D03*
X90000000Y-105280000D03*
X89150000Y-107820000D03*
X89150000Y-105280000D03*
%TD*%
%TO.C,REF\u002A\u002A*%
X115170000Y-83825000D03*
X112630000Y-83825000D03*
X115170000Y-84675000D03*
X112630000Y-84675000D03*
X115170000Y-86375000D03*
X112630000Y-86375000D03*
X115170000Y-87225000D03*
X112630000Y-87225000D03*
%TD*%
%TO.C,REF\u002A\u002A*%
X90480000Y-74950000D03*
X93020000Y-74950000D03*
X90480000Y-74100000D03*
X93020000Y-74100000D03*
X90480000Y-72400000D03*
X93020000Y-72400000D03*
X90480000Y-71550000D03*
X93020000Y-71550000D03*
%TD*%
%TO.C,REF\u002A\u002A*%
X140050000Y-80920000D03*
X140050000Y-78380000D03*
X139200000Y-80920000D03*
X139200000Y-78380000D03*
X137500000Y-80920000D03*
X137500000Y-78380000D03*
X136650000Y-80920000D03*
X136650000Y-78380000D03*
%TD*%
%TO.C,REF\u002A\u002A*%
X137700000Y-104205000D03*
X137700000Y-106745000D03*
X138550000Y-104205000D03*
X138550000Y-106745000D03*
X140250000Y-104205000D03*
X140250000Y-106745000D03*
X141100000Y-104205000D03*
X141100000Y-106745000D03*
%TD*%
D10*
%TO.C,CAP2*%
X110750000Y-40651311D03*
D11*
X108210000Y-40651311D03*
%TD*%
D13*
%TO.C,REF\u002A\u002A*%
X86950000Y-80770000D03*
X86950000Y-78230000D03*
X86100000Y-80770000D03*
X86100000Y-78230000D03*
X84400000Y-80770000D03*
X84400000Y-78230000D03*
X83550000Y-80770000D03*
X83550000Y-78230000D03*
%TD*%
%TO.C,REF\u002A\u002A*%
X110075000Y-93695000D03*
X110075000Y-91155000D03*
X109225000Y-93695000D03*
X109225000Y-91155000D03*
X107525000Y-93695000D03*
X107525000Y-91155000D03*
X106675000Y-93695000D03*
X106675000Y-91155000D03*
%TD*%
D12*
%TO.C,REF\u002A\u002A*%
X85750000Y-53250000D03*
%TD*%
D13*
%TO.C,REF\u002A\u002A*%
X96605000Y-114800000D03*
X99145000Y-114800000D03*
X96605000Y-113950000D03*
X99145000Y-113950000D03*
X96605000Y-112250000D03*
X99145000Y-112250000D03*
X96605000Y-111400000D03*
X99145000Y-111400000D03*
%TD*%
D10*
%TO.C,J25*%
X117450000Y-83400000D03*
D11*
X117450000Y-85940000D03*
X117450000Y-88480000D03*
%TD*%
D16*
%TO.C,J17*%
X98871430Y-36026311D03*
X99371430Y-36026311D03*
X99871430Y-36026311D03*
X100371430Y-36026311D03*
X100871430Y-36026311D03*
X101371430Y-36026311D03*
X101871430Y-36026311D03*
X102371430Y-36026311D03*
X102871430Y-36026311D03*
X103371430Y-36026311D03*
D17*
X96621430Y-34901311D03*
D18*
X105621430Y-34901311D03*
%TD*%
D19*
%TO.C,R8*%
X59250000Y-40250000D03*
X57425000Y-40250000D03*
%TD*%
D10*
%TO.C,RUMBLE1*%
X88000000Y-62500000D03*
D11*
X85460000Y-62500000D03*
X82920000Y-62500000D03*
%TD*%
D20*
%TO.C,U2*%
X137656435Y-45552234D03*
X135860384Y-47348285D03*
X134064333Y-49144337D03*
X132268282Y-50940388D03*
X130472231Y-52736439D03*
X128676179Y-54532490D03*
X126880128Y-56328542D03*
X125084077Y-58124593D03*
X123288026Y-59920644D03*
X121491974Y-61716695D03*
X119695923Y-63512746D03*
X117899872Y-65308798D03*
X105327513Y-52736439D03*
X107123565Y-50940388D03*
X108919616Y-49144337D03*
X110715667Y-47348285D03*
X112511718Y-45552234D03*
X114307769Y-43756183D03*
X116103821Y-41960132D03*
X117899872Y-40164080D03*
X119695923Y-38368029D03*
X121491974Y-36571978D03*
X123288026Y-34775927D03*
X125084077Y-32979876D03*
%TD*%
D21*
%TO.C,R20*%
X29500000Y-39250000D03*
X29500000Y-41075000D03*
%TD*%
%TO.C,R14*%
X73250000Y-53587500D03*
X73250000Y-55412500D03*
%TD*%
D22*
%TO.C,R4*%
X135425000Y-99700000D03*
X135425000Y-97875000D03*
%TD*%
D23*
%TO.C,J30*%
X137756563Y-45619748D03*
D11*
X135960512Y-47415799D03*
X134164461Y-49211850D03*
X132368409Y-51007902D03*
X130572358Y-52803953D03*
X128776307Y-54600004D03*
X126980256Y-56396055D03*
X125184204Y-58192107D03*
X123388153Y-59988158D03*
X121592102Y-61784209D03*
X119796051Y-63580260D03*
X118000000Y-65376311D03*
%TD*%
D10*
%TO.C,VIN2*%
X87500000Y-36500000D03*
D11*
X87500000Y-33960000D03*
%TD*%
D24*
%TO.C,R19*%
X67500000Y-71250000D03*
X69325000Y-71250000D03*
%TD*%
D25*
%TO.C,J18*%
X108232233Y-59858544D03*
X109116116Y-60742428D03*
X110000000Y-61626311D03*
D26*
X104555277Y-60919204D03*
X108939340Y-65303267D03*
%TD*%
D10*
%TO.C,CAP1*%
X60275000Y-25750000D03*
D11*
X60275000Y-28290000D03*
%TD*%
D27*
%TO.C,J29*%
X58500000Y-33750000D03*
D11*
X60296051Y-35546051D03*
X62092102Y-37342102D03*
X63888154Y-39138154D03*
X65684206Y-40934204D03*
X67480256Y-42730256D03*
X69276307Y-44526307D03*
X71072360Y-46322359D03*
X72868409Y-48118409D03*
X74664460Y-49914462D03*
X76460513Y-51710512D03*
X78256563Y-53506563D03*
%TD*%
D28*
%TO.C,J28*%
X65500000Y-66000000D03*
D11*
X63703949Y-64203949D03*
X61907898Y-62407898D03*
X60111846Y-60611846D03*
X58315795Y-58815795D03*
X56519744Y-57019744D03*
X54723693Y-55223693D03*
X52927641Y-53427641D03*
X51131590Y-51631590D03*
X49335539Y-49835539D03*
X47539488Y-48039488D03*
X45743437Y-46243437D03*
%TD*%
D29*
%TO.C,I2C1*%
X43598439Y-57419329D03*
X42714556Y-56535445D03*
X41830672Y-55651562D03*
D30*
X47275395Y-56358669D03*
X42891332Y-51974606D03*
%TD*%
D10*
%TO.C,TRACK_B1*%
X100000000Y-65006311D03*
D11*
X100000000Y-67546311D03*
X100000000Y-70086311D03*
X100000000Y-72626311D03*
X100000000Y-75166311D03*
%TD*%
D31*
%TO.C,PAD4*%
X115000000Y-70726311D03*
X114500000Y-70726311D03*
X114000000Y-70726311D03*
X113500000Y-70726311D03*
D32*
X117250000Y-71851311D03*
D33*
X111250000Y-71851311D03*
%TD*%
D34*
%TO.C,U1*%
X65815795Y-65960512D03*
X64019744Y-64164461D03*
X62223692Y-62368410D03*
X60427641Y-60572359D03*
X58631590Y-58776308D03*
X56835539Y-56980256D03*
X55039487Y-55184205D03*
X53243436Y-53388154D03*
X51447385Y-51592103D03*
X49651334Y-49796051D03*
X47855283Y-48000000D03*
X46059231Y-46203949D03*
X58631590Y-33631590D03*
X60427641Y-35427642D03*
X62223692Y-37223693D03*
X64019744Y-39019744D03*
X65815795Y-40815795D03*
X67611846Y-42611846D03*
X69407897Y-44407898D03*
X71203949Y-46203949D03*
X73000000Y-48000000D03*
X74796051Y-49796051D03*
X76592102Y-51592103D03*
X78388153Y-53388154D03*
%TD*%
D35*
%TO.C,L_SHOUL1*%
X90825000Y-99025000D03*
X90825000Y-99525000D03*
X90825000Y-100025000D03*
X90825000Y-100525000D03*
D36*
X91950000Y-96775000D03*
D37*
X91950000Y-102775000D03*
%TD*%
D22*
%TO.C,R18*%
X75750000Y-43750000D03*
X75750000Y-41925000D03*
%TD*%
D10*
%TO.C,MPU1*%
X95725000Y-50001311D03*
D11*
X95725000Y-52541311D03*
X95725000Y-55081311D03*
X95725000Y-57621311D03*
X95725000Y-60161311D03*
X95725000Y-62701311D03*
X95725000Y-65241311D03*
X95725000Y-67781311D03*
%TD*%
D16*
%TO.C,J9*%
X112750000Y-35776311D03*
X113250000Y-35776311D03*
X113750000Y-35776311D03*
X114250000Y-35776311D03*
D17*
X110500000Y-34651311D03*
D18*
X116500000Y-34651311D03*
%TD*%
D10*
%TO.C,VIN1*%
X122275000Y-69626311D03*
D11*
X122275000Y-72166311D03*
%TD*%
D38*
%TO.C,RST1*%
X137750000Y-72376311D03*
X130000000Y-72376311D03*
%TD*%
D39*
%TO.C,SP_L1*%
X99400000Y-43126311D03*
X99400000Y-42626311D03*
X99400000Y-42126311D03*
X99400000Y-41626311D03*
D40*
X98275000Y-45376311D03*
D41*
X98275000Y-39376311D03*
%TD*%
D35*
%TO.C,PAD_B1*%
X115425000Y-97950000D03*
X115425000Y-98450000D03*
X115425000Y-98950000D03*
X115425000Y-99450000D03*
D36*
X116550000Y-95700000D03*
D37*
X116550000Y-101700000D03*
%TD*%
D42*
%TO.C,PAD3*%
X38330940Y-60229720D03*
X37977386Y-59876167D03*
X37623833Y-59522614D03*
X37270280Y-59169060D03*
D43*
X39126435Y-62616206D03*
D44*
X34883794Y-58373565D03*
%TD*%
D38*
%TO.C,RST2*%
X67000000Y-73250000D03*
X59250000Y-73250000D03*
%TD*%
D39*
%TO.C,R_SHOUL1*%
X51600000Y-101175000D03*
X51600000Y-100675000D03*
X51600000Y-100175000D03*
X51600000Y-99675000D03*
D40*
X50475000Y-103425000D03*
D41*
X50475000Y-97425000D03*
%TD*%
D27*
%TO.C,TRACK_B2*%
X43157898Y-67157898D03*
D11*
X44953949Y-68953949D03*
X46750000Y-70750000D03*
X48546052Y-72546052D03*
X50342103Y-74342103D03*
%TD*%
D24*
%TO.C,R2*%
X33250000Y-54250000D03*
X35075000Y-54250000D03*
%TD*%
D31*
%TO.C,JOY_R1*%
X81500000Y-71350000D03*
X81000000Y-71350000D03*
X80500000Y-71350000D03*
X80000000Y-71350000D03*
X79500000Y-71350000D03*
X79000000Y-71350000D03*
X78500000Y-71350000D03*
X78000000Y-71350000D03*
X77500000Y-71350000D03*
X77000000Y-71350000D03*
D32*
X83750000Y-72475000D03*
D33*
X74750000Y-72475000D03*
%TD*%
D24*
%TO.C,R5*%
X69425000Y-38250000D03*
X71250000Y-38250000D03*
%TD*%
D22*
%TO.C,R17*%
X112075000Y-99622500D03*
X112075000Y-97797500D03*
%TD*%
D23*
%TO.C,J31*%
X125164461Y-32961850D03*
D11*
X123368410Y-34757901D03*
X121572359Y-36553952D03*
X119776307Y-38350004D03*
X117980256Y-40146055D03*
X116184205Y-41942106D03*
X114388154Y-43738157D03*
X112592102Y-45534209D03*
X110796051Y-47330260D03*
X109000000Y-49126311D03*
X107203949Y-50922362D03*
X105407898Y-52718413D03*
%TD*%
D35*
%TO.C,PAD_B2*%
X138025000Y-97700000D03*
X138025000Y-98200000D03*
X138025000Y-98700000D03*
X138025000Y-99200000D03*
D36*
X139150000Y-95450000D03*
D37*
X139150000Y-101450000D03*
%TD*%
D39*
%TO.C,SP_LB1*%
X51380000Y-87295000D03*
X51380000Y-86795000D03*
X51380000Y-86295000D03*
X51380000Y-85795000D03*
D40*
X50255000Y-89545000D03*
D41*
X50255000Y-83545000D03*
%TD*%
D16*
%TO.C,R_SHOULD1*%
X46750000Y-28875000D03*
X47250000Y-28875000D03*
X47750000Y-28875000D03*
X48250000Y-28875000D03*
D17*
X44500000Y-27750000D03*
D18*
X50500000Y-27750000D03*
%TD*%
M02*
