%TF.GenerationSoftware,KiCad,Pcbnew,9.0.4*%
%TF.CreationDate,2026-02-03T11:39:08-05:00*%
%TF.ProjectId,contProto,636f6e74-5072-46f7-946f-2e6b69636164,rev?*%
%TF.SameCoordinates,Original*%
%TF.FileFunction,Soldermask,Top*%
%TF.FilePolarity,Negative*%
%FSLAX46Y46*%
G04 Gerber Fmt 4.6, Leading zero omitted, Abs format (unit mm)*
G04 Created by KiCad (PCBNEW 9.0.4) date 2026-02-03 11:39:08*
%MOMM*%
%LPD*%
G01*
G04 APERTURE LIST*
G04 Aperture macros list*
%AMRoundRect*
0 Rectangle with rounded corners*
0 $1 Rounding radius*
0 $2 $3 $4 $5 $6 $7 $8 $9 X,Y pos of 4 corners*
0 Add a 4 corners polygon primitive as box body*
4,1,4,$2,$3,$4,$5,$6,$7,$8,$9,$2,$3,0*
0 Add four circle primitives for the rounded corners*
1,1,$1+$1,$2,$3*
1,1,$1+$1,$4,$5*
1,1,$1+$1,$6,$7*
1,1,$1+$1,$8,$9*
0 Add four rect primitives between the rounded corners*
20,1,$1+$1,$2,$3,$4,$5,0*
20,1,$1+$1,$4,$5,$6,$7,0*
20,1,$1+$1,$6,$7,$8,$9,0*
20,1,$1+$1,$8,$9,$2,$3,0*%
%AMRotRect*
0 Rectangle, with rotation*
0 The origin of the aperture is its center*
0 $1 length*
0 $2 width*
0 $3 Rotation angle, in degrees counterclockwise*
0 Add horizontal line*
21,1,$1,$2,0,0,$3*%
G04 Aperture macros list end*
%ADD10R,1.700000X1.700000*%
%ADD11C,1.700000*%
%ADD12RoundRect,0.250000X0.450000X-0.262500X0.450000X0.262500X-0.450000X0.262500X-0.450000X-0.262500X0*%
%ADD13C,5.000000*%
%ADD14C,0.500000*%
%ADD15R,1.000000X1.250000*%
%ADD16R,1.500000X1.050000*%
%ADD17O,1.500000X1.050000*%
%ADD18R,1.250000X1.000000*%
%ADD19R,0.635000X1.270000*%
%ADD20RoundRect,0.250000X-0.450000X0.262500X-0.450000X-0.262500X0.450000X-0.262500X0.450000X0.262500X0*%
%ADD21RoundRect,0.250000X-0.262500X-0.450000X0.262500X-0.450000X0.262500X0.450000X-0.262500X0.450000X0*%
%ADD22RoundRect,0.250000X0.262500X0.450000X-0.262500X0.450000X-0.262500X-0.450000X0.262500X-0.450000X0*%
%ADD23RotRect,1.700000X1.700000X135.000000*%
%ADD24RotRect,1.700000X1.700000X225.000000*%
%ADD25RotRect,1.700000X1.700000X45.000000*%
G04 APERTURE END LIST*
D10*
%TO.C,J32*%
X102875000Y-83135000D03*
D11*
X102875000Y-85675000D03*
X102875000Y-88215000D03*
%TD*%
D12*
%TO.C,R3*%
X79725000Y-103687500D03*
X79725000Y-101862500D03*
%TD*%
D13*
%TO.C,REF\u002A\u002A*%
X140763570Y-74626311D03*
%TD*%
D14*
%TO.C,REF\u002A\u002A*%
X90480000Y-54950000D03*
X93020000Y-54950000D03*
X90480000Y-54100000D03*
X93020000Y-54100000D03*
X90480000Y-52400000D03*
X93020000Y-52400000D03*
X90480000Y-51550000D03*
X93020000Y-51550000D03*
%TD*%
D12*
%TO.C,R7*%
X123000000Y-52538811D03*
X123000000Y-50713811D03*
%TD*%
D14*
%TO.C,REF\u002A\u002A*%
X87475000Y-94045000D03*
X87475000Y-91505000D03*
X86625000Y-94045000D03*
X86625000Y-91505000D03*
X84925000Y-94045000D03*
X84925000Y-91505000D03*
X84075000Y-94045000D03*
X84075000Y-91505000D03*
%TD*%
D13*
%TO.C,REF\u002A\u002A*%
X101000000Y-52876311D03*
%TD*%
D14*
%TO.C,REF\u002A\u002A*%
X69930000Y-100850000D03*
X72470000Y-100850000D03*
X69930000Y-100000000D03*
X72470000Y-100000000D03*
X69930000Y-98300000D03*
X72470000Y-98300000D03*
X69930000Y-97450000D03*
X72470000Y-97450000D03*
%TD*%
D15*
%TO.C,A1*%
X69490000Y-52380000D03*
X69490000Y-60130000D03*
%TD*%
D10*
%TO.C,J24*%
X67625000Y-103165000D03*
D11*
X67625000Y-100625000D03*
X67625000Y-98085000D03*
%TD*%
D15*
%TO.C,Y1*%
X69490000Y-35125000D03*
X69490000Y-27375000D03*
%TD*%
D16*
%TO.C,LT1*%
X141200000Y-84635000D03*
D17*
X141200000Y-85905000D03*
X141200000Y-87175000D03*
%TD*%
D18*
%TO.C,B1*%
X78117500Y-43752500D03*
X85867500Y-43752500D03*
%TD*%
D14*
%TO.C,REF\u002A\u002A*%
X109050000Y-80920000D03*
X109050000Y-78380000D03*
X108200000Y-80920000D03*
X108200000Y-78380000D03*
X106500000Y-80920000D03*
X106500000Y-78380000D03*
X105650000Y-80920000D03*
X105650000Y-78380000D03*
%TD*%
%TO.C,REF\u002A\u002A*%
X128405000Y-87375000D03*
X130945000Y-87375000D03*
X128405000Y-86525000D03*
X130945000Y-86525000D03*
X128405000Y-84825000D03*
X130945000Y-84825000D03*
X128405000Y-83975000D03*
X130945000Y-83975000D03*
%TD*%
%TO.C,REF\u002A\u002A*%
X65925000Y-108690000D03*
X65925000Y-106150000D03*
X65075000Y-108690000D03*
X65075000Y-106150000D03*
X63375000Y-108690000D03*
X63375000Y-106150000D03*
X62525000Y-108690000D03*
X62525000Y-106150000D03*
%TD*%
D13*
%TO.C,REF\u002A\u002A*%
X32500000Y-27500000D03*
%TD*%
D15*
%TO.C,SW19*%
X131925000Y-102450000D03*
X131925000Y-94700000D03*
%TD*%
D14*
%TO.C,REF\u002A\u002A*%
X54175000Y-94795000D03*
X54175000Y-92255000D03*
X53325000Y-94795000D03*
X53325000Y-92255000D03*
X51625000Y-94795000D03*
X51625000Y-92255000D03*
X50775000Y-94795000D03*
X50775000Y-92255000D03*
%TD*%
D19*
%TO.C,JP1*%
X98413800Y-61525000D03*
X99937800Y-61525000D03*
X101461800Y-61525000D03*
%TD*%
D10*
%TO.C,J27*%
X74700000Y-102300000D03*
D11*
X74700000Y-99760000D03*
X74700000Y-97220000D03*
%TD*%
D13*
%TO.C,REF\u002A\u002A*%
X140750000Y-49126311D03*
%TD*%
D20*
%TO.C,R10*%
X62625000Y-96962500D03*
X62625000Y-98787500D03*
%TD*%
D14*
%TO.C,REF\u002A\u002A*%
X66175000Y-94790000D03*
X66175000Y-92250000D03*
X65325000Y-94790000D03*
X65325000Y-92250000D03*
X63625000Y-94790000D03*
X63625000Y-92250000D03*
X62775000Y-94790000D03*
X62775000Y-92250000D03*
%TD*%
D21*
%TO.C,R23*%
X55437500Y-71400000D03*
X57262500Y-71400000D03*
%TD*%
D18*
%TO.C,MINUS1*%
X57235000Y-86275000D03*
X64985000Y-86275000D03*
%TD*%
D10*
%TO.C,J26*%
X133225000Y-83150000D03*
D11*
X133225000Y-85690000D03*
X133225000Y-88230000D03*
%TD*%
D15*
%TO.C,PAD2*%
X89275000Y-82375000D03*
X89275000Y-90125000D03*
%TD*%
D14*
%TO.C,REF\u002A\u002A*%
X138925000Y-92945000D03*
X138925000Y-90405000D03*
X138075000Y-92945000D03*
X138075000Y-90405000D03*
X136375000Y-92945000D03*
X136375000Y-90405000D03*
X135525000Y-92945000D03*
X135525000Y-90405000D03*
%TD*%
%TO.C,REF\u002A\u002A*%
X124075000Y-80920000D03*
X124075000Y-78380000D03*
X123225000Y-80920000D03*
X123225000Y-78380000D03*
X121525000Y-80920000D03*
X121525000Y-78380000D03*
X120675000Y-80920000D03*
X120675000Y-78380000D03*
%TD*%
D13*
%TO.C,REF\u002A\u002A*%
X82500000Y-27500000D03*
%TD*%
D16*
%TO.C,RT1*%
X125175000Y-84885000D03*
D17*
X125175000Y-86155000D03*
X125175000Y-87425000D03*
%TD*%
D14*
%TO.C,REF\u002A\u002A*%
X121880000Y-100725000D03*
X124420000Y-100725000D03*
X121880000Y-99875000D03*
X124420000Y-99875000D03*
X121880000Y-98175000D03*
X124420000Y-98175000D03*
X121880000Y-97325000D03*
X124420000Y-97325000D03*
%TD*%
D12*
%TO.C,R24*%
X103725000Y-71137500D03*
X103725000Y-69312500D03*
%TD*%
D14*
%TO.C,REF\u002A\u002A*%
X51675000Y-108695000D03*
X51675000Y-106155000D03*
X50825000Y-108695000D03*
X50825000Y-106155000D03*
X49125000Y-108695000D03*
X49125000Y-106155000D03*
X48275000Y-108695000D03*
X48275000Y-106155000D03*
%TD*%
D20*
%TO.C,R25*%
X105550000Y-73887500D03*
X105550000Y-75712500D03*
%TD*%
D22*
%TO.C,R6*%
X125162500Y-48626311D03*
X123337500Y-48626311D03*
%TD*%
D21*
%TO.C,R21*%
X132337500Y-60626311D03*
X134162500Y-60626311D03*
%TD*%
D20*
%TO.C,R16*%
X136500000Y-57801311D03*
X136500000Y-59626311D03*
%TD*%
D22*
%TO.C,R26*%
X57387500Y-69075000D03*
X55562500Y-69075000D03*
%TD*%
D10*
%TO.C,J33*%
X82025000Y-84125000D03*
D11*
X82025000Y-86665000D03*
X82025000Y-89205000D03*
%TD*%
D18*
%TO.C,R11*%
X134625000Y-54626311D03*
X142375000Y-54626311D03*
%TD*%
D14*
%TO.C,REF\u002A\u002A*%
X108500000Y-106520000D03*
X108500000Y-103980000D03*
X107650000Y-106520000D03*
X107650000Y-103980000D03*
X105950000Y-106520000D03*
X105950000Y-103980000D03*
X105100000Y-106520000D03*
X105100000Y-103980000D03*
%TD*%
%TO.C,REF\u002A\u002A*%
X90460000Y-35950000D03*
X93000000Y-35950000D03*
X90460000Y-35100000D03*
X93000000Y-35100000D03*
X90460000Y-33400000D03*
X93000000Y-33400000D03*
X90460000Y-32550000D03*
X93000000Y-32550000D03*
%TD*%
D15*
%TO.C,RB1*%
X58375000Y-96625000D03*
X58375000Y-104375000D03*
%TD*%
%TO.C,UP1*%
X128500000Y-48626311D03*
X128500000Y-40876311D03*
%TD*%
D20*
%TO.C,R15*%
X85525000Y-82097500D03*
X85525000Y-83922500D03*
%TD*%
D14*
%TO.C,REF\u002A\u002A*%
X130700000Y-106770000D03*
X130700000Y-104230000D03*
X129850000Y-106770000D03*
X129850000Y-104230000D03*
X128150000Y-106770000D03*
X128150000Y-104230000D03*
X127300000Y-106770000D03*
X127300000Y-104230000D03*
%TD*%
D15*
%TO.C,SP2*%
X72860000Y-82400000D03*
X72860000Y-90150000D03*
%TD*%
D20*
%TO.C,R9*%
X67360000Y-85362500D03*
X67360000Y-87187500D03*
%TD*%
D14*
%TO.C,REF\u002A\u002A*%
X76980000Y-87375000D03*
X79520000Y-87375000D03*
X76980000Y-86525000D03*
X79520000Y-86525000D03*
X76980000Y-84825000D03*
X79520000Y-84825000D03*
X76980000Y-83975000D03*
X79520000Y-83975000D03*
%TD*%
%TO.C,REF\u002A\u002A*%
X69450000Y-80770000D03*
X69450000Y-78230000D03*
X68600000Y-80770000D03*
X68600000Y-78230000D03*
X66900000Y-80770000D03*
X66900000Y-78230000D03*
X66050000Y-80770000D03*
X66050000Y-78230000D03*
%TD*%
%TO.C,REF\u002A\u002A*%
X78875000Y-107820000D03*
X78875000Y-105280000D03*
X78025000Y-107820000D03*
X78025000Y-105280000D03*
X76325000Y-107820000D03*
X76325000Y-105280000D03*
X75475000Y-107820000D03*
X75475000Y-105280000D03*
%TD*%
D10*
%TO.C,J23*%
X126675000Y-96160000D03*
D11*
X126675000Y-98700000D03*
X126675000Y-101240000D03*
%TD*%
D10*
%TO.C,J12*%
X104075000Y-101490000D03*
D11*
X104075000Y-98950000D03*
X104075000Y-96410000D03*
%TD*%
D14*
%TO.C,REF\u002A\u002A*%
X53200000Y-80770000D03*
X53200000Y-78230000D03*
X52350000Y-80770000D03*
X52350000Y-78230000D03*
X50650000Y-80770000D03*
X50650000Y-78230000D03*
X49800000Y-80770000D03*
X49800000Y-78230000D03*
%TD*%
D15*
%TO.C,SP1*%
X33250000Y-50625000D03*
X33250000Y-42875000D03*
%TD*%
D10*
%TO.C,J11*%
X140250000Y-65126311D03*
D11*
X137710000Y-65126311D03*
X135170000Y-65126311D03*
%TD*%
D20*
%TO.C,R1*%
X106850000Y-82137500D03*
X106850000Y-83962500D03*
%TD*%
D14*
%TO.C,REF\u002A\u002A*%
X92550000Y-107820000D03*
X92550000Y-105280000D03*
X91700000Y-107820000D03*
X91700000Y-105280000D03*
X90000000Y-107820000D03*
X90000000Y-105280000D03*
X89150000Y-107820000D03*
X89150000Y-105280000D03*
%TD*%
%TO.C,REF\u002A\u002A*%
X115170000Y-83825000D03*
X112630000Y-83825000D03*
X115170000Y-84675000D03*
X112630000Y-84675000D03*
X115170000Y-86375000D03*
X112630000Y-86375000D03*
X115170000Y-87225000D03*
X112630000Y-87225000D03*
%TD*%
D15*
%TO.C,DWN1*%
X128500000Y-60751311D03*
X128500000Y-68501311D03*
%TD*%
D14*
%TO.C,REF\u002A\u002A*%
X90480000Y-74950000D03*
X93020000Y-74950000D03*
X90480000Y-74100000D03*
X93020000Y-74100000D03*
X90480000Y-72400000D03*
X93020000Y-72400000D03*
X90480000Y-71550000D03*
X93020000Y-71550000D03*
%TD*%
%TO.C,REF\u002A\u002A*%
X140050000Y-80920000D03*
X140050000Y-78380000D03*
X139200000Y-80920000D03*
X139200000Y-78380000D03*
X137500000Y-80920000D03*
X137500000Y-78380000D03*
X136650000Y-80920000D03*
X136650000Y-78380000D03*
%TD*%
%TO.C,REF\u002A\u002A*%
X137700000Y-104205000D03*
X137700000Y-106745000D03*
X138550000Y-104205000D03*
X138550000Y-106745000D03*
X140250000Y-104205000D03*
X140250000Y-106745000D03*
X141100000Y-104205000D03*
X141100000Y-106745000D03*
%TD*%
D18*
%TO.C,PLUS1*%
X29500000Y-35000000D03*
X37250000Y-35000000D03*
%TD*%
D10*
%TO.C,CAP2*%
X110750000Y-40651311D03*
D11*
X108210000Y-40651311D03*
%TD*%
D15*
%TO.C,SW20*%
X110125000Y-82175000D03*
X110125000Y-89925000D03*
%TD*%
D12*
%TO.C,R27*%
X108200000Y-75712500D03*
X108200000Y-73887500D03*
%TD*%
D18*
%TO.C,X1*%
X60862500Y-43752500D03*
X53112500Y-43752500D03*
%TD*%
D15*
%TO.C,LB1*%
X83975000Y-103275000D03*
X83975000Y-95525000D03*
%TD*%
D14*
%TO.C,REF\u002A\u002A*%
X86950000Y-80770000D03*
X86950000Y-78230000D03*
X86100000Y-80770000D03*
X86100000Y-78230000D03*
X84400000Y-80770000D03*
X84400000Y-78230000D03*
X83550000Y-80770000D03*
X83550000Y-78230000D03*
%TD*%
D21*
%TO.C,R12*%
X51487500Y-67950000D03*
X53312500Y-67950000D03*
%TD*%
D15*
%TO.C,PAD1*%
X108575000Y-102700000D03*
X108575000Y-94950000D03*
%TD*%
D14*
%TO.C,REF\u002A\u002A*%
X110075000Y-93695000D03*
X110075000Y-91155000D03*
X109225000Y-93695000D03*
X109225000Y-91155000D03*
X107525000Y-93695000D03*
X107525000Y-91155000D03*
X106675000Y-93695000D03*
X106675000Y-91155000D03*
%TD*%
D19*
%TO.C,JP2*%
X43550000Y-63675000D03*
X45050000Y-63675000D03*
X46550000Y-63675000D03*
%TD*%
D13*
%TO.C,REF\u002A\u002A*%
X85750000Y-53250000D03*
%TD*%
D21*
%TO.C,R13*%
X139087500Y-69626311D03*
X140912500Y-69626311D03*
%TD*%
D18*
%TO.C,L1*%
X122375000Y-54626311D03*
X114625000Y-54626311D03*
%TD*%
D14*
%TO.C,REF\u002A\u002A*%
X96605000Y-114800000D03*
X99145000Y-114800000D03*
X96605000Y-113950000D03*
X99145000Y-113950000D03*
X96605000Y-112250000D03*
X99145000Y-112250000D03*
X96605000Y-111400000D03*
X99145000Y-111400000D03*
%TD*%
D10*
%TO.C,J25*%
X117450000Y-83400000D03*
D11*
X117450000Y-85940000D03*
X117450000Y-88480000D03*
%TD*%
D20*
%TO.C,R22*%
X56730000Y-88882500D03*
X56730000Y-90707500D03*
%TD*%
D10*
%TO.C,RUMBLE1*%
X88000000Y-62500000D03*
D11*
X85460000Y-62500000D03*
X82920000Y-62500000D03*
%TD*%
D23*
%TO.C,J30*%
X137756563Y-45619748D03*
D11*
X135960512Y-47415799D03*
X134164461Y-49211850D03*
X132368409Y-51007902D03*
X130572358Y-52803953D03*
X128776307Y-54600004D03*
X126980256Y-56396055D03*
X125184204Y-58192107D03*
X123388153Y-59988158D03*
X121592102Y-61784209D03*
X119796051Y-63580260D03*
X118000000Y-65376311D03*
%TD*%
D10*
%TO.C,VIN2*%
X87500000Y-36500000D03*
D11*
X87500000Y-33960000D03*
%TD*%
D10*
%TO.C,CAP1*%
X60275000Y-25750000D03*
D11*
X60275000Y-28290000D03*
%TD*%
D24*
%TO.C,J29*%
X58500000Y-33750000D03*
D11*
X60296051Y-35546051D03*
X62092102Y-37342102D03*
X63888154Y-39138154D03*
X65684206Y-40934204D03*
X67480256Y-42730256D03*
X69276307Y-44526307D03*
X71072360Y-46322359D03*
X72868409Y-48118409D03*
X74664460Y-49914462D03*
X76460513Y-51710512D03*
X78256563Y-53506563D03*
%TD*%
D25*
%TO.C,J28*%
X65500000Y-66000000D03*
D11*
X63703949Y-64203949D03*
X61907898Y-62407898D03*
X60111846Y-60611846D03*
X58315795Y-58815795D03*
X56519744Y-57019744D03*
X54723693Y-55223693D03*
X52927641Y-53427641D03*
X51131590Y-51631590D03*
X49335539Y-49835539D03*
X47539488Y-48039488D03*
X45743437Y-46243437D03*
%TD*%
D10*
%TO.C,TRACK_B1*%
X100000000Y-65006311D03*
D11*
X100000000Y-67546311D03*
X100000000Y-70086311D03*
X100000000Y-72626311D03*
X100000000Y-75166311D03*
%TD*%
D10*
%TO.C,MPU1*%
X95725000Y-50001311D03*
D11*
X95725000Y-52541311D03*
X95725000Y-55081311D03*
X95725000Y-57621311D03*
X95725000Y-60161311D03*
X95725000Y-62701311D03*
X95725000Y-65241311D03*
X95725000Y-67781311D03*
%TD*%
D10*
%TO.C,VIN1*%
X122275000Y-69626311D03*
D11*
X122275000Y-72166311D03*
%TD*%
D24*
%TO.C,TRACK_B2*%
X43157898Y-67157898D03*
D11*
X44953949Y-68953949D03*
X46750000Y-70750000D03*
X48546052Y-72546052D03*
X50342103Y-74342103D03*
%TD*%
D23*
%TO.C,J31*%
X125164461Y-32961850D03*
D11*
X123368410Y-34757901D03*
X121572359Y-36553952D03*
X119776307Y-38350004D03*
X117980256Y-40146055D03*
X116184205Y-41942106D03*
X114388154Y-43738157D03*
X112592102Y-45534209D03*
X110796051Y-47330260D03*
X109000000Y-49126311D03*
X107203949Y-50922362D03*
X105407898Y-52718413D03*
%TD*%
M02*
