M48
; DRILL file {KiCad 9.0.4} date 2026-02-03T11:39:03-0500
; FORMAT={-:-/ absolute / metric / decimal}
; #@! TF.CreationDate,2026-02-03T11:39:03-05:00
; #@! TF.GenerationSoftware,Kicad,Pcbnew,9.0.4
; #@! TF.FileFunction,Plated,1,2,PTH
FMAT,2
METRIC
; #@! TA.AperFunction,Plated,PTH,ViaDrill
T1C0.300
; #@! TA.AperFunction,Plated,PTH,ComponentDrill
T2C0.750
; #@! TA.AperFunction,Plated,PTH,ComponentDrill
T3C1.000
; #@! TA.AperFunction,Plated,PTH,ComponentDrill
T4C2.500
%
G90
G05
T1
X29.512Y-39.245
X33.245Y-54.245
X35.075Y-54.25
X37.25Y-35.0
X39.0Y-57.0
X40.5Y-60.5
X41.831Y-55.652
X43.55Y-63.675
X46.55Y-63.675
X49.75Y-30.0
X50.25Y-62.25
X53.312Y-67.95
X53.75Y-48.25
X53.975Y-98.525
X53.975Y-100.525
X54.0Y-29.0
X54.23Y-83.545
X54.23Y-86.045
X55.562Y-69.075
X56.73Y-90.707
X58.375Y-104.375
X59.25Y-40.25
X59.25Y-73.25
X64.985Y-86.275
X65.5Y-32.5
X67.36Y-87.188
X67.5Y-71.25
X69.48Y-38.25
X72.75Y-69.0
X73.25Y-53.587
X75.75Y-43.76
X76.75Y-69.5
X80.5Y-69.25
X83.975Y-95.525
X87.85Y-100.65
X89.275Y-90.125
X92.1Y-99.4
X93.975Y-99.025
X97.5Y-43.126
X100.75Y-38.626
X100.875Y-41.126
X103.371Y-33.376
X108.232Y-59.859
X108.575Y-94.95
X108.575Y-102.7
X110.125Y-89.925
X111.5Y-31.626
X112.805Y-72.126
X113.825Y-100.2
X114.5Y-67.376
X115.701Y-69.077
X123.25Y-48.626
X125.5Y-44.126
X128.5Y-40.876
X129.25Y-58.126
X130.0Y-72.376
X131.925Y-94.7
X131.925Y-102.45
X134.0Y-60.626
X135.425Y-97.875
X136.5Y-59.626
X137.75Y-67.876
X137.75Y-72.376
X140.5Y-67.876
X140.912Y-69.626
X142.375Y-54.626
T2
X125.175Y-84.885
X125.175Y-86.155
X125.175Y-87.425
X141.2Y-84.635
X141.2Y-85.905
X141.2Y-87.175
T3
X43.158Y-67.158
X44.954Y-68.954
X45.743Y-46.243
X46.75Y-70.75
X47.539Y-48.039
X48.546Y-72.546
X49.336Y-49.836
X50.342Y-74.342
X51.132Y-51.632
X52.928Y-53.428
X54.724Y-55.224
X56.52Y-57.02
X58.316Y-58.816
X58.5Y-33.75
X60.112Y-60.612
X60.275Y-25.75
X60.275Y-28.29
X60.296Y-35.546
X61.908Y-62.408
X62.092Y-37.342
X63.704Y-64.204
X63.888Y-39.138
X65.5Y-66.0
X65.684Y-40.934
X67.48Y-42.73
X67.625Y-98.085
X67.625Y-100.625
X67.625Y-103.165
X69.276Y-44.526
X71.072Y-46.322
X72.868Y-48.118
X74.664Y-49.914
X74.7Y-97.22
X74.7Y-99.76
X74.7Y-102.3
X76.461Y-51.711
X78.257Y-53.507
X82.025Y-84.125
X82.025Y-86.665
X82.025Y-89.205
X82.92Y-62.5
X85.46Y-62.5
X87.5Y-33.96
X87.5Y-36.5
X88.0Y-62.5
X95.725Y-50.001
X95.725Y-52.541
X95.725Y-55.081
X95.725Y-57.621
X95.725Y-60.161
X95.725Y-62.701
X95.725Y-65.241
X95.725Y-67.781
X100.0Y-65.006
X100.0Y-67.546
X100.0Y-70.086
X100.0Y-72.626
X100.0Y-75.166
X102.875Y-83.135
X102.875Y-85.675
X102.875Y-88.215
X104.075Y-96.41
X104.075Y-98.95
X104.075Y-101.49
X105.408Y-52.718
X107.204Y-50.922
X108.21Y-40.651
X109.0Y-49.126
X110.75Y-40.651
X110.796Y-47.33
X112.592Y-45.534
X114.388Y-43.738
X116.184Y-41.942
X117.45Y-83.4
X117.45Y-85.94
X117.45Y-88.48
X117.98Y-40.146
X118.0Y-65.376
X119.776Y-38.35
X119.796Y-63.58
X121.572Y-36.554
X121.592Y-61.784
X122.275Y-69.626
X122.275Y-72.166
X123.368Y-34.758
X123.388Y-59.988
X125.164Y-32.962
X125.184Y-58.192
X126.675Y-96.16
X126.675Y-98.7
X126.675Y-101.24
X126.98Y-56.396
X128.776Y-54.6
X130.572Y-52.804
X132.368Y-51.008
X133.225Y-83.15
X133.225Y-85.69
X133.225Y-88.23
X134.164Y-49.212
X135.17Y-65.126
X135.961Y-47.416
X137.71Y-65.126
X137.757Y-45.62
X140.25Y-65.126
T4
X32.5Y-27.5
X82.5Y-27.5
X85.75Y-53.25
X101.0Y-52.876
X140.75Y-49.126
X140.764Y-74.626
M30
