M48
; DRILL file {KiCad 9.0.4} date 2026-02-03T11:39:03-0500
; FORMAT={-:-/ absolute / metric / decimal}
; #@! TF.CreationDate,2026-02-03T11:39:03-05:00
; #@! TF.GenerationSoftware,Kicad,Pcbnew,9.0.4
; #@! TF.FileFunction,NonPlated,1,2,NPTH
FMAT,2
METRIC
; #@! TA.AperFunction,NonPlated,NPTH,ComponentDrill
T1C0.500
%
G90
G05
T1
X48.275Y-106.155
X48.275Y-108.695
X49.125Y-106.155
X49.125Y-108.695
X49.8Y-78.23
X49.8Y-80.77
X50.65Y-78.23
X50.65Y-80.77
X50.775Y-92.255
X50.775Y-94.795
X50.825Y-106.155
X50.825Y-108.695
X51.625Y-92.255
X51.625Y-94.795
X51.675Y-106.155
X51.675Y-108.695
X52.35Y-78.23
X52.35Y-80.77
X53.2Y-78.23
X53.2Y-80.77
X53.325Y-92.255
X53.325Y-94.795
X54.175Y-92.255
X54.175Y-94.795
X62.525Y-106.15
X62.525Y-108.69
X62.775Y-92.25
X62.775Y-94.79
X63.375Y-106.15
X63.375Y-108.69
X63.625Y-92.25
X63.625Y-94.79
X65.075Y-106.15
X65.075Y-108.69
X65.325Y-92.25
X65.325Y-94.79
X65.925Y-106.15
X65.925Y-108.69
X66.05Y-78.23
X66.05Y-80.77
X66.175Y-92.25
X66.175Y-94.79
X66.9Y-78.23
X66.9Y-80.77
X68.6Y-78.23
X68.6Y-80.77
X69.45Y-78.23
X69.45Y-80.77
X69.93Y-97.45
X69.93Y-98.3
X69.93Y-100.0
X69.93Y-100.85
X72.47Y-97.45
X72.47Y-98.3
X72.47Y-100.0
X72.47Y-100.85
X75.475Y-105.28
X75.475Y-107.82
X76.325Y-105.28
X76.325Y-107.82
X76.98Y-83.975
X76.98Y-84.825
X76.98Y-86.525
X76.98Y-87.375
X78.025Y-105.28
X78.025Y-107.82
X78.875Y-105.28
X78.875Y-107.82
X79.52Y-83.975
X79.52Y-84.825
X79.52Y-86.525
X79.52Y-87.375
X83.55Y-78.23
X83.55Y-80.77
X84.075Y-91.505
X84.075Y-94.045
X84.4Y-78.23
X84.4Y-80.77
X84.925Y-91.505
X84.925Y-94.045
X86.1Y-78.23
X86.1Y-80.77
X86.625Y-91.505
X86.625Y-94.045
X86.95Y-78.23
X86.95Y-80.77
X87.475Y-91.505
X87.475Y-94.045
X89.15Y-105.28
X89.15Y-107.82
X90.0Y-105.28
X90.0Y-107.82
X90.46Y-32.55
X90.46Y-33.4
X90.46Y-35.1
X90.46Y-35.95
X90.48Y-51.55
X90.48Y-52.4
X90.48Y-54.1
X90.48Y-54.95
X90.48Y-71.55
X90.48Y-72.4
X90.48Y-74.1
X90.48Y-74.95
X91.7Y-105.28
X91.7Y-107.82
X92.55Y-105.28
X92.55Y-107.82
X93.0Y-32.55
X93.0Y-33.4
X93.0Y-35.1
X93.0Y-35.95
X93.02Y-51.55
X93.02Y-52.4
X93.02Y-54.1
X93.02Y-54.95
X93.02Y-71.55
X93.02Y-72.4
X93.02Y-74.1
X93.02Y-74.95
X96.605Y-111.4
X96.605Y-112.25
X96.605Y-113.95
X96.605Y-114.8
X99.145Y-111.4
X99.145Y-112.25
X99.145Y-113.95
X99.145Y-114.8
X105.1Y-103.98
X105.1Y-106.52
X105.65Y-78.38
X105.65Y-80.92
X105.95Y-103.98
X105.95Y-106.52
X106.5Y-78.38
X106.5Y-80.92
X106.675Y-91.155
X106.675Y-93.695
X107.525Y-91.155
X107.525Y-93.695
X107.65Y-103.98
X107.65Y-106.52
X108.2Y-78.38
X108.2Y-80.92
X108.5Y-103.98
X108.5Y-106.52
X109.05Y-78.38
X109.05Y-80.92
X109.225Y-91.155
X109.225Y-93.695
X110.075Y-91.155
X110.075Y-93.695
X112.63Y-83.825
X112.63Y-84.675
X112.63Y-86.375
X112.63Y-87.225
X115.17Y-83.825
X115.17Y-84.675
X115.17Y-86.375
X115.17Y-87.225
X120.675Y-78.38
X120.675Y-80.92
X121.525Y-78.38
X121.525Y-80.92
X121.88Y-97.325
X121.88Y-98.175
X121.88Y-99.875
X121.88Y-100.725
X123.225Y-78.38
X123.225Y-80.92
X124.075Y-78.38
X124.075Y-80.92
X124.42Y-97.325
X124.42Y-98.175
X124.42Y-99.875
X124.42Y-100.725
X127.3Y-104.23
X127.3Y-106.77
X128.15Y-104.23
X128.15Y-106.77
X128.405Y-83.975
X128.405Y-84.825
X128.405Y-86.525
X128.405Y-87.375
X129.85Y-104.23
X129.85Y-106.77
X130.7Y-104.23
X130.7Y-106.77
X130.945Y-83.975
X130.945Y-84.825
X130.945Y-86.525
X130.945Y-87.375
X135.525Y-90.405
X135.525Y-92.945
X136.375Y-90.405
X136.375Y-92.945
X136.65Y-78.38
X136.65Y-80.92
X137.5Y-78.38
X137.5Y-80.92
X137.7Y-104.205
X137.7Y-106.745
X138.075Y-90.405
X138.075Y-92.945
X138.55Y-104.205
X138.55Y-106.745
X138.925Y-90.405
X138.925Y-92.945
X139.2Y-78.38
X139.2Y-80.92
X140.05Y-78.38
X140.05Y-80.92
X140.25Y-104.205
X140.25Y-106.745
X141.1Y-104.205
X141.1Y-106.745
M30
