%TF.GenerationSoftware,KiCad,Pcbnew,9.0.4*%
%TF.CreationDate,2026-01-28T15:51:58-05:00*%
%TF.ProjectId,contProto,636f6e74-5072-46f7-946f-2e6b69636164,rev?*%
%TF.SameCoordinates,Original*%
%TF.FileFunction,Profile,NP*%
%FSLAX46Y46*%
G04 Gerber Fmt 4.6, Leading zero omitted, Abs format (unit mm)*
G04 Created by KiCad (PCBNEW 9.0.4) date 2026-01-28 15:51:58*
%MOMM*%
%LPD*%
G01*
G04 APERTURE LIST*
%TA.AperFunction,Profile*%
%ADD10C,0.050000*%
%TD*%
G04 APERTURE END LIST*
D10*
X137500000Y-27000000D02*
X101000000Y-27000000D01*
X152513570Y-76500000D02*
X152513570Y-42000000D01*
X152513570Y-42000000D02*
X137500000Y-27000000D01*
X101000000Y-27000000D02*
X101000000Y-28250000D01*
X101000000Y-28250000D02*
X101000000Y-76500000D01*
X101000000Y-76500000D02*
X152513570Y-76500000D01*
X64100000Y-103100000D02*
X75100000Y-103100000D01*
X75100000Y-127350000D01*
X64100000Y-127350000D01*
X64100000Y-103100000D01*
X35500000Y-107000000D02*
X45750000Y-107000000D01*
X45750000Y-127000000D01*
X35500000Y-127000000D01*
X35500000Y-107000000D01*
X21625000Y-90500000D02*
X31875000Y-90500000D01*
X31875000Y-102500000D01*
X21625000Y-102500000D01*
X21625000Y-90500000D01*
X60250000Y-101625000D02*
X50250000Y-101625000D01*
X50250000Y-88375000D01*
X60250000Y-88375000D01*
X60250000Y-101625000D01*
X90500000Y-22500000D02*
X90500000Y-78250000D01*
X24500000Y-22500000D02*
X90500000Y-22500000D01*
X24500000Y-22500000D02*
X24500000Y-56500000D01*
X21750000Y-107000000D02*
X33000000Y-107000000D01*
X33000000Y-127000000D01*
X21750000Y-127000000D01*
X21750000Y-107000000D01*
X50250000Y-103250000D02*
X61000000Y-103250000D01*
X61000000Y-127500000D01*
X50250000Y-127500000D01*
X50250000Y-103250000D01*
X24500000Y-56500000D02*
X46250000Y-78250000D01*
X46250000Y-78250000D02*
X90500000Y-78250000D01*
X76980000Y-96870000D02*
X88230000Y-96870000D01*
X88230000Y-127620000D01*
X76980000Y-127620000D01*
X76980000Y-96870000D01*
X75000000Y-100750000D02*
X65500000Y-100750000D01*
X65500000Y-87250000D01*
X75000000Y-87250000D01*
X75000000Y-100750000D01*
X35750000Y-90250000D02*
X46500000Y-90250000D01*
X46500000Y-102500000D01*
X35750000Y-102500000D01*
X35750000Y-90250000D01*
M02*
