%TF.GenerationSoftware,KiCad,Pcbnew,9.0.4*%
%TF.CreationDate,2026-01-28T15:51:57-05:00*%
%TF.ProjectId,contProto,636f6e74-5072-46f7-946f-2e6b69636164,rev?*%
%TF.SameCoordinates,Original*%
%TF.FileFunction,Paste,Top*%
%TF.FilePolarity,Positive*%
%FSLAX46Y46*%
G04 Gerber Fmt 4.6, Leading zero omitted, Abs format (unit mm)*
G04 Created by KiCad (PCBNEW 9.0.4) date 2026-01-28 15:51:57*
%MOMM*%
%LPD*%
G01*
G04 APERTURE LIST*
G04 Aperture macros list*
%AMRoundRect*
0 Rectangle with rounded corners*
0 $1 Rounding radius*
0 $2 $3 $4 $5 $6 $7 $8 $9 X,Y pos of 4 corners*
0 Add a 4 corners polygon primitive as box body*
4,1,4,$2,$3,$4,$5,$6,$7,$8,$9,$2,$3,0*
0 Add four circle primitives for the rounded corners*
1,1,$1+$1,$2,$3*
1,1,$1+$1,$4,$5*
1,1,$1+$1,$6,$7*
1,1,$1+$1,$8,$9*
0 Add four rect primitives between the rounded corners*
20,1,$1+$1,$2,$3,$4,$5,0*
20,1,$1+$1,$4,$5,$6,$7,0*
20,1,$1+$1,$6,$7,$8,$9,0*
20,1,$1+$1,$8,$9,$2,$3,0*%
G04 Aperture macros list end*
%ADD10RoundRect,0.135000X0.135000X0.185000X-0.135000X0.185000X-0.135000X-0.185000X0.135000X-0.185000X0*%
%ADD11RoundRect,0.135000X-0.135000X-0.185000X0.135000X-0.185000X0.135000X0.185000X-0.135000X0.185000X0*%
%ADD12R,1.250000X1.000000*%
%ADD13RoundRect,0.135000X0.185000X-0.135000X0.185000X0.135000X-0.185000X0.135000X-0.185000X-0.135000X0*%
%ADD14RoundRect,0.135000X-0.185000X0.135000X-0.185000X-0.135000X0.185000X-0.135000X0.185000X0.135000X0*%
%ADD15R,1.000000X1.250000*%
G04 APERTURE END LIST*
D10*
%TO.C,R6*%
X132490000Y-46750000D03*
X133510000Y-46750000D03*
%TD*%
D11*
%TO.C,R21*%
X139260000Y-58750000D03*
X138240000Y-58750000D03*
%TD*%
%TO.C,R13*%
X148013570Y-68500000D03*
X146993570Y-68500000D03*
%TD*%
D12*
%TO.C,R*%
X150375000Y-52750000D03*
X142625000Y-52750000D03*
%TD*%
D13*
%TO.C,R7*%
X130750000Y-49490000D03*
X130750000Y-50510000D03*
%TD*%
D14*
%TO.C,R16*%
X142500000Y-55510000D03*
X142500000Y-54490000D03*
%TD*%
D15*
%TO.C,UP*%
X136500000Y-39000000D03*
X136500000Y-46750000D03*
%TD*%
%TO.C,DWN*%
X136500000Y-66625000D03*
X136500000Y-58875000D03*
%TD*%
D12*
%TO.C,L*%
X122625000Y-52750000D03*
X130375000Y-52750000D03*
%TD*%
D11*
%TO.C,R3*%
X51990000Y-110500000D03*
X53010000Y-110500000D03*
%TD*%
D15*
%TO.C,A*%
X69490000Y-52380000D03*
X69490000Y-60130000D03*
%TD*%
%TO.C,Y*%
X69490000Y-35125000D03*
X69490000Y-27375000D03*
%TD*%
D12*
%TO.C,B*%
X78117500Y-43752500D03*
X85867500Y-43752500D03*
%TD*%
%TO.C,SW19*%
X23500000Y-115000000D03*
X31250000Y-115000000D03*
%TD*%
D11*
%TO.C,R10*%
X66590000Y-110350000D03*
X67610000Y-110350000D03*
%TD*%
D15*
%TO.C,SW12*%
X82480000Y-115745000D03*
X82480000Y-107995000D03*
%TD*%
D12*
%TO.C,SW6*%
X44875000Y-100000000D03*
X37125000Y-100000000D03*
%TD*%
%TO.C,SW15*%
X65850000Y-114600000D03*
X73600000Y-114600000D03*
%TD*%
D10*
%TO.C,R15*%
X44750000Y-96250000D03*
X43730000Y-96250000D03*
%TD*%
D12*
%TO.C,SW14*%
X78605000Y-100120000D03*
X86355000Y-100120000D03*
%TD*%
D11*
%TO.C,R9*%
X81970000Y-105620000D03*
X82990000Y-105620000D03*
%TD*%
D15*
%TO.C,SP1*%
X33250000Y-50625000D03*
X33250000Y-42875000D03*
%TD*%
D10*
%TO.C,R1*%
X30385000Y-96750000D03*
X29365000Y-96750000D03*
%TD*%
D12*
%TO.C,MINUS*%
X29500000Y-35000000D03*
X37250000Y-35000000D03*
%TD*%
%TO.C,SW20*%
X30625000Y-100000000D03*
X22875000Y-100000000D03*
%TD*%
%TO.C,X*%
X60862500Y-43752500D03*
X53112500Y-43752500D03*
%TD*%
%TO.C,SW16*%
X52000000Y-114750000D03*
X59750000Y-114750000D03*
%TD*%
%TO.C,SW13*%
X36750000Y-114750000D03*
X44500000Y-114750000D03*
%TD*%
D11*
%TO.C,R22*%
X85480000Y-115870000D03*
X86500000Y-115870000D03*
%TD*%
M02*
