%TF.GenerationSoftware,KiCad,Pcbnew,9.0.4*%
%TF.CreationDate,2026-01-28T15:51:58-05:00*%
%TF.ProjectId,contProto,636f6e74-5072-46f7-946f-2e6b69636164,rev?*%
%TF.SameCoordinates,Original*%
%TF.FileFunction,Legend,Bot*%
%TF.FilePolarity,Positive*%
%FSLAX46Y46*%
G04 Gerber Fmt 4.6, Leading zero omitted, Abs format (unit mm)*
G04 Created by KiCad (PCBNEW 9.0.4) date 2026-01-28 15:51:58*
%MOMM*%
%LPD*%
G01*
G04 APERTURE LIST*
%ADD10C,1.000000*%
%ADD11C,0.150000*%
%ADD12C,0.120000*%
%ADD13C,0.203200*%
G04 APERTURE END LIST*
D10*
X130095472Y-53613830D02*
X133462647Y-50246655D01*
X133462647Y-50246655D02*
X126391579Y-43175587D01*
X63158467Y-56287265D02*
X62148314Y-50563067D01*
X67199077Y-52246655D02*
X60128009Y-45175587D01*
X60128009Y-45175587D02*
X57434269Y-47869327D01*
X57434269Y-47869327D02*
X57097552Y-48879480D01*
X57097552Y-48879480D02*
X57097552Y-49552915D01*
X57097552Y-49552915D02*
X57434269Y-50563067D01*
X57434269Y-50563067D02*
X58444422Y-51573220D01*
X58444422Y-51573220D02*
X59454574Y-51909937D01*
X59454574Y-51909937D02*
X60128009Y-51909937D01*
X60128009Y-51909937D02*
X61138162Y-51573220D01*
X61138162Y-51573220D02*
X63831902Y-48879480D01*
D11*
X131298808Y-64434819D02*
X130965475Y-65434819D01*
X130965475Y-65434819D02*
X130632142Y-64434819D01*
X130298808Y-65434819D02*
X130298808Y-64768152D01*
X130298808Y-64434819D02*
X130346427Y-64482438D01*
X130346427Y-64482438D02*
X130298808Y-64530057D01*
X130298808Y-64530057D02*
X130251189Y-64482438D01*
X130251189Y-64482438D02*
X130298808Y-64434819D01*
X130298808Y-64434819D02*
X130298808Y-64530057D01*
X129822618Y-64768152D02*
X129822618Y-65434819D01*
X129822618Y-64863390D02*
X129774999Y-64815771D01*
X129774999Y-64815771D02*
X129679761Y-64768152D01*
X129679761Y-64768152D02*
X129536904Y-64768152D01*
X129536904Y-64768152D02*
X129441666Y-64815771D01*
X129441666Y-64815771D02*
X129394047Y-64911009D01*
X129394047Y-64911009D02*
X129394047Y-65434819D01*
X136081067Y-29313771D02*
X135575991Y-29818847D01*
X135575991Y-29818847D02*
X135508647Y-29953534D01*
X135508647Y-29953534D02*
X135508647Y-30088221D01*
X135508647Y-30088221D02*
X135575991Y-30222908D01*
X135575991Y-30222908D02*
X135643334Y-30290252D01*
X135811693Y-29044397D02*
X135373960Y-28606664D01*
X135373960Y-28606664D02*
X135340288Y-29111740D01*
X135340288Y-29111740D02*
X135239273Y-29010725D01*
X135239273Y-29010725D02*
X135138258Y-28977053D01*
X135138258Y-28977053D02*
X135070914Y-28977053D01*
X135070914Y-28977053D02*
X134969899Y-29010725D01*
X134969899Y-29010725D02*
X134801540Y-29179084D01*
X134801540Y-29179084D02*
X134767869Y-29280099D01*
X134767869Y-29280099D02*
X134767869Y-29347442D01*
X134767869Y-29347442D02*
X134801540Y-29448458D01*
X134801540Y-29448458D02*
X135003571Y-29650488D01*
X135003571Y-29650488D02*
X135104586Y-29684160D01*
X135104586Y-29684160D02*
X135171930Y-29684160D01*
X133993418Y-28640336D02*
X134397479Y-29044397D01*
X134195449Y-28842366D02*
X134902556Y-28135259D01*
X134902556Y-28135259D02*
X134868884Y-28303618D01*
X134868884Y-28303618D02*
X134868884Y-28438305D01*
X134868884Y-28438305D02*
X134902556Y-28539320D01*
X148673169Y-41971669D02*
X148168093Y-42476745D01*
X148168093Y-42476745D02*
X148100749Y-42611432D01*
X148100749Y-42611432D02*
X148100749Y-42746119D01*
X148100749Y-42746119D02*
X148168093Y-42880806D01*
X148168093Y-42880806D02*
X148235436Y-42948150D01*
X148403795Y-41702295D02*
X147966062Y-41264562D01*
X147966062Y-41264562D02*
X147932390Y-41769638D01*
X147932390Y-41769638D02*
X147831375Y-41668623D01*
X147831375Y-41668623D02*
X147730360Y-41634951D01*
X147730360Y-41634951D02*
X147663016Y-41634951D01*
X147663016Y-41634951D02*
X147562001Y-41668623D01*
X147562001Y-41668623D02*
X147393642Y-41836982D01*
X147393642Y-41836982D02*
X147359971Y-41937997D01*
X147359971Y-41937997D02*
X147359971Y-42005340D01*
X147359971Y-42005340D02*
X147393642Y-42106356D01*
X147393642Y-42106356D02*
X147595673Y-42308386D01*
X147595673Y-42308386D02*
X147696688Y-42342058D01*
X147696688Y-42342058D02*
X147764032Y-42342058D01*
X147528329Y-40826829D02*
X147460986Y-40759486D01*
X147460986Y-40759486D02*
X147359971Y-40725814D01*
X147359971Y-40725814D02*
X147292627Y-40725814D01*
X147292627Y-40725814D02*
X147191612Y-40759486D01*
X147191612Y-40759486D02*
X147023253Y-40860501D01*
X147023253Y-40860501D02*
X146854894Y-41028860D01*
X146854894Y-41028860D02*
X146753879Y-41197218D01*
X146753879Y-41197218D02*
X146720207Y-41298234D01*
X146720207Y-41298234D02*
X146720207Y-41365577D01*
X146720207Y-41365577D02*
X146753879Y-41466592D01*
X146753879Y-41466592D02*
X146821223Y-41533936D01*
X146821223Y-41533936D02*
X146922238Y-41567608D01*
X146922238Y-41567608D02*
X146989581Y-41567608D01*
X146989581Y-41567608D02*
X147090597Y-41533936D01*
X147090597Y-41533936D02*
X147258955Y-41432921D01*
X147258955Y-41432921D02*
X147427314Y-41264562D01*
X147427314Y-41264562D02*
X147528329Y-41096203D01*
X147528329Y-41096203D02*
X147562001Y-40995188D01*
X147562001Y-40995188D02*
X147562001Y-40927844D01*
X147562001Y-40927844D02*
X147528329Y-40826829D01*
X113595237Y-73904819D02*
X113023809Y-73904819D01*
X113309523Y-74904819D02*
X113309523Y-73904819D01*
X112119047Y-74904819D02*
X112452380Y-74428628D01*
X112690475Y-74904819D02*
X112690475Y-73904819D01*
X112690475Y-73904819D02*
X112309523Y-73904819D01*
X112309523Y-73904819D02*
X112214285Y-73952438D01*
X112214285Y-73952438D02*
X112166666Y-74000057D01*
X112166666Y-74000057D02*
X112119047Y-74095295D01*
X112119047Y-74095295D02*
X112119047Y-74238152D01*
X112119047Y-74238152D02*
X112166666Y-74333390D01*
X112166666Y-74333390D02*
X112214285Y-74381009D01*
X112214285Y-74381009D02*
X112309523Y-74428628D01*
X112309523Y-74428628D02*
X112690475Y-74428628D01*
X111738094Y-74619104D02*
X111261904Y-74619104D01*
X111833332Y-74904819D02*
X111499999Y-73904819D01*
X111499999Y-73904819D02*
X111166666Y-74904819D01*
X110261904Y-74809580D02*
X110309523Y-74857200D01*
X110309523Y-74857200D02*
X110452380Y-74904819D01*
X110452380Y-74904819D02*
X110547618Y-74904819D01*
X110547618Y-74904819D02*
X110690475Y-74857200D01*
X110690475Y-74857200D02*
X110785713Y-74761961D01*
X110785713Y-74761961D02*
X110833332Y-74666723D01*
X110833332Y-74666723D02*
X110880951Y-74476247D01*
X110880951Y-74476247D02*
X110880951Y-74333390D01*
X110880951Y-74333390D02*
X110833332Y-74142914D01*
X110833332Y-74142914D02*
X110785713Y-74047676D01*
X110785713Y-74047676D02*
X110690475Y-73952438D01*
X110690475Y-73952438D02*
X110547618Y-73904819D01*
X110547618Y-73904819D02*
X110452380Y-73904819D01*
X110452380Y-73904819D02*
X110309523Y-73952438D01*
X110309523Y-73952438D02*
X110261904Y-74000057D01*
X109833332Y-74904819D02*
X109833332Y-73904819D01*
X109261904Y-74904819D02*
X109690475Y-74333390D01*
X109261904Y-73904819D02*
X109833332Y-74476247D01*
X109071428Y-75000057D02*
X108309523Y-75000057D01*
X107738094Y-74381009D02*
X107595237Y-74428628D01*
X107595237Y-74428628D02*
X107547618Y-74476247D01*
X107547618Y-74476247D02*
X107499999Y-74571485D01*
X107499999Y-74571485D02*
X107499999Y-74714342D01*
X107499999Y-74714342D02*
X107547618Y-74809580D01*
X107547618Y-74809580D02*
X107595237Y-74857200D01*
X107595237Y-74857200D02*
X107690475Y-74904819D01*
X107690475Y-74904819D02*
X108071427Y-74904819D01*
X108071427Y-74904819D02*
X108071427Y-73904819D01*
X108071427Y-73904819D02*
X107738094Y-73904819D01*
X107738094Y-73904819D02*
X107642856Y-73952438D01*
X107642856Y-73952438D02*
X107595237Y-74000057D01*
X107595237Y-74000057D02*
X107547618Y-74095295D01*
X107547618Y-74095295D02*
X107547618Y-74190533D01*
X107547618Y-74190533D02*
X107595237Y-74285771D01*
X107595237Y-74285771D02*
X107642856Y-74333390D01*
X107642856Y-74333390D02*
X107738094Y-74381009D01*
X107738094Y-74381009D02*
X108071427Y-74381009D01*
X148602381Y-66554819D02*
X148935714Y-66078628D01*
X149173809Y-66554819D02*
X149173809Y-65554819D01*
X149173809Y-65554819D02*
X148792857Y-65554819D01*
X148792857Y-65554819D02*
X148697619Y-65602438D01*
X148697619Y-65602438D02*
X148650000Y-65650057D01*
X148650000Y-65650057D02*
X148602381Y-65745295D01*
X148602381Y-65745295D02*
X148602381Y-65888152D01*
X148602381Y-65888152D02*
X148650000Y-65983390D01*
X148650000Y-65983390D02*
X148697619Y-66031009D01*
X148697619Y-66031009D02*
X148792857Y-66078628D01*
X148792857Y-66078628D02*
X149173809Y-66078628D01*
X147745238Y-65888152D02*
X147745238Y-66554819D01*
X148173809Y-65888152D02*
X148173809Y-66411961D01*
X148173809Y-66411961D02*
X148126190Y-66507200D01*
X148126190Y-66507200D02*
X148030952Y-66554819D01*
X148030952Y-66554819D02*
X147888095Y-66554819D01*
X147888095Y-66554819D02*
X147792857Y-66507200D01*
X147792857Y-66507200D02*
X147745238Y-66459580D01*
X147269047Y-66554819D02*
X147269047Y-65888152D01*
X147269047Y-65983390D02*
X147221428Y-65935771D01*
X147221428Y-65935771D02*
X147126190Y-65888152D01*
X147126190Y-65888152D02*
X146983333Y-65888152D01*
X146983333Y-65888152D02*
X146888095Y-65935771D01*
X146888095Y-65935771D02*
X146840476Y-66031009D01*
X146840476Y-66031009D02*
X146840476Y-66554819D01*
X146840476Y-66031009D02*
X146792857Y-65935771D01*
X146792857Y-65935771D02*
X146697619Y-65888152D01*
X146697619Y-65888152D02*
X146554762Y-65888152D01*
X146554762Y-65888152D02*
X146459523Y-65935771D01*
X146459523Y-65935771D02*
X146411904Y-66031009D01*
X146411904Y-66031009D02*
X146411904Y-66554819D01*
X145935714Y-66554819D02*
X145935714Y-65554819D01*
X145935714Y-65935771D02*
X145840476Y-65888152D01*
X145840476Y-65888152D02*
X145650000Y-65888152D01*
X145650000Y-65888152D02*
X145554762Y-65935771D01*
X145554762Y-65935771D02*
X145507143Y-65983390D01*
X145507143Y-65983390D02*
X145459524Y-66078628D01*
X145459524Y-66078628D02*
X145459524Y-66364342D01*
X145459524Y-66364342D02*
X145507143Y-66459580D01*
X145507143Y-66459580D02*
X145554762Y-66507200D01*
X145554762Y-66507200D02*
X145650000Y-66554819D01*
X145650000Y-66554819D02*
X145840476Y-66554819D01*
X145840476Y-66554819D02*
X145935714Y-66507200D01*
X144888095Y-66554819D02*
X144983333Y-66507200D01*
X144983333Y-66507200D02*
X145030952Y-66411961D01*
X145030952Y-66411961D02*
X145030952Y-65554819D01*
X144126190Y-66507200D02*
X144221428Y-66554819D01*
X144221428Y-66554819D02*
X144411904Y-66554819D01*
X144411904Y-66554819D02*
X144507142Y-66507200D01*
X144507142Y-66507200D02*
X144554761Y-66411961D01*
X144554761Y-66411961D02*
X144554761Y-66031009D01*
X144554761Y-66031009D02*
X144507142Y-65935771D01*
X144507142Y-65935771D02*
X144411904Y-65888152D01*
X144411904Y-65888152D02*
X144221428Y-65888152D01*
X144221428Y-65888152D02*
X144126190Y-65935771D01*
X144126190Y-65935771D02*
X144078571Y-66031009D01*
X144078571Y-66031009D02*
X144078571Y-66126247D01*
X144078571Y-66126247D02*
X144554761Y-66221485D01*
X110407144Y-28704819D02*
X110883334Y-28704819D01*
X110883334Y-28704819D02*
X110883334Y-27704819D01*
X110311906Y-28800057D02*
X109550001Y-28800057D01*
X109026191Y-27704819D02*
X109026191Y-28419104D01*
X109026191Y-28419104D02*
X109073810Y-28561961D01*
X109073810Y-28561961D02*
X109169048Y-28657200D01*
X109169048Y-28657200D02*
X109311905Y-28704819D01*
X109311905Y-28704819D02*
X109407143Y-28704819D01*
X108407143Y-28704819D02*
X108502381Y-28657200D01*
X108502381Y-28657200D02*
X108550000Y-28609580D01*
X108550000Y-28609580D02*
X108597619Y-28514342D01*
X108597619Y-28514342D02*
X108597619Y-28228628D01*
X108597619Y-28228628D02*
X108550000Y-28133390D01*
X108550000Y-28133390D02*
X108502381Y-28085771D01*
X108502381Y-28085771D02*
X108407143Y-28038152D01*
X108407143Y-28038152D02*
X108264286Y-28038152D01*
X108264286Y-28038152D02*
X108169048Y-28085771D01*
X108169048Y-28085771D02*
X108121429Y-28133390D01*
X108121429Y-28133390D02*
X108073810Y-28228628D01*
X108073810Y-28228628D02*
X108073810Y-28514342D01*
X108073810Y-28514342D02*
X108121429Y-28609580D01*
X108121429Y-28609580D02*
X108169048Y-28657200D01*
X108169048Y-28657200D02*
X108264286Y-28704819D01*
X108264286Y-28704819D02*
X108407143Y-28704819D01*
X107740476Y-28038152D02*
X107502381Y-28704819D01*
X107264286Y-28038152D02*
X107502381Y-28704819D01*
X107502381Y-28704819D02*
X107597619Y-28942914D01*
X107597619Y-28942914D02*
X107645238Y-28990533D01*
X107645238Y-28990533D02*
X107740476Y-29038152D01*
X124660715Y-36154819D02*
X125136905Y-36154819D01*
X125136905Y-36154819D02*
X125136905Y-35154819D01*
X124565477Y-36250057D02*
X123803572Y-36250057D01*
X123613095Y-36107200D02*
X123517857Y-36154819D01*
X123517857Y-36154819D02*
X123327381Y-36154819D01*
X123327381Y-36154819D02*
X123232143Y-36107200D01*
X123232143Y-36107200D02*
X123184524Y-36011961D01*
X123184524Y-36011961D02*
X123184524Y-35964342D01*
X123184524Y-35964342D02*
X123232143Y-35869104D01*
X123232143Y-35869104D02*
X123327381Y-35821485D01*
X123327381Y-35821485D02*
X123470238Y-35821485D01*
X123470238Y-35821485D02*
X123565476Y-35773866D01*
X123565476Y-35773866D02*
X123613095Y-35678628D01*
X123613095Y-35678628D02*
X123613095Y-35631009D01*
X123613095Y-35631009D02*
X123565476Y-35535771D01*
X123565476Y-35535771D02*
X123470238Y-35488152D01*
X123470238Y-35488152D02*
X123327381Y-35488152D01*
X123327381Y-35488152D02*
X123232143Y-35535771D01*
X122755952Y-36154819D02*
X122755952Y-35154819D01*
X122327381Y-36154819D02*
X122327381Y-35631009D01*
X122327381Y-35631009D02*
X122375000Y-35535771D01*
X122375000Y-35535771D02*
X122470238Y-35488152D01*
X122470238Y-35488152D02*
X122613095Y-35488152D01*
X122613095Y-35488152D02*
X122708333Y-35535771D01*
X122708333Y-35535771D02*
X122755952Y-35583390D01*
X121708333Y-36154819D02*
X121803571Y-36107200D01*
X121803571Y-36107200D02*
X121851190Y-36059580D01*
X121851190Y-36059580D02*
X121898809Y-35964342D01*
X121898809Y-35964342D02*
X121898809Y-35678628D01*
X121898809Y-35678628D02*
X121851190Y-35583390D01*
X121851190Y-35583390D02*
X121803571Y-35535771D01*
X121803571Y-35535771D02*
X121708333Y-35488152D01*
X121708333Y-35488152D02*
X121565476Y-35488152D01*
X121565476Y-35488152D02*
X121470238Y-35535771D01*
X121470238Y-35535771D02*
X121422619Y-35583390D01*
X121422619Y-35583390D02*
X121375000Y-35678628D01*
X121375000Y-35678628D02*
X121375000Y-35964342D01*
X121375000Y-35964342D02*
X121422619Y-36059580D01*
X121422619Y-36059580D02*
X121470238Y-36107200D01*
X121470238Y-36107200D02*
X121565476Y-36154819D01*
X121565476Y-36154819D02*
X121708333Y-36154819D01*
X120517857Y-35488152D02*
X120517857Y-36154819D01*
X120946428Y-35488152D02*
X120946428Y-36011961D01*
X120946428Y-36011961D02*
X120898809Y-36107200D01*
X120898809Y-36107200D02*
X120803571Y-36154819D01*
X120803571Y-36154819D02*
X120660714Y-36154819D01*
X120660714Y-36154819D02*
X120565476Y-36107200D01*
X120565476Y-36107200D02*
X120517857Y-36059580D01*
X119898809Y-36154819D02*
X119994047Y-36107200D01*
X119994047Y-36107200D02*
X120041666Y-36011961D01*
X120041666Y-36011961D02*
X120041666Y-35154819D01*
X119089285Y-36154819D02*
X119089285Y-35154819D01*
X119089285Y-36107200D02*
X119184523Y-36154819D01*
X119184523Y-36154819D02*
X119374999Y-36154819D01*
X119374999Y-36154819D02*
X119470237Y-36107200D01*
X119470237Y-36107200D02*
X119517856Y-36059580D01*
X119517856Y-36059580D02*
X119565475Y-35964342D01*
X119565475Y-35964342D02*
X119565475Y-35678628D01*
X119565475Y-35678628D02*
X119517856Y-35583390D01*
X119517856Y-35583390D02*
X119470237Y-35535771D01*
X119470237Y-35535771D02*
X119374999Y-35488152D01*
X119374999Y-35488152D02*
X119184523Y-35488152D01*
X119184523Y-35488152D02*
X119089285Y-35535771D01*
X118232142Y-36107200D02*
X118327380Y-36154819D01*
X118327380Y-36154819D02*
X118517856Y-36154819D01*
X118517856Y-36154819D02*
X118613094Y-36107200D01*
X118613094Y-36107200D02*
X118660713Y-36011961D01*
X118660713Y-36011961D02*
X118660713Y-35631009D01*
X118660713Y-35631009D02*
X118613094Y-35535771D01*
X118613094Y-35535771D02*
X118517856Y-35488152D01*
X118517856Y-35488152D02*
X118327380Y-35488152D01*
X118327380Y-35488152D02*
X118232142Y-35535771D01*
X118232142Y-35535771D02*
X118184523Y-35631009D01*
X118184523Y-35631009D02*
X118184523Y-35726247D01*
X118184523Y-35726247D02*
X118660713Y-35821485D01*
X117755951Y-36154819D02*
X117755951Y-35488152D01*
X117755951Y-35678628D02*
X117708332Y-35583390D01*
X117708332Y-35583390D02*
X117660713Y-35535771D01*
X117660713Y-35535771D02*
X117565475Y-35488152D01*
X117565475Y-35488152D02*
X117470237Y-35488152D01*
X107718389Y-56892857D02*
X106718389Y-56892857D01*
X106718389Y-56892857D02*
X107432674Y-57226190D01*
X107432674Y-57226190D02*
X106718389Y-57559523D01*
X106718389Y-57559523D02*
X107718389Y-57559523D01*
X107718389Y-58035714D02*
X106718389Y-58035714D01*
X106718389Y-58035714D02*
X106718389Y-58416666D01*
X106718389Y-58416666D02*
X106766008Y-58511904D01*
X106766008Y-58511904D02*
X106813627Y-58559523D01*
X106813627Y-58559523D02*
X106908865Y-58607142D01*
X106908865Y-58607142D02*
X107051722Y-58607142D01*
X107051722Y-58607142D02*
X107146960Y-58559523D01*
X107146960Y-58559523D02*
X107194579Y-58511904D01*
X107194579Y-58511904D02*
X107242198Y-58416666D01*
X107242198Y-58416666D02*
X107242198Y-58035714D01*
X106718389Y-59035714D02*
X107527912Y-59035714D01*
X107527912Y-59035714D02*
X107623150Y-59083333D01*
X107623150Y-59083333D02*
X107670770Y-59130952D01*
X107670770Y-59130952D02*
X107718389Y-59226190D01*
X107718389Y-59226190D02*
X107718389Y-59416666D01*
X107718389Y-59416666D02*
X107670770Y-59511904D01*
X107670770Y-59511904D02*
X107623150Y-59559523D01*
X107623150Y-59559523D02*
X107527912Y-59607142D01*
X107527912Y-59607142D02*
X106718389Y-59607142D01*
X109440475Y-45157200D02*
X109297618Y-45204819D01*
X109297618Y-45204819D02*
X109059523Y-45204819D01*
X109059523Y-45204819D02*
X108964285Y-45157200D01*
X108964285Y-45157200D02*
X108916666Y-45109580D01*
X108916666Y-45109580D02*
X108869047Y-45014342D01*
X108869047Y-45014342D02*
X108869047Y-44919104D01*
X108869047Y-44919104D02*
X108916666Y-44823866D01*
X108916666Y-44823866D02*
X108964285Y-44776247D01*
X108964285Y-44776247D02*
X109059523Y-44728628D01*
X109059523Y-44728628D02*
X109249999Y-44681009D01*
X109249999Y-44681009D02*
X109345237Y-44633390D01*
X109345237Y-44633390D02*
X109392856Y-44585771D01*
X109392856Y-44585771D02*
X109440475Y-44490533D01*
X109440475Y-44490533D02*
X109440475Y-44395295D01*
X109440475Y-44395295D02*
X109392856Y-44300057D01*
X109392856Y-44300057D02*
X109345237Y-44252438D01*
X109345237Y-44252438D02*
X109249999Y-44204819D01*
X109249999Y-44204819D02*
X109011904Y-44204819D01*
X109011904Y-44204819D02*
X108869047Y-44252438D01*
X108440475Y-45204819D02*
X108440475Y-44204819D01*
X108440475Y-44204819D02*
X108059523Y-44204819D01*
X108059523Y-44204819D02*
X107964285Y-44252438D01*
X107964285Y-44252438D02*
X107916666Y-44300057D01*
X107916666Y-44300057D02*
X107869047Y-44395295D01*
X107869047Y-44395295D02*
X107869047Y-44538152D01*
X107869047Y-44538152D02*
X107916666Y-44633390D01*
X107916666Y-44633390D02*
X107964285Y-44681009D01*
X107964285Y-44681009D02*
X108059523Y-44728628D01*
X108059523Y-44728628D02*
X108440475Y-44728628D01*
X106964285Y-45204819D02*
X107440475Y-45204819D01*
X107440475Y-45204819D02*
X107440475Y-44204819D01*
X142422619Y-67954819D02*
X142755952Y-67478628D01*
X142994047Y-67954819D02*
X142994047Y-66954819D01*
X142994047Y-66954819D02*
X142613095Y-66954819D01*
X142613095Y-66954819D02*
X142517857Y-67002438D01*
X142517857Y-67002438D02*
X142470238Y-67050057D01*
X142470238Y-67050057D02*
X142422619Y-67145295D01*
X142422619Y-67145295D02*
X142422619Y-67288152D01*
X142422619Y-67288152D02*
X142470238Y-67383390D01*
X142470238Y-67383390D02*
X142517857Y-67431009D01*
X142517857Y-67431009D02*
X142613095Y-67478628D01*
X142613095Y-67478628D02*
X142994047Y-67478628D01*
X142041666Y-67907200D02*
X141898809Y-67954819D01*
X141898809Y-67954819D02*
X141660714Y-67954819D01*
X141660714Y-67954819D02*
X141565476Y-67907200D01*
X141565476Y-67907200D02*
X141517857Y-67859580D01*
X141517857Y-67859580D02*
X141470238Y-67764342D01*
X141470238Y-67764342D02*
X141470238Y-67669104D01*
X141470238Y-67669104D02*
X141517857Y-67573866D01*
X141517857Y-67573866D02*
X141565476Y-67526247D01*
X141565476Y-67526247D02*
X141660714Y-67478628D01*
X141660714Y-67478628D02*
X141851190Y-67431009D01*
X141851190Y-67431009D02*
X141946428Y-67383390D01*
X141946428Y-67383390D02*
X141994047Y-67335771D01*
X141994047Y-67335771D02*
X142041666Y-67240533D01*
X142041666Y-67240533D02*
X142041666Y-67145295D01*
X142041666Y-67145295D02*
X141994047Y-67050057D01*
X141994047Y-67050057D02*
X141946428Y-67002438D01*
X141946428Y-67002438D02*
X141851190Y-66954819D01*
X141851190Y-66954819D02*
X141613095Y-66954819D01*
X141613095Y-66954819D02*
X141470238Y-67002438D01*
X141184523Y-66954819D02*
X140613095Y-66954819D01*
X140898809Y-67954819D02*
X140898809Y-66954819D01*
X122940475Y-74954819D02*
X122940475Y-73954819D01*
X122940475Y-73954819D02*
X122559523Y-73954819D01*
X122559523Y-73954819D02*
X122464285Y-74002438D01*
X122464285Y-74002438D02*
X122416666Y-74050057D01*
X122416666Y-74050057D02*
X122369047Y-74145295D01*
X122369047Y-74145295D02*
X122369047Y-74288152D01*
X122369047Y-74288152D02*
X122416666Y-74383390D01*
X122416666Y-74383390D02*
X122464285Y-74431009D01*
X122464285Y-74431009D02*
X122559523Y-74478628D01*
X122559523Y-74478628D02*
X122940475Y-74478628D01*
X121988094Y-74669104D02*
X121511904Y-74669104D01*
X122083332Y-74954819D02*
X121749999Y-73954819D01*
X121749999Y-73954819D02*
X121416666Y-74954819D01*
X121083332Y-74954819D02*
X121083332Y-73954819D01*
X121083332Y-73954819D02*
X120845237Y-73954819D01*
X120845237Y-73954819D02*
X120702380Y-74002438D01*
X120702380Y-74002438D02*
X120607142Y-74097676D01*
X120607142Y-74097676D02*
X120559523Y-74192914D01*
X120559523Y-74192914D02*
X120511904Y-74383390D01*
X120511904Y-74383390D02*
X120511904Y-74526247D01*
X120511904Y-74526247D02*
X120559523Y-74716723D01*
X120559523Y-74716723D02*
X120607142Y-74811961D01*
X120607142Y-74811961D02*
X120702380Y-74907200D01*
X120702380Y-74907200D02*
X120845237Y-74954819D01*
X120845237Y-74954819D02*
X121083332Y-74954819D01*
X56434523Y-127154819D02*
X56434523Y-127869104D01*
X56434523Y-127869104D02*
X56482142Y-128011961D01*
X56482142Y-128011961D02*
X56577380Y-128107200D01*
X56577380Y-128107200D02*
X56720237Y-128154819D01*
X56720237Y-128154819D02*
X56815475Y-128154819D01*
X55434523Y-128154819D02*
X56005951Y-128154819D01*
X55720237Y-128154819D02*
X55720237Y-127154819D01*
X55720237Y-127154819D02*
X55815475Y-127297676D01*
X55815475Y-127297676D02*
X55910713Y-127392914D01*
X55910713Y-127392914D02*
X56005951Y-127440533D01*
X54529761Y-127154819D02*
X55005951Y-127154819D01*
X55005951Y-127154819D02*
X55053570Y-127631009D01*
X55053570Y-127631009D02*
X55005951Y-127583390D01*
X55005951Y-127583390D02*
X54910713Y-127535771D01*
X54910713Y-127535771D02*
X54672618Y-127535771D01*
X54672618Y-127535771D02*
X54577380Y-127583390D01*
X54577380Y-127583390D02*
X54529761Y-127631009D01*
X54529761Y-127631009D02*
X54482142Y-127726247D01*
X54482142Y-127726247D02*
X54482142Y-127964342D01*
X54482142Y-127964342D02*
X54529761Y-128059580D01*
X54529761Y-128059580D02*
X54577380Y-128107200D01*
X54577380Y-128107200D02*
X54672618Y-128154819D01*
X54672618Y-128154819D02*
X54910713Y-128154819D01*
X54910713Y-128154819D02*
X55005951Y-128107200D01*
X55005951Y-128107200D02*
X55053570Y-128059580D01*
X89204819Y-61607142D02*
X88728628Y-61273809D01*
X89204819Y-61035714D02*
X88204819Y-61035714D01*
X88204819Y-61035714D02*
X88204819Y-61416666D01*
X88204819Y-61416666D02*
X88252438Y-61511904D01*
X88252438Y-61511904D02*
X88300057Y-61559523D01*
X88300057Y-61559523D02*
X88395295Y-61607142D01*
X88395295Y-61607142D02*
X88538152Y-61607142D01*
X88538152Y-61607142D02*
X88633390Y-61559523D01*
X88633390Y-61559523D02*
X88681009Y-61511904D01*
X88681009Y-61511904D02*
X88728628Y-61416666D01*
X88728628Y-61416666D02*
X88728628Y-61035714D01*
X88204819Y-62035714D02*
X89014342Y-62035714D01*
X89014342Y-62035714D02*
X89109580Y-62083333D01*
X89109580Y-62083333D02*
X89157200Y-62130952D01*
X89157200Y-62130952D02*
X89204819Y-62226190D01*
X89204819Y-62226190D02*
X89204819Y-62416666D01*
X89204819Y-62416666D02*
X89157200Y-62511904D01*
X89157200Y-62511904D02*
X89109580Y-62559523D01*
X89109580Y-62559523D02*
X89014342Y-62607142D01*
X89014342Y-62607142D02*
X88204819Y-62607142D01*
X89204819Y-63083333D02*
X88204819Y-63083333D01*
X88204819Y-63083333D02*
X88919104Y-63416666D01*
X88919104Y-63416666D02*
X88204819Y-63749999D01*
X88204819Y-63749999D02*
X89204819Y-63749999D01*
X88681009Y-64559523D02*
X88728628Y-64702380D01*
X88728628Y-64702380D02*
X88776247Y-64749999D01*
X88776247Y-64749999D02*
X88871485Y-64797618D01*
X88871485Y-64797618D02*
X89014342Y-64797618D01*
X89014342Y-64797618D02*
X89109580Y-64749999D01*
X89109580Y-64749999D02*
X89157200Y-64702380D01*
X89157200Y-64702380D02*
X89204819Y-64607142D01*
X89204819Y-64607142D02*
X89204819Y-64226190D01*
X89204819Y-64226190D02*
X88204819Y-64226190D01*
X88204819Y-64226190D02*
X88204819Y-64559523D01*
X88204819Y-64559523D02*
X88252438Y-64654761D01*
X88252438Y-64654761D02*
X88300057Y-64702380D01*
X88300057Y-64702380D02*
X88395295Y-64749999D01*
X88395295Y-64749999D02*
X88490533Y-64749999D01*
X88490533Y-64749999D02*
X88585771Y-64702380D01*
X88585771Y-64702380D02*
X88633390Y-64654761D01*
X88633390Y-64654761D02*
X88681009Y-64559523D01*
X88681009Y-64559523D02*
X88681009Y-64226190D01*
X89204819Y-65702380D02*
X89204819Y-65226190D01*
X89204819Y-65226190D02*
X88204819Y-65226190D01*
X88681009Y-66035714D02*
X88681009Y-66369047D01*
X89204819Y-66511904D02*
X89204819Y-66035714D01*
X89204819Y-66035714D02*
X88204819Y-66035714D01*
X88204819Y-66035714D02*
X88204819Y-66511904D01*
X88476190Y-38724819D02*
X88476190Y-39439104D01*
X88476190Y-39439104D02*
X88523809Y-39581961D01*
X88523809Y-39581961D02*
X88619047Y-39677200D01*
X88619047Y-39677200D02*
X88761904Y-39724819D01*
X88761904Y-39724819D02*
X88857142Y-39724819D01*
X88142856Y-38724819D02*
X87809523Y-39724819D01*
X87809523Y-39724819D02*
X87476190Y-38724819D01*
X87142856Y-39724819D02*
X87142856Y-39058152D01*
X87142856Y-38724819D02*
X87190475Y-38772438D01*
X87190475Y-38772438D02*
X87142856Y-38820057D01*
X87142856Y-38820057D02*
X87095237Y-38772438D01*
X87095237Y-38772438D02*
X87142856Y-38724819D01*
X87142856Y-38724819D02*
X87142856Y-38820057D01*
X86666666Y-39058152D02*
X86666666Y-39724819D01*
X86666666Y-39153390D02*
X86619047Y-39105771D01*
X86619047Y-39105771D02*
X86523809Y-39058152D01*
X86523809Y-39058152D02*
X86380952Y-39058152D01*
X86380952Y-39058152D02*
X86285714Y-39105771D01*
X86285714Y-39105771D02*
X86238095Y-39201009D01*
X86238095Y-39201009D02*
X86238095Y-39724819D01*
X63359580Y-25952380D02*
X63407200Y-25904761D01*
X63407200Y-25904761D02*
X63454819Y-25761904D01*
X63454819Y-25761904D02*
X63454819Y-25666666D01*
X63454819Y-25666666D02*
X63407200Y-25523809D01*
X63407200Y-25523809D02*
X63311961Y-25428571D01*
X63311961Y-25428571D02*
X63216723Y-25380952D01*
X63216723Y-25380952D02*
X63026247Y-25333333D01*
X63026247Y-25333333D02*
X62883390Y-25333333D01*
X62883390Y-25333333D02*
X62692914Y-25380952D01*
X62692914Y-25380952D02*
X62597676Y-25428571D01*
X62597676Y-25428571D02*
X62502438Y-25523809D01*
X62502438Y-25523809D02*
X62454819Y-25666666D01*
X62454819Y-25666666D02*
X62454819Y-25761904D01*
X62454819Y-25761904D02*
X62502438Y-25904761D01*
X62502438Y-25904761D02*
X62550057Y-25952380D01*
X63169104Y-26333333D02*
X63169104Y-26809523D01*
X63454819Y-26238095D02*
X62454819Y-26571428D01*
X62454819Y-26571428D02*
X63454819Y-26904761D01*
X63454819Y-27238095D02*
X62454819Y-27238095D01*
X62454819Y-27238095D02*
X62454819Y-27619047D01*
X62454819Y-27619047D02*
X62502438Y-27714285D01*
X62502438Y-27714285D02*
X62550057Y-27761904D01*
X62550057Y-27761904D02*
X62645295Y-27809523D01*
X62645295Y-27809523D02*
X62788152Y-27809523D01*
X62788152Y-27809523D02*
X62883390Y-27761904D01*
X62883390Y-27761904D02*
X62931009Y-27714285D01*
X62931009Y-27714285D02*
X62978628Y-27619047D01*
X62978628Y-27619047D02*
X62978628Y-27238095D01*
X63359580Y-28380952D02*
X63407200Y-28428571D01*
X63407200Y-28428571D02*
X63454819Y-28380952D01*
X63454819Y-28380952D02*
X63407200Y-28333333D01*
X63407200Y-28333333D02*
X63359580Y-28380952D01*
X63359580Y-28380952D02*
X63454819Y-28380952D01*
X62502438Y-28190476D02*
X62454819Y-28285714D01*
X62454819Y-28285714D02*
X62454819Y-28523809D01*
X62454819Y-28523809D02*
X62502438Y-28619047D01*
X62502438Y-28619047D02*
X62597676Y-28666666D01*
X62597676Y-28666666D02*
X62692914Y-28666666D01*
X62692914Y-28666666D02*
X62788152Y-28619047D01*
X62788152Y-28619047D02*
X62835771Y-28571428D01*
X62835771Y-28571428D02*
X62883390Y-28476190D01*
X62883390Y-28476190D02*
X62931009Y-28428571D01*
X62931009Y-28428571D02*
X63026247Y-28380952D01*
X63026247Y-28380952D02*
X63073866Y-28380952D01*
X56728232Y-30833393D02*
X57233308Y-31338469D01*
X57233308Y-31338469D02*
X57367995Y-31405813D01*
X57367995Y-31405813D02*
X57502682Y-31405813D01*
X57502682Y-31405813D02*
X57637369Y-31338469D01*
X57637369Y-31338469D02*
X57704713Y-31271126D01*
X56492529Y-31203782D02*
X56425186Y-31203782D01*
X56425186Y-31203782D02*
X56324171Y-31237454D01*
X56324171Y-31237454D02*
X56155812Y-31405813D01*
X56155812Y-31405813D02*
X56122140Y-31506828D01*
X56122140Y-31506828D02*
X56122140Y-31574172D01*
X56122140Y-31574172D02*
X56155812Y-31675187D01*
X56155812Y-31675187D02*
X56223155Y-31742530D01*
X56223155Y-31742530D02*
X56357842Y-31809874D01*
X56357842Y-31809874D02*
X57165964Y-31809874D01*
X57165964Y-31809874D02*
X56728232Y-32247607D01*
X56391514Y-32584324D02*
X56256827Y-32719011D01*
X56256827Y-32719011D02*
X56155812Y-32752683D01*
X56155812Y-32752683D02*
X56088468Y-32752683D01*
X56088468Y-32752683D02*
X55920110Y-32719011D01*
X55920110Y-32719011D02*
X55751751Y-32617996D01*
X55751751Y-32617996D02*
X55482377Y-32348622D01*
X55482377Y-32348622D02*
X55448705Y-32247607D01*
X55448705Y-32247607D02*
X55448705Y-32180263D01*
X55448705Y-32180263D02*
X55482377Y-32079248D01*
X55482377Y-32079248D02*
X55617064Y-31944561D01*
X55617064Y-31944561D02*
X55718079Y-31910889D01*
X55718079Y-31910889D02*
X55785423Y-31910889D01*
X55785423Y-31910889D02*
X55886438Y-31944561D01*
X55886438Y-31944561D02*
X56054797Y-32112920D01*
X56054797Y-32112920D02*
X56088468Y-32213935D01*
X56088468Y-32213935D02*
X56088468Y-32281278D01*
X56088468Y-32281278D02*
X56054797Y-32382294D01*
X56054797Y-32382294D02*
X55920110Y-32516981D01*
X55920110Y-32516981D02*
X55819094Y-32550652D01*
X55819094Y-32550652D02*
X55751751Y-32550652D01*
X55751751Y-32550652D02*
X55650736Y-32516981D01*
X67645604Y-67000765D02*
X68150680Y-67505841D01*
X68150680Y-67505841D02*
X68285367Y-67573185D01*
X68285367Y-67573185D02*
X68420054Y-67573185D01*
X68420054Y-67573185D02*
X68554741Y-67505841D01*
X68554741Y-67505841D02*
X68622085Y-67438498D01*
X67409901Y-67371154D02*
X67342558Y-67371154D01*
X67342558Y-67371154D02*
X67241543Y-67404826D01*
X67241543Y-67404826D02*
X67073184Y-67573185D01*
X67073184Y-67573185D02*
X67039512Y-67674200D01*
X67039512Y-67674200D02*
X67039512Y-67741544D01*
X67039512Y-67741544D02*
X67073184Y-67842559D01*
X67073184Y-67842559D02*
X67140527Y-67909902D01*
X67140527Y-67909902D02*
X67275214Y-67977246D01*
X67275214Y-67977246D02*
X68083336Y-67977246D01*
X68083336Y-67977246D02*
X67645604Y-68414979D01*
X66837482Y-68414979D02*
X66871153Y-68313963D01*
X66871153Y-68313963D02*
X66871153Y-68246620D01*
X66871153Y-68246620D02*
X66837482Y-68145605D01*
X66837482Y-68145605D02*
X66803810Y-68111933D01*
X66803810Y-68111933D02*
X66702795Y-68078261D01*
X66702795Y-68078261D02*
X66635451Y-68078261D01*
X66635451Y-68078261D02*
X66534436Y-68111933D01*
X66534436Y-68111933D02*
X66399749Y-68246620D01*
X66399749Y-68246620D02*
X66366077Y-68347635D01*
X66366077Y-68347635D02*
X66366077Y-68414979D01*
X66366077Y-68414979D02*
X66399749Y-68515994D01*
X66399749Y-68515994D02*
X66433421Y-68549666D01*
X66433421Y-68549666D02*
X66534436Y-68583337D01*
X66534436Y-68583337D02*
X66601779Y-68583337D01*
X66601779Y-68583337D02*
X66702795Y-68549666D01*
X66702795Y-68549666D02*
X66837482Y-68414979D01*
X66837482Y-68414979D02*
X66938497Y-68381307D01*
X66938497Y-68381307D02*
X67005840Y-68381307D01*
X67005840Y-68381307D02*
X67106856Y-68414979D01*
X67106856Y-68414979D02*
X67241543Y-68549666D01*
X67241543Y-68549666D02*
X67275214Y-68650681D01*
X67275214Y-68650681D02*
X67275214Y-68718024D01*
X67275214Y-68718024D02*
X67241543Y-68819040D01*
X67241543Y-68819040D02*
X67106856Y-68953727D01*
X67106856Y-68953727D02*
X67005840Y-68987398D01*
X67005840Y-68987398D02*
X66938497Y-68987398D01*
X66938497Y-68987398D02*
X66837482Y-68953727D01*
X66837482Y-68953727D02*
X66702795Y-68819040D01*
X66702795Y-68819040D02*
X66669123Y-68718024D01*
X66669123Y-68718024D02*
X66669123Y-68650681D01*
X66669123Y-68650681D02*
X66702795Y-68549666D01*
X40540505Y-59590036D02*
X41247612Y-58882929D01*
X40877223Y-58647227D02*
X40877223Y-58579883D01*
X40877223Y-58579883D02*
X40843551Y-58478868D01*
X40843551Y-58478868D02*
X40675193Y-58310509D01*
X40675193Y-58310509D02*
X40574177Y-58276838D01*
X40574177Y-58276838D02*
X40506834Y-58276838D01*
X40506834Y-58276838D02*
X40405819Y-58310509D01*
X40405819Y-58310509D02*
X40338475Y-58377853D01*
X40338475Y-58377853D02*
X40271132Y-58512540D01*
X40271132Y-58512540D02*
X40271132Y-59320662D01*
X40271132Y-59320662D02*
X39833399Y-58882929D01*
X39193636Y-58108479D02*
X39193636Y-58175822D01*
X39193636Y-58175822D02*
X39260979Y-58310509D01*
X39260979Y-58310509D02*
X39328323Y-58377853D01*
X39328323Y-58377853D02*
X39463010Y-58445196D01*
X39463010Y-58445196D02*
X39597697Y-58445196D01*
X39597697Y-58445196D02*
X39698712Y-58411525D01*
X39698712Y-58411525D02*
X39867071Y-58310509D01*
X39867071Y-58310509D02*
X39968086Y-58209494D01*
X39968086Y-58209494D02*
X40069101Y-58041135D01*
X40069101Y-58041135D02*
X40102773Y-57940120D01*
X40102773Y-57940120D02*
X40102773Y-57805433D01*
X40102773Y-57805433D02*
X40035429Y-57670746D01*
X40035429Y-57670746D02*
X39968086Y-57603402D01*
X39968086Y-57603402D02*
X39833399Y-57536059D01*
X39833399Y-57536059D02*
X39766055Y-57536059D01*
X51726190Y-32454819D02*
X52059523Y-31978628D01*
X52297618Y-32454819D02*
X52297618Y-31454819D01*
X52297618Y-31454819D02*
X51916666Y-31454819D01*
X51916666Y-31454819D02*
X51821428Y-31502438D01*
X51821428Y-31502438D02*
X51773809Y-31550057D01*
X51773809Y-31550057D02*
X51726190Y-31645295D01*
X51726190Y-31645295D02*
X51726190Y-31788152D01*
X51726190Y-31788152D02*
X51773809Y-31883390D01*
X51773809Y-31883390D02*
X51821428Y-31931009D01*
X51821428Y-31931009D02*
X51916666Y-31978628D01*
X51916666Y-31978628D02*
X52297618Y-31978628D01*
X51535714Y-32550057D02*
X50773809Y-32550057D01*
X50583332Y-32407200D02*
X50440475Y-32454819D01*
X50440475Y-32454819D02*
X50202380Y-32454819D01*
X50202380Y-32454819D02*
X50107142Y-32407200D01*
X50107142Y-32407200D02*
X50059523Y-32359580D01*
X50059523Y-32359580D02*
X50011904Y-32264342D01*
X50011904Y-32264342D02*
X50011904Y-32169104D01*
X50011904Y-32169104D02*
X50059523Y-32073866D01*
X50059523Y-32073866D02*
X50107142Y-32026247D01*
X50107142Y-32026247D02*
X50202380Y-31978628D01*
X50202380Y-31978628D02*
X50392856Y-31931009D01*
X50392856Y-31931009D02*
X50488094Y-31883390D01*
X50488094Y-31883390D02*
X50535713Y-31835771D01*
X50535713Y-31835771D02*
X50583332Y-31740533D01*
X50583332Y-31740533D02*
X50583332Y-31645295D01*
X50583332Y-31645295D02*
X50535713Y-31550057D01*
X50535713Y-31550057D02*
X50488094Y-31502438D01*
X50488094Y-31502438D02*
X50392856Y-31454819D01*
X50392856Y-31454819D02*
X50154761Y-31454819D01*
X50154761Y-31454819D02*
X50011904Y-31502438D01*
X49583332Y-32454819D02*
X49583332Y-31454819D01*
X49583332Y-31931009D02*
X49011904Y-31931009D01*
X49011904Y-32454819D02*
X49011904Y-31454819D01*
X48345237Y-31454819D02*
X48154761Y-31454819D01*
X48154761Y-31454819D02*
X48059523Y-31502438D01*
X48059523Y-31502438D02*
X47964285Y-31597676D01*
X47964285Y-31597676D02*
X47916666Y-31788152D01*
X47916666Y-31788152D02*
X47916666Y-32121485D01*
X47916666Y-32121485D02*
X47964285Y-32311961D01*
X47964285Y-32311961D02*
X48059523Y-32407200D01*
X48059523Y-32407200D02*
X48154761Y-32454819D01*
X48154761Y-32454819D02*
X48345237Y-32454819D01*
X48345237Y-32454819D02*
X48440475Y-32407200D01*
X48440475Y-32407200D02*
X48535713Y-32311961D01*
X48535713Y-32311961D02*
X48583332Y-32121485D01*
X48583332Y-32121485D02*
X48583332Y-31788152D01*
X48583332Y-31788152D02*
X48535713Y-31597676D01*
X48535713Y-31597676D02*
X48440475Y-31502438D01*
X48440475Y-31502438D02*
X48345237Y-31454819D01*
X47488094Y-31454819D02*
X47488094Y-32264342D01*
X47488094Y-32264342D02*
X47440475Y-32359580D01*
X47440475Y-32359580D02*
X47392856Y-32407200D01*
X47392856Y-32407200D02*
X47297618Y-32454819D01*
X47297618Y-32454819D02*
X47107142Y-32454819D01*
X47107142Y-32454819D02*
X47011904Y-32407200D01*
X47011904Y-32407200D02*
X46964285Y-32359580D01*
X46964285Y-32359580D02*
X46916666Y-32264342D01*
X46916666Y-32264342D02*
X46916666Y-31454819D01*
X45964285Y-32454819D02*
X46440475Y-32454819D01*
X46440475Y-32454819D02*
X46440475Y-31454819D01*
X45630951Y-32454819D02*
X45630951Y-31454819D01*
X45630951Y-31454819D02*
X45392856Y-31454819D01*
X45392856Y-31454819D02*
X45249999Y-31502438D01*
X45249999Y-31502438D02*
X45154761Y-31597676D01*
X45154761Y-31597676D02*
X45107142Y-31692914D01*
X45107142Y-31692914D02*
X45059523Y-31883390D01*
X45059523Y-31883390D02*
X45059523Y-32026247D01*
X45059523Y-32026247D02*
X45107142Y-32216723D01*
X45107142Y-32216723D02*
X45154761Y-32311961D01*
X45154761Y-32311961D02*
X45249999Y-32407200D01*
X45249999Y-32407200D02*
X45392856Y-32454819D01*
X45392856Y-32454819D02*
X45630951Y-32454819D01*
X44630951Y-31931009D02*
X44297618Y-31931009D01*
X44154761Y-32454819D02*
X44630951Y-32454819D01*
X44630951Y-32454819D02*
X44630951Y-31454819D01*
X44630951Y-31454819D02*
X44154761Y-31454819D01*
X43154761Y-32454819D02*
X43488094Y-31978628D01*
X43726189Y-32454819D02*
X43726189Y-31454819D01*
X43726189Y-31454819D02*
X43345237Y-31454819D01*
X43345237Y-31454819D02*
X43249999Y-31502438D01*
X43249999Y-31502438D02*
X43202380Y-31550057D01*
X43202380Y-31550057D02*
X43154761Y-31645295D01*
X43154761Y-31645295D02*
X43154761Y-31788152D01*
X43154761Y-31788152D02*
X43202380Y-31883390D01*
X43202380Y-31883390D02*
X43249999Y-31931009D01*
X43249999Y-31931009D02*
X43345237Y-31978628D01*
X43345237Y-31978628D02*
X43726189Y-31978628D01*
X54442028Y-65491559D02*
X55149135Y-64784452D01*
X55149135Y-64784452D02*
X54879761Y-64515078D01*
X54879761Y-64515078D02*
X54778746Y-64481406D01*
X54778746Y-64481406D02*
X54711402Y-64481406D01*
X54711402Y-64481406D02*
X54610387Y-64515078D01*
X54610387Y-64515078D02*
X54509372Y-64616093D01*
X54509372Y-64616093D02*
X54475700Y-64717108D01*
X54475700Y-64717108D02*
X54475700Y-64784452D01*
X54475700Y-64784452D02*
X54509372Y-64885467D01*
X54509372Y-64885467D02*
X54778746Y-65154841D01*
X53970624Y-64616093D02*
X53633906Y-64279376D01*
X53835937Y-64885467D02*
X54307341Y-63942658D01*
X54307341Y-63942658D02*
X53364532Y-64414063D01*
X53128830Y-64178360D02*
X53835937Y-63471253D01*
X53835937Y-63471253D02*
X53667578Y-63302895D01*
X53667578Y-63302895D02*
X53532891Y-63235551D01*
X53532891Y-63235551D02*
X53398204Y-63235551D01*
X53398204Y-63235551D02*
X53297189Y-63269223D01*
X53297189Y-63269223D02*
X53128830Y-63370238D01*
X53128830Y-63370238D02*
X53027815Y-63471253D01*
X53027815Y-63471253D02*
X52926799Y-63639612D01*
X52926799Y-63639612D02*
X52893128Y-63740627D01*
X52893128Y-63740627D02*
X52893128Y-63875314D01*
X52893128Y-63875314D02*
X52960471Y-64010001D01*
X52960471Y-64010001D02*
X53128830Y-64178360D01*
X63672619Y-70704819D02*
X64005952Y-70228628D01*
X64244047Y-70704819D02*
X64244047Y-69704819D01*
X64244047Y-69704819D02*
X63863095Y-69704819D01*
X63863095Y-69704819D02*
X63767857Y-69752438D01*
X63767857Y-69752438D02*
X63720238Y-69800057D01*
X63720238Y-69800057D02*
X63672619Y-69895295D01*
X63672619Y-69895295D02*
X63672619Y-70038152D01*
X63672619Y-70038152D02*
X63720238Y-70133390D01*
X63720238Y-70133390D02*
X63767857Y-70181009D01*
X63767857Y-70181009D02*
X63863095Y-70228628D01*
X63863095Y-70228628D02*
X64244047Y-70228628D01*
X63291666Y-70657200D02*
X63148809Y-70704819D01*
X63148809Y-70704819D02*
X62910714Y-70704819D01*
X62910714Y-70704819D02*
X62815476Y-70657200D01*
X62815476Y-70657200D02*
X62767857Y-70609580D01*
X62767857Y-70609580D02*
X62720238Y-70514342D01*
X62720238Y-70514342D02*
X62720238Y-70419104D01*
X62720238Y-70419104D02*
X62767857Y-70323866D01*
X62767857Y-70323866D02*
X62815476Y-70276247D01*
X62815476Y-70276247D02*
X62910714Y-70228628D01*
X62910714Y-70228628D02*
X63101190Y-70181009D01*
X63101190Y-70181009D02*
X63196428Y-70133390D01*
X63196428Y-70133390D02*
X63244047Y-70085771D01*
X63244047Y-70085771D02*
X63291666Y-69990533D01*
X63291666Y-69990533D02*
X63291666Y-69895295D01*
X63291666Y-69895295D02*
X63244047Y-69800057D01*
X63244047Y-69800057D02*
X63196428Y-69752438D01*
X63196428Y-69752438D02*
X63101190Y-69704819D01*
X63101190Y-69704819D02*
X62863095Y-69704819D01*
X62863095Y-69704819D02*
X62720238Y-69752438D01*
X62434523Y-69704819D02*
X61863095Y-69704819D01*
X62148809Y-70704819D02*
X62148809Y-69704819D01*
X49246004Y-54381321D02*
X48841943Y-53977260D01*
X48336867Y-54886397D02*
X49043974Y-54179291D01*
X47495073Y-54044603D02*
X48067493Y-53943588D01*
X47899134Y-54448664D02*
X48606241Y-53741558D01*
X48606241Y-53741558D02*
X48336867Y-53472184D01*
X48336867Y-53472184D02*
X48235852Y-53438512D01*
X48235852Y-53438512D02*
X48168508Y-53438512D01*
X48168508Y-53438512D02*
X48067493Y-53472184D01*
X48067493Y-53472184D02*
X47966478Y-53573199D01*
X47966478Y-53573199D02*
X47932806Y-53674214D01*
X47932806Y-53674214D02*
X47932806Y-53741558D01*
X47932806Y-53741558D02*
X47966478Y-53842573D01*
X47966478Y-53842573D02*
X48235852Y-54111947D01*
X47427730Y-53573199D02*
X47091012Y-53236481D01*
X47293043Y-53842573D02*
X47764447Y-52899764D01*
X47764447Y-52899764D02*
X46821638Y-53371168D01*
X46249218Y-52664061D02*
X46249218Y-52731405D01*
X46249218Y-52731405D02*
X46316562Y-52866092D01*
X46316562Y-52866092D02*
X46383905Y-52933435D01*
X46383905Y-52933435D02*
X46518592Y-53000779D01*
X46518592Y-53000779D02*
X46653279Y-53000779D01*
X46653279Y-53000779D02*
X46754294Y-52967107D01*
X46754294Y-52967107D02*
X46922653Y-52866092D01*
X46922653Y-52866092D02*
X47023668Y-52765077D01*
X47023668Y-52765077D02*
X47124684Y-52596718D01*
X47124684Y-52596718D02*
X47158355Y-52495703D01*
X47158355Y-52495703D02*
X47158355Y-52361016D01*
X47158355Y-52361016D02*
X47091012Y-52226329D01*
X47091012Y-52226329D02*
X47023668Y-52158985D01*
X47023668Y-52158985D02*
X46888981Y-52091642D01*
X46888981Y-52091642D02*
X46821638Y-52091642D01*
X45878829Y-52428359D02*
X46585936Y-51721252D01*
X45474768Y-52024298D02*
X46181875Y-51923283D01*
X46181875Y-51317191D02*
X46181875Y-52125313D01*
X45272737Y-51956955D02*
X44733989Y-51418207D01*
X44767661Y-50576413D02*
X44632974Y-50509069D01*
X44632974Y-50509069D02*
X44565630Y-50509069D01*
X44565630Y-50509069D02*
X44464615Y-50542741D01*
X44464615Y-50542741D02*
X44363600Y-50643756D01*
X44363600Y-50643756D02*
X44329928Y-50744771D01*
X44329928Y-50744771D02*
X44329928Y-50812115D01*
X44329928Y-50812115D02*
X44363600Y-50913130D01*
X44363600Y-50913130D02*
X44632974Y-51182504D01*
X44632974Y-51182504D02*
X45340081Y-50475397D01*
X45340081Y-50475397D02*
X45104378Y-50239695D01*
X45104378Y-50239695D02*
X45003363Y-50206023D01*
X45003363Y-50206023D02*
X44936020Y-50206023D01*
X44936020Y-50206023D02*
X44835004Y-50239695D01*
X44835004Y-50239695D02*
X44767661Y-50307039D01*
X44767661Y-50307039D02*
X44733989Y-50408054D01*
X44733989Y-50408054D02*
X44733989Y-50475397D01*
X44733989Y-50475397D02*
X44767661Y-50576413D01*
X44767661Y-50576413D02*
X45003363Y-50812115D01*
X41083333Y-116879819D02*
X41083333Y-117594104D01*
X41083333Y-117594104D02*
X41130952Y-117736961D01*
X41130952Y-117736961D02*
X41226190Y-117832200D01*
X41226190Y-117832200D02*
X41369047Y-117879819D01*
X41369047Y-117879819D02*
X41464285Y-117879819D01*
X40083333Y-117879819D02*
X40654761Y-117879819D01*
X40369047Y-117879819D02*
X40369047Y-116879819D01*
X40369047Y-116879819D02*
X40464285Y-117022676D01*
X40464285Y-117022676D02*
X40559523Y-117117914D01*
X40559523Y-117117914D02*
X40654761Y-117165533D01*
X28309523Y-117129819D02*
X28309523Y-117844104D01*
X28309523Y-117844104D02*
X28357142Y-117986961D01*
X28357142Y-117986961D02*
X28452380Y-118082200D01*
X28452380Y-118082200D02*
X28595237Y-118129819D01*
X28595237Y-118129819D02*
X28690475Y-118129819D01*
X27880951Y-117225057D02*
X27833332Y-117177438D01*
X27833332Y-117177438D02*
X27738094Y-117129819D01*
X27738094Y-117129819D02*
X27499999Y-117129819D01*
X27499999Y-117129819D02*
X27404761Y-117177438D01*
X27404761Y-117177438D02*
X27357142Y-117225057D01*
X27357142Y-117225057D02*
X27309523Y-117320295D01*
X27309523Y-117320295D02*
X27309523Y-117415533D01*
X27309523Y-117415533D02*
X27357142Y-117558390D01*
X27357142Y-117558390D02*
X27928570Y-118129819D01*
X27928570Y-118129819D02*
X27309523Y-118129819D01*
X26928570Y-117225057D02*
X26880951Y-117177438D01*
X26880951Y-117177438D02*
X26785713Y-117129819D01*
X26785713Y-117129819D02*
X26547618Y-117129819D01*
X26547618Y-117129819D02*
X26452380Y-117177438D01*
X26452380Y-117177438D02*
X26404761Y-117225057D01*
X26404761Y-117225057D02*
X26357142Y-117320295D01*
X26357142Y-117320295D02*
X26357142Y-117415533D01*
X26357142Y-117415533D02*
X26404761Y-117558390D01*
X26404761Y-117558390D02*
X26976189Y-118129819D01*
X26976189Y-118129819D02*
X26357142Y-118129819D01*
X83088333Y-126674819D02*
X83088333Y-127389104D01*
X83088333Y-127389104D02*
X83135952Y-127531961D01*
X83135952Y-127531961D02*
X83231190Y-127627200D01*
X83231190Y-127627200D02*
X83374047Y-127674819D01*
X83374047Y-127674819D02*
X83469285Y-127674819D01*
X82469285Y-127103390D02*
X82564523Y-127055771D01*
X82564523Y-127055771D02*
X82612142Y-127008152D01*
X82612142Y-127008152D02*
X82659761Y-126912914D01*
X82659761Y-126912914D02*
X82659761Y-126865295D01*
X82659761Y-126865295D02*
X82612142Y-126770057D01*
X82612142Y-126770057D02*
X82564523Y-126722438D01*
X82564523Y-126722438D02*
X82469285Y-126674819D01*
X82469285Y-126674819D02*
X82278809Y-126674819D01*
X82278809Y-126674819D02*
X82183571Y-126722438D01*
X82183571Y-126722438D02*
X82135952Y-126770057D01*
X82135952Y-126770057D02*
X82088333Y-126865295D01*
X82088333Y-126865295D02*
X82088333Y-126912914D01*
X82088333Y-126912914D02*
X82135952Y-127008152D01*
X82135952Y-127008152D02*
X82183571Y-127055771D01*
X82183571Y-127055771D02*
X82278809Y-127103390D01*
X82278809Y-127103390D02*
X82469285Y-127103390D01*
X82469285Y-127103390D02*
X82564523Y-127151009D01*
X82564523Y-127151009D02*
X82612142Y-127198628D01*
X82612142Y-127198628D02*
X82659761Y-127293866D01*
X82659761Y-127293866D02*
X82659761Y-127484342D01*
X82659761Y-127484342D02*
X82612142Y-127579580D01*
X82612142Y-127579580D02*
X82564523Y-127627200D01*
X82564523Y-127627200D02*
X82469285Y-127674819D01*
X82469285Y-127674819D02*
X82278809Y-127674819D01*
X82278809Y-127674819D02*
X82183571Y-127627200D01*
X82183571Y-127627200D02*
X82135952Y-127579580D01*
X82135952Y-127579580D02*
X82088333Y-127484342D01*
X82088333Y-127484342D02*
X82088333Y-127293866D01*
X82088333Y-127293866D02*
X82135952Y-127198628D01*
X82135952Y-127198628D02*
X82183571Y-127151009D01*
X82183571Y-127151009D02*
X82278809Y-127103390D01*
X80654762Y-70054819D02*
X80988095Y-69578628D01*
X81226190Y-70054819D02*
X81226190Y-69054819D01*
X81226190Y-69054819D02*
X80845238Y-69054819D01*
X80845238Y-69054819D02*
X80750000Y-69102438D01*
X80750000Y-69102438D02*
X80702381Y-69150057D01*
X80702381Y-69150057D02*
X80654762Y-69245295D01*
X80654762Y-69245295D02*
X80654762Y-69388152D01*
X80654762Y-69388152D02*
X80702381Y-69483390D01*
X80702381Y-69483390D02*
X80750000Y-69531009D01*
X80750000Y-69531009D02*
X80845238Y-69578628D01*
X80845238Y-69578628D02*
X81226190Y-69578628D01*
X80464286Y-70150057D02*
X79702381Y-70150057D01*
X79178571Y-69054819D02*
X79178571Y-69769104D01*
X79178571Y-69769104D02*
X79226190Y-69911961D01*
X79226190Y-69911961D02*
X79321428Y-70007200D01*
X79321428Y-70007200D02*
X79464285Y-70054819D01*
X79464285Y-70054819D02*
X79559523Y-70054819D01*
X78511904Y-69054819D02*
X78321428Y-69054819D01*
X78321428Y-69054819D02*
X78226190Y-69102438D01*
X78226190Y-69102438D02*
X78130952Y-69197676D01*
X78130952Y-69197676D02*
X78083333Y-69388152D01*
X78083333Y-69388152D02*
X78083333Y-69721485D01*
X78083333Y-69721485D02*
X78130952Y-69911961D01*
X78130952Y-69911961D02*
X78226190Y-70007200D01*
X78226190Y-70007200D02*
X78321428Y-70054819D01*
X78321428Y-70054819D02*
X78511904Y-70054819D01*
X78511904Y-70054819D02*
X78607142Y-70007200D01*
X78607142Y-70007200D02*
X78702380Y-69911961D01*
X78702380Y-69911961D02*
X78749999Y-69721485D01*
X78749999Y-69721485D02*
X78749999Y-69388152D01*
X78749999Y-69388152D02*
X78702380Y-69197676D01*
X78702380Y-69197676D02*
X78607142Y-69102438D01*
X78607142Y-69102438D02*
X78511904Y-69054819D01*
X77464285Y-69578628D02*
X77464285Y-70054819D01*
X77797618Y-69054819D02*
X77464285Y-69578628D01*
X77464285Y-69578628D02*
X77130952Y-69054819D01*
X70434523Y-126904819D02*
X70434523Y-127619104D01*
X70434523Y-127619104D02*
X70482142Y-127761961D01*
X70482142Y-127761961D02*
X70577380Y-127857200D01*
X70577380Y-127857200D02*
X70720237Y-127904819D01*
X70720237Y-127904819D02*
X70815475Y-127904819D01*
X69434523Y-127904819D02*
X70005951Y-127904819D01*
X69720237Y-127904819D02*
X69720237Y-126904819D01*
X69720237Y-126904819D02*
X69815475Y-127047676D01*
X69815475Y-127047676D02*
X69910713Y-127142914D01*
X69910713Y-127142914D02*
X70005951Y-127190533D01*
X68577380Y-126904819D02*
X68767856Y-126904819D01*
X68767856Y-126904819D02*
X68863094Y-126952438D01*
X68863094Y-126952438D02*
X68910713Y-127000057D01*
X68910713Y-127000057D02*
X69005951Y-127142914D01*
X69005951Y-127142914D02*
X69053570Y-127333390D01*
X69053570Y-127333390D02*
X69053570Y-127714342D01*
X69053570Y-127714342D02*
X69005951Y-127809580D01*
X69005951Y-127809580D02*
X68958332Y-127857200D01*
X68958332Y-127857200D02*
X68863094Y-127904819D01*
X68863094Y-127904819D02*
X68672618Y-127904819D01*
X68672618Y-127904819D02*
X68577380Y-127857200D01*
X68577380Y-127857200D02*
X68529761Y-127809580D01*
X68529761Y-127809580D02*
X68482142Y-127714342D01*
X68482142Y-127714342D02*
X68482142Y-127476247D01*
X68482142Y-127476247D02*
X68529761Y-127381009D01*
X68529761Y-127381009D02*
X68577380Y-127333390D01*
X68577380Y-127333390D02*
X68672618Y-127285771D01*
X68672618Y-127285771D02*
X68863094Y-127285771D01*
X68863094Y-127285771D02*
X68958332Y-127333390D01*
X68958332Y-127333390D02*
X69005951Y-127381009D01*
X69005951Y-127381009D02*
X69053570Y-127476247D01*
D12*
%TO.C,Vin*%
X131605000Y-71620000D02*
X128945000Y-71620000D01*
X131605000Y-69020000D02*
X131605000Y-71620000D01*
X131605000Y-69020000D02*
X128945000Y-69020000D01*
X130275000Y-66420000D02*
X128945000Y-66420000D01*
X128945000Y-69020000D02*
X128945000Y-71620000D01*
X128945000Y-66420000D02*
X128945000Y-67750000D01*
%TO.C,J31*%
X134104913Y-30145087D02*
X133164461Y-29204635D01*
X133206887Y-32924017D02*
X131325983Y-31043113D01*
X133206887Y-32924017D02*
X113407898Y-52723007D01*
X133164461Y-29204635D02*
X132224009Y-30145087D01*
X131325983Y-31043113D02*
X111526993Y-50842102D01*
X113407898Y-52723007D02*
X111526993Y-50842102D01*
D13*
%TO.C,U2*%
X146060547Y-36806027D02*
G75*
G02*
X139953973Y-30699453I14020422J20126996D01*
G01*
X148350512Y-40981846D02*
X146554461Y-42777898D01*
X146060547Y-36806027D02*
X139953973Y-30699453D01*
X145656435Y-38287769D02*
X148350512Y-40981846D01*
X140896900Y-41969675D02*
X146060547Y-36806027D01*
X139953973Y-30699453D02*
X134790325Y-35863100D01*
X138472231Y-31103565D02*
X135778154Y-28409488D01*
X135778154Y-28409488D02*
X133982102Y-30205539D01*
X134790325Y-35863100D02*
X140896900Y-41969675D01*
X132096249Y-51668351D02*
X125091649Y-51668351D01*
X132096249Y-44663751D02*
X132096249Y-51668351D01*
X125091649Y-51668351D02*
X125091649Y-44663751D01*
X125091649Y-44663751D02*
X132096249Y-44663751D01*
X112429488Y-51758154D02*
X125001846Y-64330512D01*
D12*
%TO.C,J30*%
X146697015Y-42802985D02*
X145756563Y-41862533D01*
X145798989Y-45581915D02*
X143918085Y-43701011D01*
X145798989Y-45581915D02*
X126000000Y-65380905D01*
X145756563Y-41862533D02*
X144816111Y-42802985D01*
X143918085Y-43701011D02*
X124119095Y-63500000D01*
X126000000Y-65380905D02*
X124119095Y-63500000D01*
%TO.C,TRACK_B*%
X115360000Y-70190000D02*
X115360000Y-68590000D01*
X115360000Y-68590000D02*
X113560000Y-68590000D01*
X107440000Y-68590000D02*
X107440000Y-67650000D01*
X106910000Y-73060000D02*
X114090000Y-73060000D01*
X105640000Y-70190000D02*
X105640000Y-68590000D01*
X105640000Y-68590000D02*
X107440000Y-68590000D01*
%TO.C,Rumble*%
X150260000Y-61840000D02*
X150260000Y-60240000D01*
X150260000Y-60240000D02*
X148460000Y-60240000D01*
X144840000Y-60240000D02*
X144840000Y-59300000D01*
X144310000Y-64710000D02*
X148990000Y-64710000D01*
X143040000Y-61840000D02*
X143040000Y-60240000D01*
X143040000Y-60240000D02*
X144840000Y-60240000D01*
%TO.C,L_Joy*%
X106401430Y-35150000D02*
X106071430Y-35390000D01*
X106071430Y-34910000D01*
X106401430Y-35150000D01*
G36*
X106401430Y-35150000D02*
G01*
X106071430Y-35390000D01*
X106071430Y-34910000D01*
X106401430Y-35150000D01*
G37*
X115381430Y-31610000D02*
X115381430Y-29890000D01*
X115381430Y-29890000D02*
X102861430Y-29890000D01*
X114931430Y-35260000D02*
X114931430Y-31610000D01*
X114931430Y-31610000D02*
X115381430Y-31610000D01*
X111781430Y-35260000D02*
X114931430Y-35260000D01*
X103311430Y-35260000D02*
X105461430Y-35260000D01*
X103311430Y-31610000D02*
X103311430Y-35260000D01*
X102861430Y-31610000D02*
X103311430Y-31610000D01*
X102861430Y-29890000D02*
X102861430Y-31610000D01*
%TO.C,L_shoulder*%
X125610000Y-31440000D02*
X125610000Y-29840000D01*
X125610000Y-29840000D02*
X123810000Y-29840000D01*
X118940000Y-29840000D02*
X118940000Y-28900000D01*
X118410000Y-34310000D02*
X124340000Y-34310000D01*
X117140000Y-31440000D02*
X117140000Y-29840000D01*
X117140000Y-29840000D02*
X118940000Y-29840000D01*
%TO.C,MPU*%
X105580000Y-66200000D02*
X102920000Y-66200000D01*
X105580000Y-48360000D02*
X105580000Y-66200000D01*
X105580000Y-48360000D02*
X102920000Y-48360000D01*
X104250000Y-45760000D02*
X102920000Y-45760000D01*
X102920000Y-48360000D02*
X102920000Y-66200000D01*
X102920000Y-45760000D02*
X102920000Y-47090000D01*
%TO.C,SPL*%
X112485000Y-40490000D02*
X112485000Y-38890000D01*
X112485000Y-38890000D02*
X110685000Y-38890000D01*
X105815000Y-38890000D02*
X105815000Y-37950000D01*
X105285000Y-43360000D02*
X111215000Y-43360000D01*
X104015000Y-40490000D02*
X104015000Y-38890000D01*
X104015000Y-38890000D02*
X105815000Y-38890000D01*
%TO.C,RST*%
X145075000Y-72500000D02*
X138675000Y-72500000D01*
X145075000Y-71300000D02*
X145075000Y-72500000D01*
X145075000Y-68500000D02*
X145075000Y-69700000D01*
X138675000Y-72500000D02*
X138675000Y-71300000D01*
X138675000Y-69700000D02*
X138675000Y-68500000D01*
X138675000Y-68500000D02*
X145075000Y-68500000D01*
%TO.C,PAD*%
X125360000Y-70240000D02*
X125360000Y-68640000D01*
X125360000Y-68640000D02*
X123560000Y-68640000D01*
X119940000Y-68640000D02*
X119940000Y-67700000D01*
X119410000Y-73110000D02*
X124090000Y-73110000D01*
X118140000Y-70240000D02*
X118140000Y-68640000D01*
X118140000Y-68640000D02*
X119940000Y-68640000D01*
%TO.C,J15*%
X51390000Y-121840000D02*
X53190000Y-121840000D01*
X51390000Y-123440000D02*
X51390000Y-121840000D01*
X52660000Y-126310000D02*
X58590000Y-126310000D01*
X53190000Y-121840000D02*
X53190000Y-120900000D01*
X59860000Y-121840000D02*
X58060000Y-121840000D01*
X59860000Y-123440000D02*
X59860000Y-121840000D01*
%TO.C,R8*%
X63120000Y-43403641D02*
X63120000Y-43096359D01*
X63880000Y-43403641D02*
X63880000Y-43096359D01*
%TO.C,RUMBLE*%
X82890000Y-60140000D02*
X82890000Y-61940000D01*
X82890000Y-65560000D02*
X81950000Y-65560000D01*
X82890000Y-67360000D02*
X82890000Y-65560000D01*
X84490000Y-60140000D02*
X82890000Y-60140000D01*
X84490000Y-67360000D02*
X82890000Y-67360000D01*
X87360000Y-66090000D02*
X87360000Y-61410000D01*
%TO.C,R20*%
X29120000Y-39596359D02*
X29120000Y-39903641D01*
X29880000Y-39596359D02*
X29880000Y-39903641D01*
%TO.C,R14*%
X72846359Y-51870000D02*
X73153641Y-51870000D01*
X72846359Y-52630000D02*
X73153641Y-52630000D01*
%TO.C,R4*%
X24846359Y-117370000D02*
X25153641Y-117370000D01*
X24846359Y-118130000D02*
X25153641Y-118130000D01*
%TO.C,JVin*%
X86170000Y-32630000D02*
X88830000Y-32630000D01*
X86170000Y-35230000D02*
X86170000Y-32630000D01*
X86170000Y-35230000D02*
X88830000Y-35230000D01*
X87500000Y-37830000D02*
X88830000Y-37830000D01*
X88830000Y-35230000D02*
X88830000Y-32630000D01*
X88830000Y-37830000D02*
X88830000Y-36500000D01*
%TO.C,R19*%
X67846359Y-70120000D02*
X68153641Y-70120000D01*
X67846359Y-70880000D02*
X68153641Y-70880000D01*
%TO.C,CAP?*%
X58945000Y-24420000D02*
X58945000Y-25750000D01*
X58945000Y-27020000D02*
X58945000Y-29620000D01*
X60275000Y-24420000D02*
X58945000Y-24420000D01*
X61605000Y-27020000D02*
X58945000Y-27020000D01*
X61605000Y-27020000D02*
X61605000Y-29620000D01*
X61605000Y-29620000D02*
X58945000Y-29620000D01*
%TO.C,J29*%
X56619095Y-33750001D02*
X57559547Y-34690451D01*
X57559549Y-32809547D02*
X56619095Y-33750001D01*
X58457574Y-35588478D02*
X78256563Y-55387468D01*
X60338477Y-33707574D02*
X58457574Y-35588478D01*
X60338477Y-33707574D02*
X80137468Y-53506563D01*
X80137468Y-53506563D02*
X78256563Y-55387468D01*
%TO.C,J28*%
X43862532Y-46243437D02*
X45743437Y-44362532D01*
X63661522Y-66042426D02*
X43862532Y-46243437D01*
X63661522Y-66042426D02*
X65542426Y-64161522D01*
X65542426Y-64161522D02*
X45743437Y-44362532D01*
X66440452Y-66940452D02*
X67380904Y-66000000D01*
X67380904Y-66000000D02*
X66440452Y-65059548D01*
%TO.C,I2C*%
X33475540Y-60169150D02*
X34748332Y-61441942D01*
X34606911Y-59037779D02*
X33475540Y-60169150D01*
X37308059Y-64001669D02*
X36643378Y-64666349D01*
X38580851Y-65274461D02*
X37308059Y-64001669D01*
X39712222Y-64143090D02*
X38580851Y-65274461D01*
X40843593Y-61215668D02*
X37534333Y-57906408D01*
%TO.C,R_SHOULDER*%
X43540000Y-27410000D02*
X43540000Y-29010000D01*
X43540000Y-29010000D02*
X45340000Y-29010000D01*
X50210000Y-29010000D02*
X50210000Y-29950000D01*
X50740000Y-24540000D02*
X44810000Y-24540000D01*
X52010000Y-27410000D02*
X52010000Y-29010000D01*
X52010000Y-29010000D02*
X50210000Y-29010000D01*
D13*
%TO.C,U1*%
X57733564Y-32733565D02*
X45161206Y-45305923D01*
X57823367Y-45395726D02*
X64827967Y-45395726D01*
X57823367Y-52400326D02*
X57823367Y-45395726D01*
X64827967Y-45395726D02*
X64827967Y-52400326D01*
X64827967Y-52400326D02*
X57823367Y-52400326D01*
X67522043Y-61200977D02*
X72685691Y-66364624D01*
X68509872Y-68654589D02*
X66713820Y-66858538D01*
X71203949Y-65960512D02*
X68509872Y-68654589D01*
X72685691Y-66364624D02*
X78792265Y-60258050D01*
X73628618Y-55094402D02*
X67522043Y-61200977D01*
X78388153Y-58776308D02*
X81082230Y-56082231D01*
X78792265Y-60258050D02*
X73628618Y-55094402D01*
X81082230Y-56082231D02*
X79286179Y-54286179D01*
X72685691Y-66364624D02*
G75*
G02*
X78792265Y-60258050I20126996J-14020422D01*
G01*
D12*
%TO.C,R18*%
X75370000Y-43403641D02*
X75370000Y-43096359D01*
X76130000Y-43403641D02*
X76130000Y-43096359D01*
%TO.C,PAD*%
X47225540Y-65919150D02*
X48498332Y-67191942D01*
X48356911Y-64787779D02*
X47225540Y-65919150D01*
X51058059Y-69751669D02*
X50393378Y-70416349D01*
X52330851Y-71024461D02*
X51058059Y-69751669D01*
X53462222Y-69893090D02*
X52330851Y-71024461D01*
X54593593Y-66965668D02*
X51284333Y-63656408D01*
%TO.C,RST*%
X59925000Y-71250000D02*
X66325000Y-71250000D01*
X59925000Y-72450000D02*
X59925000Y-71250000D01*
X59925000Y-75250000D02*
X59925000Y-74050000D01*
X66325000Y-71250000D02*
X66325000Y-72450000D01*
X66325000Y-74050000D02*
X66325000Y-75250000D01*
X66325000Y-75250000D02*
X59925000Y-75250000D01*
%TO.C,TRACK_B*%
X39091655Y-53285266D02*
X40364448Y-54558058D01*
X40223026Y-52153895D02*
X39091655Y-53285266D01*
X44691941Y-58885551D02*
X44027261Y-59550232D01*
X45964733Y-60158344D02*
X44691941Y-58885551D01*
X47096104Y-59026973D02*
X45964733Y-60158344D01*
X48227475Y-56099551D02*
X43150448Y-51022524D01*
%TO.C,J1*%
X36515000Y-121685000D02*
X36515000Y-123285000D01*
X36515000Y-123285000D02*
X38315000Y-123285000D01*
X43185000Y-123285000D02*
X43185000Y-124225000D01*
X43715000Y-118815000D02*
X37785000Y-118815000D01*
X44985000Y-121685000D02*
X44985000Y-123285000D01*
X44985000Y-123285000D02*
X43185000Y-123285000D01*
%TO.C,J22*%
X23265000Y-121935000D02*
X23265000Y-123535000D01*
X23265000Y-123535000D02*
X25065000Y-123535000D01*
X29935000Y-123535000D02*
X29935000Y-124475000D01*
X30465000Y-119065000D02*
X24535000Y-119065000D01*
X31735000Y-121935000D02*
X31735000Y-123535000D01*
X31735000Y-123535000D02*
X29935000Y-123535000D01*
%TO.C,J8*%
X78520000Y-121360000D02*
X80320000Y-121360000D01*
X78520000Y-122960000D02*
X78520000Y-121360000D01*
X79790000Y-125830000D02*
X85720000Y-125830000D01*
X80320000Y-121360000D02*
X80320000Y-120420000D01*
X86990000Y-121360000D02*
X85190000Y-121360000D01*
X86990000Y-122960000D02*
X86990000Y-121360000D01*
%TO.C,R2*%
X33596359Y-53870000D02*
X33903641Y-53870000D01*
X33596359Y-54630000D02*
X33903641Y-54630000D01*
%TO.C,R_JOY*%
X72990000Y-74890000D02*
X72990000Y-76610000D01*
X72990000Y-76610000D02*
X85510000Y-76610000D01*
X73440000Y-71240000D02*
X73440000Y-74890000D01*
X73440000Y-74890000D02*
X72990000Y-74890000D01*
X76590000Y-71240000D02*
X73440000Y-71240000D01*
X85060000Y-71240000D02*
X82910000Y-71240000D01*
X85060000Y-74890000D02*
X85060000Y-71240000D01*
X85510000Y-74890000D02*
X85060000Y-74890000D01*
X85510000Y-76610000D02*
X85510000Y-74890000D01*
X82300000Y-71590000D02*
X81970000Y-71350000D01*
X82300000Y-71110000D01*
X82300000Y-71590000D01*
G36*
X82300000Y-71590000D02*
G01*
X81970000Y-71350000D01*
X82300000Y-71110000D01*
X82300000Y-71590000D01*
G37*
%TO.C,J16*%
X65390000Y-121590000D02*
X67190000Y-121590000D01*
X65390000Y-123190000D02*
X65390000Y-121590000D01*
X66660000Y-126060000D02*
X72590000Y-126060000D01*
X67190000Y-121590000D02*
X67190000Y-120650000D01*
X73860000Y-121590000D02*
X72060000Y-121590000D01*
X73860000Y-123190000D02*
X73860000Y-121590000D01*
%TO.C,R5*%
X69836359Y-37870000D02*
X70143641Y-37870000D01*
X69836359Y-38630000D02*
X70143641Y-38630000D01*
%TO.C,R17*%
X40586359Y-116620000D02*
X40893641Y-116620000D01*
X40586359Y-117380000D02*
X40893641Y-117380000D01*
%TD*%
M02*
