%TF.GenerationSoftware,KiCad,Pcbnew,9.0.4*%
%TF.CreationDate,2026-01-28T15:51:58-05:00*%
%TF.ProjectId,contProto,636f6e74-5072-46f7-946f-2e6b69636164,rev?*%
%TF.SameCoordinates,Original*%
%TF.FileFunction,Soldermask,Top*%
%TF.FilePolarity,Negative*%
%FSLAX46Y46*%
G04 Gerber Fmt 4.6, Leading zero omitted, Abs format (unit mm)*
G04 Created by KiCad (PCBNEW 9.0.4) date 2026-01-28 15:51:58*
%MOMM*%
%LPD*%
G01*
G04 APERTURE LIST*
G04 Aperture macros list*
%AMRoundRect*
0 Rectangle with rounded corners*
0 $1 Rounding radius*
0 $2 $3 $4 $5 $6 $7 $8 $9 X,Y pos of 4 corners*
0 Add a 4 corners polygon primitive as box body*
4,1,4,$2,$3,$4,$5,$6,$7,$8,$9,$2,$3,0*
0 Add four circle primitives for the rounded corners*
1,1,$1+$1,$2,$3*
1,1,$1+$1,$4,$5*
1,1,$1+$1,$6,$7*
1,1,$1+$1,$8,$9*
0 Add four rect primitives between the rounded corners*
20,1,$1+$1,$2,$3,$4,$5,0*
20,1,$1+$1,$4,$5,$6,$7,0*
20,1,$1+$1,$6,$7,$8,$9,0*
20,1,$1+$1,$8,$9,$2,$3,0*%
%AMRotRect*
0 Rectangle, with rotation*
0 The origin of the aperture is its center*
0 $1 length*
0 $2 width*
0 $3 Rotation angle, in degrees counterclockwise*
0 Add horizontal line*
21,1,$1,$2,0,0,$3*%
G04 Aperture macros list end*
%ADD10RoundRect,0.135000X0.135000X0.185000X-0.135000X0.185000X-0.135000X-0.185000X0.135000X-0.185000X0*%
%ADD11C,1.700000*%
%ADD12R,1.700000X1.700000*%
%ADD13RoundRect,0.135000X-0.135000X-0.185000X0.135000X-0.185000X0.135000X0.185000X-0.135000X0.185000X0*%
%ADD14RotRect,1.700000X1.700000X135.000000*%
%ADD15R,1.250000X1.000000*%
%ADD16C,5.000000*%
%ADD17RoundRect,0.135000X0.185000X-0.135000X0.185000X0.135000X-0.185000X0.135000X-0.185000X-0.135000X0*%
%ADD18RoundRect,0.135000X-0.185000X0.135000X-0.185000X-0.135000X0.185000X-0.135000X0.185000X0.135000X0*%
%ADD19R,1.000000X1.250000*%
%ADD20R,1.050000X1.500000*%
%ADD21O,1.050000X1.500000*%
%ADD22RotRect,1.700000X1.700000X225.000000*%
%ADD23RotRect,1.700000X1.700000X45.000000*%
G04 APERTURE END LIST*
D10*
%TO.C,R6*%
X132490000Y-46750000D03*
X133510000Y-46750000D03*
%TD*%
D11*
%TO.C,cap?*%
X116210000Y-38775000D03*
D12*
X118750000Y-38775000D03*
%TD*%
D13*
%TO.C,R21*%
X139260000Y-58750000D03*
X138240000Y-58750000D03*
%TD*%
D11*
%TO.C,Vin*%
X130275000Y-70290000D03*
D12*
X130275000Y-67750000D03*
%TD*%
D13*
%TO.C,R13*%
X148013570Y-68500000D03*
X146993570Y-68500000D03*
%TD*%
D11*
%TO.C,J31*%
X113407898Y-50842102D03*
X115203949Y-49046051D03*
X117000000Y-47250000D03*
X118796051Y-45453949D03*
X120592102Y-43657898D03*
X122388154Y-41861846D03*
X124184205Y-40065795D03*
X125980256Y-38269744D03*
X127776307Y-36473693D03*
X129572359Y-34677641D03*
X131368410Y-32881590D03*
D14*
X133164461Y-31085539D03*
%TD*%
D11*
%TO.C,J30*%
X126000000Y-63500000D03*
X127796051Y-61703949D03*
X129592102Y-59907898D03*
X131388153Y-58111847D03*
X133184204Y-56315796D03*
X134980256Y-54519744D03*
X136776307Y-52723693D03*
X138572358Y-50927642D03*
X140368409Y-49131591D03*
X142164461Y-47335539D03*
X143960512Y-45539488D03*
D14*
X145756563Y-43743437D03*
%TD*%
D15*
%TO.C,R*%
X150375000Y-52750000D03*
X142625000Y-52750000D03*
%TD*%
D16*
%TO.C,REF\u002A\u002A*%
X148763570Y-72750000D03*
%TD*%
%TO.C,REF\u002A\u002A*%
X109000000Y-51000000D03*
%TD*%
D17*
%TO.C,R7*%
X130750000Y-49490000D03*
X130750000Y-50510000D03*
%TD*%
D18*
%TO.C,R16*%
X142500000Y-55510000D03*
X142500000Y-54490000D03*
%TD*%
D16*
%TO.C,REF\u002A\u002A*%
X148750000Y-47250000D03*
%TD*%
D19*
%TO.C,UP*%
X136500000Y-39000000D03*
X136500000Y-46750000D03*
%TD*%
%TO.C,DWN*%
X136500000Y-66625000D03*
X136500000Y-58875000D03*
%TD*%
D15*
%TO.C,L*%
X122625000Y-52750000D03*
X130375000Y-52750000D03*
%TD*%
D11*
%TO.C,MPU*%
X104250000Y-64870000D03*
X104250000Y-62330000D03*
X104250000Y-59790000D03*
X104250000Y-57250000D03*
X104250000Y-54710000D03*
X104250000Y-52170000D03*
X104250000Y-49630000D03*
D12*
X104250000Y-47090000D03*
%TD*%
%TO.C,J32*%
X29665000Y-92750000D03*
D11*
X27125000Y-92750000D03*
X24585000Y-92750000D03*
%TD*%
D13*
%TO.C,R3*%
X51990000Y-110500000D03*
X53010000Y-110500000D03*
%TD*%
D19*
%TO.C,A*%
X69490000Y-52380000D03*
X69490000Y-60130000D03*
%TD*%
D12*
%TO.C,J24*%
X72390000Y-105350000D03*
D11*
X69850000Y-105350000D03*
X67310000Y-105350000D03*
%TD*%
D19*
%TO.C,Y*%
X69490000Y-35125000D03*
X69490000Y-27375000D03*
%TD*%
D20*
%TO.C,U3*%
X71290000Y-97500000D03*
D21*
X70020000Y-97500000D03*
X68750000Y-97500000D03*
%TD*%
D15*
%TO.C,B*%
X78117500Y-43752500D03*
X85867500Y-43752500D03*
%TD*%
D16*
%TO.C,REF\u002A\u002A*%
X32500000Y-27500000D03*
%TD*%
D15*
%TO.C,SW19*%
X23500000Y-115000000D03*
X31250000Y-115000000D03*
%TD*%
D12*
%TO.C,J27*%
X52975000Y-105475000D03*
D11*
X55515000Y-105475000D03*
X58055000Y-105475000D03*
%TD*%
D13*
%TO.C,R10*%
X66590000Y-110350000D03*
X67610000Y-110350000D03*
%TD*%
D19*
%TO.C,SW12*%
X82480000Y-115745000D03*
X82480000Y-107995000D03*
%TD*%
D12*
%TO.C,J26*%
X72775000Y-89525000D03*
D11*
X70235000Y-89525000D03*
X67695000Y-89525000D03*
%TD*%
D15*
%TO.C,SW6*%
X44875000Y-100000000D03*
X37125000Y-100000000D03*
%TD*%
D16*
%TO.C,REF\u002A\u002A*%
X82500000Y-27500000D03*
%TD*%
D20*
%TO.C,U4*%
X56290000Y-98375000D03*
D21*
X55020000Y-98375000D03*
X53750000Y-98375000D03*
%TD*%
D12*
%TO.C,J33*%
X43125000Y-92750000D03*
D11*
X40585000Y-92750000D03*
X38045000Y-92750000D03*
%TD*%
D15*
%TO.C,SW15*%
X65850000Y-114600000D03*
X73600000Y-114600000D03*
%TD*%
D10*
%TO.C,R15*%
X44750000Y-96250000D03*
X43730000Y-96250000D03*
%TD*%
D15*
%TO.C,SW14*%
X78605000Y-100120000D03*
X86355000Y-100120000D03*
%TD*%
D13*
%TO.C,R9*%
X81970000Y-105620000D03*
X82990000Y-105620000D03*
%TD*%
D12*
%TO.C,J23*%
X29790000Y-109250000D03*
D11*
X27250000Y-109250000D03*
X24710000Y-109250000D03*
%TD*%
D12*
%TO.C,J12*%
X37960000Y-109250000D03*
D11*
X40500000Y-109250000D03*
X43040000Y-109250000D03*
%TD*%
D19*
%TO.C,SP1*%
X33250000Y-50625000D03*
X33250000Y-42875000D03*
%TD*%
D10*
%TO.C,R1*%
X30385000Y-96750000D03*
X29365000Y-96750000D03*
%TD*%
D15*
%TO.C,MINUS*%
X29500000Y-35000000D03*
X37250000Y-35000000D03*
%TD*%
%TO.C,SW20*%
X30625000Y-100000000D03*
X22875000Y-100000000D03*
%TD*%
%TO.C,X*%
X60862500Y-43752500D03*
X53112500Y-43752500D03*
%TD*%
%TO.C,SW16*%
X52000000Y-114750000D03*
X59750000Y-114750000D03*
%TD*%
%TO.C,SW13*%
X36750000Y-114750000D03*
X44500000Y-114750000D03*
%TD*%
D16*
%TO.C,REF\u002A\u002A*%
X85750000Y-53250000D03*
%TD*%
D12*
%TO.C,J25*%
X57775000Y-90650000D03*
D11*
X55235000Y-90650000D03*
X52695000Y-90650000D03*
%TD*%
D13*
%TO.C,R22*%
X85480000Y-115870000D03*
X86500000Y-115870000D03*
%TD*%
D12*
%TO.C,JVin*%
X87500000Y-36500000D03*
D11*
X87500000Y-33960000D03*
%TD*%
D12*
%TO.C,CAP?*%
X60275000Y-25750000D03*
D11*
X60275000Y-28290000D03*
%TD*%
D22*
%TO.C,J29*%
X58500000Y-33750000D03*
D11*
X60296051Y-35546051D03*
X62092102Y-37342102D03*
X63888154Y-39138154D03*
X65684206Y-40934204D03*
X67480256Y-42730256D03*
X69276307Y-44526307D03*
X71072360Y-46322359D03*
X72868409Y-48118409D03*
X74664460Y-49914462D03*
X76460513Y-51710512D03*
X78256563Y-53506563D03*
%TD*%
D23*
%TO.C,J28*%
X65500000Y-66000000D03*
D11*
X63703949Y-64203949D03*
X61907898Y-62407898D03*
X60111846Y-60611846D03*
X58315795Y-58815795D03*
X56519744Y-57019744D03*
X54723693Y-55223693D03*
X52927641Y-53427641D03*
X51131590Y-51631590D03*
X49335539Y-49835539D03*
X47539488Y-48039488D03*
X45743437Y-46243437D03*
%TD*%
M02*
