M48
; DRILL file {KiCad 9.0.4} date 2026-01-28T15:51:38-0500
; FORMAT={-:-/ absolute / metric / decimal}
; #@! TF.CreationDate,2026-01-28T15:51:38-05:00
; #@! TF.GenerationSoftware,Kicad,Pcbnew,9.0.4
; #@! TF.FileFunction,Plated,1,2,PTH
FMAT,2
METRIC
; #@! TA.AperFunction,Plated,PTH,ViaDrill
T1C0.300
; #@! TA.AperFunction,Plated,PTH,ComponentDrill
T2C0.750
; #@! TA.AperFunction,Plated,PTH,ComponentDrill
T3C1.000
; #@! TA.AperFunction,Plated,PTH,ComponentDrill
T4C2.500
%
G90
G05
T1
X22.875Y-100.0
X23.5Y-115.0
X25.51Y-117.75
X28.125Y-123.625
X29.512Y-39.245
X33.245Y-54.245
X33.25Y-42.862
X36.75Y-114.75
X37.125Y-100.0
X38.875Y-123.375
X41.375Y-123.375
X44.232Y-58.553
X45.9Y-29.1
X46.25Y-51.0
X48.831Y-67.652
X49.65Y-29.1
X49.715Y-68.535
X50.598Y-69.419
X53.112Y-43.752
X53.75Y-121.75
X55.0Y-121.75
X57.5Y-121.75
X59.25Y-73.25
X59.75Y-114.75
X62.25Y-56.25
X63.48Y-43.75
X67.49Y-70.5
X67.75Y-121.5
X69.48Y-38.25
X69.49Y-27.375
X69.49Y-60.13
X71.5Y-121.5
X72.49Y-52.25
X72.75Y-69.0
X73.6Y-114.6
X75.75Y-43.76
X76.75Y-69.5
X80.5Y-69.25
X82.48Y-107.995
X82.8Y-65.0
X82.99Y-105.62
X83.38Y-121.27
X84.63Y-121.27
X85.867Y-43.752
X86.5Y-115.87
X106.375Y-38.8
X108.0Y-68.5
X108.75Y-36.75
X108.875Y-38.8
X111.371Y-33.142
X119.264Y-64.25
X119.5Y-29.75
X120.5Y-68.55
X121.75Y-68.55
X123.0Y-68.55
X126.764Y-68.0
X130.75Y-49.49
X132.49Y-46.75
X133.5Y-42.25
X136.5Y-39.0
X138.0Y-70.5
X139.26Y-58.75
X142.5Y-55.51
X145.4Y-60.15
X145.75Y-70.5
X148.014Y-68.5
X150.375Y-52.75
T2
X53.75Y-98.375
X55.02Y-98.375
X56.29Y-98.375
X68.75Y-97.5
X70.02Y-97.5
X71.29Y-97.5
T3
X24.585Y-92.75
X24.71Y-109.25
X27.125Y-92.75
X27.25Y-109.25
X29.665Y-92.75
X29.79Y-109.25
X37.96Y-109.25
X38.045Y-92.75
X40.5Y-109.25
X40.585Y-92.75
X43.04Y-109.25
X43.125Y-92.75
X45.743Y-46.243
X47.539Y-48.039
X49.336Y-49.836
X51.132Y-51.632
X52.695Y-90.65
X52.928Y-53.428
X52.975Y-105.475
X54.724Y-55.224
X55.235Y-90.65
X55.515Y-105.475
X56.52Y-57.02
X57.775Y-90.65
X58.055Y-105.475
X58.316Y-58.816
X58.5Y-33.75
X60.112Y-60.612
X60.275Y-25.75
X60.275Y-28.29
X60.296Y-35.546
X61.908Y-62.408
X62.092Y-37.342
X63.704Y-64.204
X63.888Y-39.138
X65.5Y-66.0
X65.684Y-40.934
X67.31Y-105.35
X67.48Y-42.73
X67.695Y-89.525
X69.276Y-44.526
X69.85Y-105.35
X70.235Y-89.525
X71.072Y-46.322
X72.39Y-105.35
X72.775Y-89.525
X72.868Y-48.118
X74.664Y-49.914
X76.461Y-51.711
X78.257Y-53.507
X87.5Y-33.96
X87.5Y-36.5
X104.25Y-47.09
X104.25Y-49.63
X104.25Y-52.17
X104.25Y-54.71
X104.25Y-57.25
X104.25Y-59.79
X104.25Y-62.33
X104.25Y-64.87
X113.408Y-50.842
X115.204Y-49.046
X116.21Y-38.775
X117.0Y-47.25
X118.75Y-38.775
X118.796Y-45.454
X120.592Y-43.658
X122.388Y-41.862
X124.184Y-40.066
X125.98Y-38.27
X126.0Y-63.5
X127.776Y-36.474
X127.796Y-61.704
X129.572Y-34.678
X129.592Y-59.908
X130.275Y-67.75
X130.275Y-70.29
X131.368Y-32.882
X131.388Y-58.112
X133.164Y-31.086
X133.184Y-56.316
X134.98Y-54.52
X136.776Y-52.724
X138.572Y-50.928
X140.368Y-49.132
X142.164Y-47.336
X143.961Y-45.539
X145.757Y-43.743
T4
X32.5Y-27.5
X82.5Y-27.5
X85.75Y-53.25
X109.0Y-51.0
X148.75Y-47.25
X148.764Y-72.75
M30
